<?xml version="1.0" encoding="UTF-8"?>
<svg version="1.1" xmlns="http://www.w3.org/2000/svg" width="200" height="122">
<path d="M0 0 C0.95000885 -0.00554901 1.9000177 -0.01109802 2.8788147 -0.01681519 C6.01998284 -0.02862873 9.15971394 -0.00431838 12.30078125 0.02148438 C14.48266535 0.02319507 16.6645515 0.02313021 18.84643555 0.0213623 C23.41963355 0.02301652 27.99234194 0.04173385 32.56542969 0.07324219 C38.43018555 0.11291978 44.29429983 0.11728802 50.15916443 0.10977936 C54.66473274 0.10671118 59.17015656 0.11882481 63.6756897 0.13591003 C65.83825779 0.14294606 68.00084226 0.14606384 70.16342163 0.1452179 C73.18477019 0.14701373 76.20534718 0.16837768 79.2265625 0.1953125 C80.12226959 0.1923819 81.01797668 0.18945129 81.94082642 0.18643188 C85.52472491 0.2357783 87.95727294 0.26932023 91.16186523 1.95910645 C93.3318835 4.43519037 93.22407668 6.56622819 93.36328125 9.80273438 C93.42 10.88941406 93.47671875 11.97609375 93.53515625 13.09570312 C93.5609375 13.92714844 93.58671875 14.75859375 93.61328125 15.61523438 C94.27328125 15.61523438 94.93328125 15.61523438 95.61328125 15.61523438 C95.77828125 14.97585937 95.94328125 14.33648437 96.11328125 13.67773438 C97.61328125 11.61523438 97.61328125 11.61523438 101.55078125 10.92773438 C102.24042969 10.88261719 102.93007812 10.8375 103.640625 10.79101562 C105.82510721 10.67283528 105.82510721 10.67283528 108.61328125 9.61523438 C109.60328125 10.27523438 110.59328125 10.93523438 111.61328125 11.61523438 C111.28328125 13.26523437 110.95328125 14.91523437 110.61328125 16.61523438 C109.93265625 16.45023438 109.25203125 16.28523438 108.55078125 16.11523438 C105.05569668 15.52032636 102.1534111 15.23593475 98.61328125 15.61523438 C95.4537382 18.15660596 93.89787239 19.76146097 92.61328125 23.61523438 C94.92328125 23.61523438 97.23328125 23.61523438 99.61328125 23.61523438 C99.94328125 24.60523437 100.27328125 25.59523438 100.61328125 26.61523438 C98.30328125 26.94523437 95.99328125 27.27523437 93.61328125 27.61523438 C93.28328125 28.93523438 92.95328125 30.25523438 92.61328125 31.61523438 C93.23203125 31.90398438 93.85078125 32.19273438 94.48828125 32.49023438 C96.61328125 33.61523438 96.61328125 33.61523438 98.61328125 35.61523438 C100.93603302 36.01570882 103.27067482 36.35494477 105.61328125 36.61523438 C105.61328125 35.95523438 105.61328125 35.29523437 105.61328125 34.61523438 C107.26328125 34.61523438 108.91328125 34.61523438 110.61328125 34.61523438 C110.99546892 36.27138095 111.32723227 37.93980462 111.61328125 39.61523438 C111.28328125 39.94523437 110.95328125 40.27523437 110.61328125 40.61523438 C108.65254853 40.57719031 106.69308518 40.45977498 104.73828125 40.30273438 C103.66835937 40.22410156 102.5984375 40.14546875 101.49609375 40.06445312 C98.61328125 39.61523438 98.61328125 39.61523438 95.61328125 37.61523438 C95.61328125 36.95523438 95.61328125 36.29523437 95.61328125 35.61523438 C94.95328125 35.61523438 94.29328125 35.61523438 93.61328125 35.61523438 C93.28328125 39.90523437 92.95328125 44.19523437 92.61328125 48.61523438 C94.01578125 48.90398437 95.41828125 49.19273438 96.86328125 49.49023438 C100.06557927 50.14953103 102.79280103 50.93043425 105.61328125 52.61523438 C107.78193131 56.95253449 106.88756701 62.72619203 106.92578125 67.49023438 C106.95478516 68.68777344 106.98378906 69.8853125 107.01367188 71.11914062 C107.02205078 72.27027344 107.03042969 73.42140625 107.0390625 74.60742188 C107.06093628 76.19079346 107.06093628 76.19079346 107.08325195 77.80615234 C106.49358578 81.33067128 105.40092496 82.44620311 102.61328125 84.61523438 C93.53049881 87.91806435 83.37054295 87.79137133 74.3203125 84.46679688 C72.61328125 83.61523438 72.61328125 83.61523438 70.61328125 81.61523438 C70.61328125 80.62523438 70.61328125 79.63523437 70.61328125 78.61523438 C69.63466629 78.62633743 68.65605133 78.63744049 67.64778137 78.64888 C58.42241992 78.75026614 49.19717158 78.8252045 39.97137928 78.87429523 C35.22832318 78.90038204 30.48571705 78.93576313 25.74291992 78.99243164 C21.16525035 79.04678446 16.58801338 79.07666181 12.01004601 79.08962059 C10.26409787 79.09885464 8.51817325 79.11688699 6.77240944 79.14388466 C4.32537426 79.18022001 1.88012316 79.18517808 -0.56713867 79.18286133 C-1.28787064 79.20083771 -2.0086026 79.21881409 -2.75117493 79.23733521 C-6.62747555 79.19766368 -8.26686669 78.71007607 -11.34492493 76.27433777 C-13.85253511 73.00858456 -13.92235694 71.3638494 -13.69921875 67.30273438 C-13.63154297 65.69978516 -13.63154297 65.69978516 -13.5625 64.06445312 C-13.50449219 63.25621094 -13.44648437 62.44796875 -13.38671875 61.61523438 C-14.04671875 61.61523438 -14.70671875 61.61523438 -15.38671875 61.61523438 C-16.04671875 62.93523437 -16.70671875 64.25523438 -17.38671875 65.61523438 C-18.70671875 65.61523438 -20.02671875 65.61523438 -21.38671875 65.61523438 C-21.38671875 64.62523438 -21.38671875 63.63523438 -21.38671875 62.61523438 C-20.60296875 62.53273437 -19.81921875 62.45023438 -19.01171875 62.36523438 C-16.29220362 61.88899113 -16.29220362 61.88899113 -15.13671875 59.80273438 C-14.43352325 57.75174751 -13.84095619 55.73500908 -13.38671875 53.61523438 C-14.04671875 53.61523438 -14.70671875 53.61523438 -15.38671875 53.61523438 C-15.38671875 52.62523437 -15.38671875 51.63523438 -15.38671875 50.61523438 C-14.72671875 50.61523438 -14.06671875 50.61523438 -13.38671875 50.61523438 C-13.69609375 49.85210937 -14.00546875 49.08898437 -14.32421875 48.30273438 C-15.06565468 46.42733761 -15.74900092 44.52838786 -16.38671875 42.61523438 C-21.37016201 41.39976041 -24.53829291 42.12341104 -29.38671875 43.61523438 C-30.04671875 43.28523438 -30.70671875 42.95523438 -31.38671875 42.61523438 C-31.38671875 40.96523438 -31.38671875 39.31523438 -31.38671875 37.61523438 C-27.25585646 36.43498801 -25.25499332 36.87451082 -21.38671875 38.61523438 C-19.72751979 38.98394525 -18.06195445 39.32805111 -16.38671875 39.61523438 C-16.05671875 40.60523438 -15.72671875 41.59523437 -15.38671875 42.61523438 C-14.72671875 42.61523438 -14.06671875 42.61523438 -13.38671875 42.61523438 C-13.40766602 41.52057861 -13.42861328 40.42592285 -13.45019531 39.2980957 C-13.52274584 35.22612657 -13.56857284 31.15421427 -13.60644531 27.08178711 C-13.62652661 25.32127262 -13.65379754 23.56082455 -13.68847656 21.80053711 C-13.73714987 19.26594635 -13.7597218 16.73223943 -13.77734375 14.19726562 C-13.79798889 13.41374222 -13.81863403 12.63021881 -13.83990479 11.82295227 C-13.84130158 8.39995331 -13.56211854 5.94485062 -11.94500732 2.90592957 C-8.15938369 -0.48372317 -4.92468875 -0.07292267 0 0 Z M-8.38671875 3.61523438 C-10.76742942 7.18630038 -10.6396919 8.74354822 -10.64550781 12.98266602 C-10.65181213 14.29735367 -10.65811646 15.61204132 -10.66461182 16.96656799 C-10.66103241 18.40284357 -10.65693054 19.83911792 -10.65234375 21.27539062 C-10.65369083 22.74604863 -10.65563172 24.21670619 -10.65814209 25.68736267 C-10.66109043 28.76826216 -10.65680446 31.84904564 -10.64746094 34.92993164 C-10.63605646 38.88351943 -10.64263385 42.83683598 -10.65460587 46.79041386 C-10.66182378 49.82639113 -10.65953705 52.86230381 -10.65435028 55.898283 C-10.65301411 57.35636871 -10.65466038 58.81446024 -10.65930939 60.27253914 C-10.6643743 62.30742408 -10.65528907 64.34232953 -10.64550781 66.37719727 C-10.64312103 68.11568687 -10.64312103 68.11568687 -10.64068604 69.88929749 C-10.66563479 72.76196021 -10.66563479 72.76196021 -8.38671875 74.61523438 C-7.09038254 73.54878323 -7.09038254 73.54878323 -7.32421875 71.05273438 C-7.34484375 70.24835938 -7.36546875 69.44398437 -7.38671875 68.61523438 C-6.72671875 68.61523438 -6.06671875 68.61523438 -5.38671875 68.61523438 C-5.05671875 51.78523438 -4.72671875 34.95523437 -4.38671875 17.61523438 C17.53497382 17.57512557 17.53497382 17.57512557 26.84570312 17.56640625 C33.21053903 17.56041757 39.57536061 17.55331663 45.94018555 17.53979492 C51.0689211 17.52896683 56.19764131 17.52295771 61.32638741 17.52035713 C63.28769739 17.51850274 65.24900649 17.51488187 67.21030998 17.50950432 C69.94743572 17.50229491 72.68449722 17.50124339 75.42163086 17.50170898 C76.65053543 17.49631607 76.65053543 17.49631607 77.90426636 17.49081421 C83.49922909 17.50118221 83.49922909 17.50118221 84.61328125 18.61523438 C84.7720208 20.83211431 84.86461962 23.05378736 84.9296875 25.27539062 C84.9504686 25.93985703 84.97124969 26.60432343 84.99266052 27.28892517 C85.05821783 29.41841981 85.1170691 31.54804106 85.17578125 33.67773438 C85.21896064 35.11850285 85.26257474 36.55925837 85.30664062 38 C85.41390518 41.53827478 85.51515496 45.07669307 85.61328125 48.61523438 C86.93328125 48.61523438 88.25328125 48.61523438 89.61328125 48.61523438 C89.61328125 34.09523437 89.61328125 19.57523437 89.61328125 4.61523438 C86.21615943 2.91667347 82.34330937 3.45881045 78.60546875 3.45410156 C77.67204651 3.44913666 76.73862427 3.44417175 75.7769165 3.4390564 C72.68069734 3.42441774 69.58452937 3.41763089 66.48828125 3.41210938 C64.34358722 3.40636053 62.19889321 3.40060276 60.05419922 3.39483643 C55.55501058 3.3843224 51.05583983 3.37848197 46.55664062 3.375 C40.77914323 3.36950615 35.00188044 3.34546075 29.22445679 3.31702805 C24.79450783 3.29844844 20.36461599 3.29319863 15.93463135 3.29166412 C13.80388096 3.28862784 11.67313179 3.28056674 9.54241943 3.26747894 C6.56845978 3.25051163 3.59508153 3.25227546 0.62109375 3.25878906 C-0.26624451 3.24957428 -1.15358276 3.2403595 -2.06781006 3.23086548 C-4.75721311 3.21366659 -4.75721311 3.21366659 -8.38671875 3.61523438 Z " fill="#4196FC" transform="translate(56.38671875,21.384765625)"/>
<path d="M0 0 C1.41805831 0.28482368 2.83440379 0.57818144 4.25 0.875 C5.43335938 1.11863281 5.43335938 1.11863281 6.640625 1.3671875 C8.99603118 1.99893552 10.90809364 2.75040992 13 4 C15.16865006 8.33730012 14.27428576 14.11095765 14.3125 18.875 C14.35600586 20.67130859 14.35600586 20.67130859 14.40039062 22.50390625 C14.40876953 23.65503906 14.41714844 24.80617188 14.42578125 25.9921875 C14.44036377 27.04776855 14.45494629 28.10334961 14.4699707 29.19091797 C13.88030453 32.71543691 12.78764371 33.83096873 10 36 C0.92840747 39.29876092 -9.18021949 39.09009368 -18.29296875 36.046875 C-20.52930675 34.67539083 -21.16978626 33.46745091 -22 31 C-21.505 29.515 -21.505 29.515 -21 28 C-47.07 28 -73.14 28 -100 28 C-101.09658936 24.71023192 -100.79953138 23.28696233 -100 20 C-99.48947083 20.16076523 -98.97894165 20.32153046 -98.45294189 20.48716736 C-95.19400524 21.16850804 -92.08298953 21.1656787 -88.75292969 21.20532227 C-88.03058136 21.21522186 -87.30823303 21.22512146 -86.56399536 21.23532104 C-84.18332158 21.26683484 -81.80262787 21.2916533 -79.421875 21.31640625 C-77.76848846 21.33698453 -76.11510709 21.35798123 -74.46173096 21.37937927 C-70.11511417 21.43450974 -65.76845062 21.48395873 -61.42175293 21.53222656 C-56.9842514 21.58250757 -52.54681758 21.63815916 -48.109375 21.69335938 C-39.4063073 21.80083053 -30.70318285 21.90229991 -22 22 C-22.10441406 20.33710937 -22.10441406 20.33710937 -22.2109375 18.640625 C-22.26722523 17.177144 -22.32182432 15.71359738 -22.375 14.25 C-22.42527344 13.52039063 -22.47554688 12.79078125 -22.52734375 12.0390625 C-22.5859375 9.890625 -22.5859375 9.890625 -22 6 C-17.8533636 2.37097424 -14.46645372 1.27795527 -9 1 C-5.97929342 1.21231803 -2.99533584 1.55851059 0 2 C0 1.34 0 0.68 0 0 Z " fill="#626268" transform="translate(149,70)"/>
<path d="M0 0 C0.95000885 -0.00554901 1.9000177 -0.01109802 2.8788147 -0.01681519 C6.01998284 -0.02862873 9.15971394 -0.00431838 12.30078125 0.02148438 C14.48266535 0.02319507 16.6645515 0.02313021 18.84643555 0.0213623 C23.41963355 0.02301652 27.99234194 0.04173385 32.56542969 0.07324219 C38.43018555 0.11291978 44.29429983 0.11728802 50.15916443 0.10977936 C54.66473274 0.10671118 59.17015656 0.11882481 63.6756897 0.13591003 C65.83825779 0.14294606 68.00084226 0.14606384 70.16342163 0.1452179 C73.18477019 0.14701373 76.20534718 0.16837768 79.2265625 0.1953125 C80.12226959 0.1923819 81.01797668 0.18945129 81.94082642 0.18643188 C85.52472491 0.2357783 87.95727294 0.26932023 91.16186523 1.95910645 C93.3318835 4.43519037 93.22407668 6.56622819 93.36328125 9.80273438 C93.42 10.88941406 93.47671875 11.97609375 93.53515625 13.09570312 C93.5609375 13.92714844 93.58671875 14.75859375 93.61328125 15.61523438 C94.27328125 15.61523438 94.93328125 15.61523438 95.61328125 15.61523438 C95.77828125 14.97585937 95.94328125 14.33648437 96.11328125 13.67773438 C97.61328125 11.61523438 97.61328125 11.61523438 101.55078125 10.92773438 C102.24042969 10.88261719 102.93007812 10.8375 103.640625 10.79101562 C105.82510721 10.67283528 105.82510721 10.67283528 108.61328125 9.61523438 C109.60328125 10.27523438 110.59328125 10.93523438 111.61328125 11.61523438 C111.28328125 13.26523437 110.95328125 14.91523437 110.61328125 16.61523438 C109.93265625 16.45023438 109.25203125 16.28523438 108.55078125 16.11523438 C105.05569668 15.52032636 102.1534111 15.23593475 98.61328125 15.61523438 C95.4537382 18.15660596 93.89787239 19.76146097 92.61328125 23.61523438 C94.92328125 23.61523438 97.23328125 23.61523438 99.61328125 23.61523438 C99.94328125 24.60523437 100.27328125 25.59523438 100.61328125 26.61523438 C98.30328125 26.94523437 95.99328125 27.27523437 93.61328125 27.61523438 C93.28328125 28.93523438 92.95328125 30.25523438 92.61328125 31.61523438 C93.23203125 31.90398438 93.85078125 32.19273438 94.48828125 32.49023438 C96.61328125 33.61523438 96.61328125 33.61523438 98.61328125 35.61523438 C100.93603302 36.01570882 103.27067482 36.35494477 105.61328125 36.61523438 C105.61328125 35.95523438 105.61328125 35.29523437 105.61328125 34.61523438 C107.26328125 34.61523438 108.91328125 34.61523438 110.61328125 34.61523438 C110.99546892 36.27138095 111.32723227 37.93980462 111.61328125 39.61523438 C111.28328125 39.94523437 110.95328125 40.27523437 110.61328125 40.61523438 C108.65254853 40.57719031 106.69308518 40.45977498 104.73828125 40.30273438 C103.66835937 40.22410156 102.5984375 40.14546875 101.49609375 40.06445312 C98.61328125 39.61523438 98.61328125 39.61523438 95.61328125 37.61523438 C95.61328125 36.95523438 95.61328125 36.29523437 95.61328125 35.61523438 C94.95328125 35.61523438 94.29328125 35.61523438 93.61328125 35.61523438 C93.28328125 40.56523438 92.95328125 45.51523438 92.61328125 50.61523438 C89.64328125 50.61523438 86.67328125 50.61523438 83.61328125 50.61523438 C84.60328125 49.62523438 84.60328125 49.62523438 85.61328125 48.61523438 C86.93328125 48.61523438 88.25328125 48.61523438 89.61328125 48.61523438 C89.61328125 34.09523437 89.61328125 19.57523437 89.61328125 4.61523438 C57.27328125 4.61523438 24.93328125 4.61523438 -8.38671875 4.61523438 C-9.78517122 7.41213931 -9.52169186 9.72438263 -9.53198242 12.85327148 C-9.53836227 14.16480698 -9.54474213 15.47634247 -9.55131531 16.82762146 C-9.55284391 18.26593998 -9.55395791 19.70425898 -9.5546875 21.14257812 C-9.55789961 22.61226942 -9.56126365 24.08196039 -9.56477356 25.551651 C-9.5707662 28.63429506 -9.57261331 31.71691107 -9.57202148 34.79956055 C-9.57191984 38.75193784 -9.58557405 42.70413558 -9.60279369 46.6564703 C-9.61390549 49.6924777 -9.61594095 52.72844158 -9.61541176 55.76446724 C-9.61659304 57.2217324 -9.6210231 58.67899864 -9.62874413 60.13624382 C-9.63852721 62.17340666 -9.63440608 64.21062199 -9.62963867 66.24780273 C-9.63106369 67.4075914 -9.63248871 68.56738007 -9.63395691 69.76231384 C-9.59957734 72.81680394 -9.59957734 72.81680394 -7.38671875 75.61523438 C-4.81696324 75.93151253 -2.48226273 76.05265816 0.09228516 76.04760742 C0.86310928 76.05779907 1.63393341 76.06799072 2.42811584 76.07849121 C4.9820979 76.10874373 7.53570569 76.11790558 10.08984375 76.12695312 C11.85819762 76.14379078 13.62653945 76.16193977 15.39486694 76.18135071 C20.05387613 76.2289563 24.71283655 76.25869716 29.37200928 76.28479004 C34.12440631 76.31454249 38.87663506 76.36109095 43.62890625 76.40625 C52.95694342 76.49240312 62.28501511 76.55969479 71.61328125 76.61523438 C71.11828125 78.10023437 71.11828125 78.10023437 70.61328125 79.61523438 C60.39906415 79.60036086 50.18533783 79.55877358 39.97137928 79.48314381 C35.22849525 79.44886296 30.48593371 79.42376214 25.74291992 79.41967773 C21.16497707 79.41539711 16.58776182 79.38695433 12.01004601 79.3418026 C10.26421027 79.32881999 8.51828749 79.32452263 6.77240944 79.32908058 C4.32509578 79.33398142 1.87991292 79.30792077 -0.56713867 79.2746582 C-1.28787064 79.28328384 -2.0086026 79.29190948 -2.75117493 79.30079651 C-6.61544206 79.21283397 -8.2795949 78.7002117 -11.34492493 76.26860046 C-13.85488554 73.00683902 -13.92225799 71.3620485 -13.69921875 67.30273438 C-13.63154297 65.69978516 -13.63154297 65.69978516 -13.5625 64.06445312 C-13.50449219 63.25621094 -13.44648437 62.44796875 -13.38671875 61.61523438 C-14.04671875 61.61523438 -14.70671875 61.61523438 -15.38671875 61.61523438 C-16.04671875 62.93523437 -16.70671875 64.25523438 -17.38671875 65.61523438 C-18.70671875 65.61523438 -20.02671875 65.61523438 -21.38671875 65.61523438 C-21.38671875 64.62523438 -21.38671875 63.63523438 -21.38671875 62.61523438 C-20.60296875 62.53273437 -19.81921875 62.45023438 -19.01171875 62.36523438 C-16.29220362 61.88899113 -16.29220362 61.88899113 -15.13671875 59.80273438 C-14.43352325 57.75174751 -13.84095619 55.73500908 -13.38671875 53.61523438 C-14.04671875 53.61523438 -14.70671875 53.61523438 -15.38671875 53.61523438 C-15.38671875 52.62523437 -15.38671875 51.63523438 -15.38671875 50.61523438 C-14.72671875 50.61523438 -14.06671875 50.61523438 -13.38671875 50.61523438 C-13.69609375 49.85210937 -14.00546875 49.08898437 -14.32421875 48.30273438 C-15.06565468 46.42733761 -15.74900092 44.52838786 -16.38671875 42.61523438 C-21.37016201 41.39976041 -24.53829291 42.12341104 -29.38671875 43.61523438 C-30.04671875 43.28523438 -30.70671875 42.95523438 -31.38671875 42.61523438 C-31.38671875 40.96523438 -31.38671875 39.31523438 -31.38671875 37.61523438 C-27.25585646 36.43498801 -25.25499332 36.87451082 -21.38671875 38.61523438 C-19.72751979 38.98394525 -18.06195445 39.32805111 -16.38671875 39.61523438 C-16.05671875 40.60523438 -15.72671875 41.59523437 -15.38671875 42.61523438 C-14.72671875 42.61523438 -14.06671875 42.61523438 -13.38671875 42.61523438 C-13.40766602 41.52057861 -13.42861328 40.42592285 -13.45019531 39.2980957 C-13.52274584 35.22612657 -13.56857284 31.15421427 -13.60644531 27.08178711 C-13.62652661 25.32127262 -13.65379754 23.56082455 -13.68847656 21.80053711 C-13.73714987 19.26594635 -13.7597218 16.73223943 -13.77734375 14.19726562 C-13.79798889 13.41374222 -13.81863403 12.63021881 -13.83990479 11.82295227 C-13.84130158 8.39995331 -13.56211854 5.94485062 -11.94500732 2.90592957 C-8.15938369 -0.48372317 -4.92468875 -0.07292267 0 0 Z " fill="#121212" transform="translate(56.38671875,21.384765625)"/>
<path d="M0 0 C0.51052917 0.16076523 1.02105835 0.32153046 1.54705811 0.48716736 C4.80599476 1.16850804 7.91701047 1.1656787 11.24707031 1.20532227 C11.96941864 1.21522186 12.69176697 1.22512146 13.43600464 1.23532104 C15.81667842 1.26683484 18.19737213 1.2916533 20.578125 1.31640625 C22.23151154 1.33698453 23.88489291 1.35798123 25.53826904 1.37937927 C29.88488583 1.43450974 34.23154938 1.48395873 38.57824707 1.53222656 C43.0157486 1.58250757 47.45318242 1.63815916 51.890625 1.69335938 C60.5936927 1.80083053 69.29681715 1.90229991 78 2 C78 3.98 78 5.96 78 8 C52.26 8 26.52 8 0 8 C-1.09658936 4.71023192 -0.79953138 3.28696233 0 0 Z " fill="#F2F3F4" transform="translate(49,90)"/>
<path d="M0 0 C0.99 0.66 1.98 1.32 3 2 C3.51171875 4.8203125 3.51171875 4.8203125 3.6875 8.125 C3.75324219 9.22070312 3.81898438 10.31640625 3.88671875 11.4453125 C3.92410156 12.28835937 3.96148437 13.13140625 4 14 C4.66 14 5.32 14 6 14 C6.165 13.360625 6.33 12.72125 6.5 12.0625 C8 10 8 10 11.9375 9.3125 C12.62714844 9.26738281 13.31679687 9.22226562 14.02734375 9.17578125 C16.21182596 9.05760091 16.21182596 9.05760091 19 8 C19.99 8.66 20.98 9.32 22 10 C21.67 11.65 21.34 13.3 21 15 C20.319375 14.835 19.63875 14.67 18.9375 14.5 C15.44241543 13.90509199 12.54012985 13.62070037 9 14 C5.84045695 16.54137159 4.28459114 18.14622659 3 22 C5.31 22 7.62 22 10 22 C10.33 22.99 10.66 23.98 11 25 C8.69 25.33 6.38 25.66 4 26 C3.67 27.32 3.34 28.64 3 30 C3.928125 30.433125 3.928125 30.433125 4.875 30.875 C7 32 7 32 9 34 C11.32275177 34.40047444 13.65739357 34.7397104 16 35 C16 34.34 16 33.68 16 33 C17.65 33 19.3 33 21 33 C21.38218767 34.65614657 21.71395102 36.32457024 22 38 C21.67 38.33 21.34 38.66 21 39 C19.03926728 38.96195593 17.07980393 38.8445406 15.125 38.6875 C14.05507812 38.60886719 12.98515625 38.53023437 11.8828125 38.44921875 C9 38 9 38 6 36 C6 35.34 6 34.68 6 34 C5.34 34 4.68 34 4 34 C3.67 38.95 3.34 43.9 3 49 C0.03 49 -2.94 49 -6 49 C-5.34 48.34 -4.68 47.68 -4 47 C-2.68 47 -1.36 47 0 47 C0 32.48 0 17.96 0 3 C-0.66 2.67 -1.32 2.34 -2 2 C-1.34 2 -0.68 2 0 2 C0 1.34 0 0.68 0 0 Z " fill="#1A1A1B" transform="translate(146,23)"/>
<path d="M0 0 C0.8765625 -0.01998047 1.753125 -0.03996094 2.65625 -0.06054688 C8.41199569 -0.05621273 11.5511686 0.74233576 16 4.4375 C15.67 5.4275 15.34 6.4175 15 7.4375 C6.07297065 11.90101467 -4.0572893 11.45117958 -13.3203125 8.484375 C-15 7.4375 -15 7.4375 -15.7421875 5.328125 C-15.82726562 4.70421875 -15.91234375 4.0803125 -16 3.4375 C-10.62409772 0.10408691 -6.12910121 -0.04957361 0 0 Z " fill="#F7F7F7" transform="translate(145,72.5625)"/>
<path d="M0 0 C1.21042969 0.48726563 1.21042969 0.48726563 2.4453125 0.984375 C6.70982698 2.20280771 10.46936874 2.29412986 14.875 2.25 C15.63941406 2.25773437 16.40382812 2.26546875 17.19140625 2.2734375 C22.43592831 2.25562928 26.95900128 1.44684701 32 0 C32.25 2.3125 32.25 2.3125 32 5 C28.44042073 8.84434561 23.4408644 9.7858243 18.41796875 10.2265625 C12.12368426 10.42023279 6.76627495 9.58811875 1 7 C0 6 0 6 -0.0625 2.9375 C-0.041875 1.968125 -0.02125 0.99875 0 0 Z " fill="#E0E0E2" transform="translate(129,81)"/>
<path d="M0 0 C0.58265625 0.2165625 1.1653125 0.433125 1.765625 0.65625 C12.29124995 4.23099055 21.61636655 3.85940358 32 0 C32.1015625 2.39453125 32.1015625 2.39453125 32 5 C28.4275059 8.70989772 23.60217622 9.858361 18.59765625 10.30078125 C6.74492397 10.34007208 6.74492397 10.34007208 1 7 C0 6 0 6 -0.0625 2.9375 C-0.041875 1.968125 -0.02125 0.99875 0 0 Z " fill="#DEDEE0" transform="translate(129,96)"/>
<path d="M0 0 C0 1.98 0 3.96 0 6 C-7.34168722 10.79457125 -14.39546429 10.78471906 -23 10 C-29.52722444 8.47277556 -29.52722444 8.47277556 -32 6 C-32.125 3.375 -32.125 3.375 -32 1 C-31.03191406 1.32355469 -30.06382812 1.64710937 -29.06640625 1.98046875 C-24.67584221 3.22970848 -20.47853224 3.33143675 -15.9375 3.3125 C-15.16083984 3.32861328 -14.38417969 3.34472656 -13.58398438 3.36132812 C-8.61578065 3.3655349 -4.26373504 0 0 0 Z " fill="#E2E2E4" transform="translate(161,88)"/>
<path d="M0 0 C0.33 0 0.66 0 1 0 C1 22.44 1 44.88 1 68 C0.67 68 0.34 68 0 68 C0 64.04 0 60.08 0 56 C-0.66 56 -1.32 56 -2 56 C-2.66 57.32 -3.32 58.64 -4 60 C-5.32 60 -6.64 60 -8 60 C-8 59.01 -8 58.02 -8 57 C-7.21625 56.9175 -6.4325 56.835 -5.625 56.75 C-2.90548487 56.27375675 -2.90548487 56.27375675 -1.75 54.1875 C-1.0468045 52.13651313 -0.45423744 50.11977471 0 48 C-0.66 48 -1.32 48 -2 48 C-2 47.01 -2 46.02 -2 45 C-1.34 45 -0.68 45 0 45 C-0.309375 44.236875 -0.61875 43.47375 -0.9375 42.6875 C-1.67893593 40.81210323 -2.36228217 38.91315348 -3 37 C-7.98344326 35.78452603 -11.15157416 36.50817666 -16 38 C-16.66 37.67 -17.32 37.34 -18 37 C-18 35.35 -18 33.7 -18 32 C-13.86913771 30.81975363 -11.86827457 31.25927644 -8 33 C-6.34080104 33.36871088 -4.6752357 33.71281674 -3 34 C-2.67 34.99 -2.34 35.98 -2 37 C-1.34 37 -0.68 37 0 37 C0 24.79 0 12.58 0 0 Z " fill="#5C5C60" transform="translate(43,27)"/>
<path d="M0 0 C6.43132585 0.60672885 6.43132585 0.60672885 8.70336914 2.17797852 C11.57121935 6.20787234 10.46566934 12.18200292 10.4375 16.9375 C10.4674707 18.72704102 10.4674707 18.72704102 10.49804688 20.55273438 C10.49740234 21.69935547 10.49675781 22.84597656 10.49609375 24.02734375 C10.49887329 25.60116821 10.49887329 25.60116821 10.50170898 27.20678711 C9.87374323 30.70292151 8.76884215 31.83847683 6 34 C-3.07159253 37.29876092 -13.18021949 37.09009368 -22.29296875 34.046875 C-24.46843842 32.71271969 -25.06079055 31.33116601 -26 29 C-25.195625 29.433125 -25.195625 29.433125 -24.375 29.875 C-16.36645636 33.66852067 -7.75980671 34.4477775 0.875 32.27734375 C3.16915857 31.36923931 5.0505009 30.51037926 7 29 C8.2113453 26.3912295 8.2113453 26.3912295 8 24 C7.34 23.67 6.68 23.34 6 23 C6.495 22.505 6.495 22.505 7 22 C7.07325168 19.13732433 7.09238205 16.299281 7.0625 13.4375 C7.05798828 12.63119141 7.05347656 11.82488281 7.04882812 10.99414062 C7.03700518 8.99606244 7.01906914 6.99802217 7 5 C4.69 3.68 2.38 2.36 0 1 C0 0.67 0 0.34 0 0 Z " fill="#494A50" transform="translate(153,72)"/>
<path d="M0 0 C2.31 0.33 4.62 0.66 7 1 C3.99433147 3.00377902 3.32502138 3.25434379 -0.0546875 3.34375 C-1.22451172 3.38822266 -1.22451172 3.38822266 -2.41796875 3.43359375 C-3.22878906 3.45550781 -4.03960937 3.47742188 -4.875 3.5 C-12.1573787 3.65068017 -12.1573787 3.65068017 -19 6 C-19 6.99 -19 7.98 -19 9 C-8.46838686 13.36866915 1.05216021 12.37167903 12 10 C6.64291803 14.40046019 1.72833775 14.18214591 -4.9375 14.1875 C-5.73607422 14.19974609 -6.53464844 14.21199219 -7.35742188 14.22460938 C-11.69590705 14.23539269 -15.0475252 14.02015379 -19 12 C-19 13.98 -19 15.96 -19 18 C-19.66 18 -20.32 18 -21 18 C-21.33 19.32 -21.66 20.64 -22 22 C-22.16236745 19.41414795 -22.28095486 16.83848046 -22.375 14.25 C-22.42527344 13.52039063 -22.47554688 12.79078125 -22.52734375 12.0390625 C-22.5859375 9.890625 -22.5859375 9.890625 -22 6 C-17.8533636 2.37097424 -14.46645372 1.27795527 -9 1 C-5.97929342 1.21231803 -2.99533584 1.55851059 0 2 C0 1.34 0 0.68 0 0 Z " fill="#4A5568" transform="translate(149,70)"/>
<path d="M0 0 C0.82871109 -0.00412399 1.65742218 -0.00824799 2.51124573 -0.01249695 C3.41683228 -0.00171112 4.32241882 0.00907471 5.25544739 0.02018738 C6.21173538 0.0197493 7.16802338 0.01931122 8.15328979 0.01885986 C11.31881523 0.02095235 14.48381313 0.04430539 17.64924622 0.0677948 C19.8421398 0.07338911 22.03503712 0.07765998 24.22793579 0.08065796 C30.00334501 0.09211968 35.77852837 0.12159844 41.55384827 0.1547699 C47.44564254 0.18544209 53.33747326 0.1991572 59.22932434 0.21427917 C70.79257469 0.24646674 82.35565731 0.29767924 93.91877747 0.36076355 C93.91877747 0.69076355 93.91877747 1.02076355 93.91877747 1.36076355 C61.90877747 1.36076355 29.89877747 1.36076355 -3.08122253 1.36076355 C-3.41122253 3.01076355 -3.74122253 4.66076355 -4.08122253 6.36076355 C-4.41122253 5.70076355 -4.74122253 5.04076355 -5.08122253 4.36076355 C-5.74122253 4.03076355 -6.40122253 3.70076355 -7.08122253 3.36076355 C-4.8017029 0.65547183 -3.52642268 -0.0135458 0 0 Z " fill="#505050" transform="translate(51.08122253417969,21.639236450195313)"/>
<path d="M0 0 C2.46800047 1.15173355 4.04783565 2.04783565 6 4 C8.32275177 4.40047444 10.65739357 4.7397104 13 5 C13 4.34 13 3.68 13 3 C14.65 3 16.3 3 18 3 C18.38218767 4.65614657 18.71395102 6.32457024 19 8 C18.67 8.33 18.34 8.66 18 9 C16.03926728 8.96195593 14.07980393 8.8445406 12.125 8.6875 C11.05507812 8.60886719 9.98515625 8.53023437 8.8828125 8.44921875 C6 8 6 8 3 6 C3 5.34 3 4.68 3 4 C1.68 3.67 0.36 3.34 -1 3 C-0.67 2.01 -0.34 1.02 0 0 Z " fill="#57575C" transform="translate(149,53)"/>
<path d="M0 0 C2.125 0.9375 2.125 0.9375 4 2 C3.67 3.65 3.34 5.3 3 7 C2.319375 6.835 1.63875 6.67 0.9375 6.5 C-5.11511838 5.30334957 -5.11511838 5.30334957 -10.78125 7.1171875 C-12.24833753 8.34206718 -13.6319993 9.66536517 -15 11 C-14.67 9.35 -14.34 7.7 -14 6 C-13.34 6 -12.68 6 -12 6 C-11.835 5.360625 -11.67 4.72125 -11.5 4.0625 C-10 2 -10 2 -8.15625 1.546875 C-6.73220338 1.39208732 -5.30447875 1.26775139 -3.875 1.17578125 C-1.90968315 1.10558103 -1.90968315 1.10558103 0 0 Z " fill="#4B4B51" transform="translate(164,31)"/>
<path d="M0 0 C1.6396875 0.2475 1.6396875 0.2475 3.3125 0.5 C6.60551581 0.94651062 7.95648465 0.78905953 11 0 C11.66 0.66 12.32 1.32 13 2 C12.625 4.125 12.625 4.125 12 6 C10.125 6.625 10.125 6.625 8 7 C7.34 6.34 6.68 5.68 6 5 C5.34 5.66 4.68 6.32 4 7 C1.875 6.625 1.875 6.625 0 6 C-0.38218767 4.34385343 -0.71395102 2.67542976 -1 1 C-0.67 0.67 -0.34 0.34 0 0 Z " fill="#F3E174" transform="translate(59,28)"/>
<path d="M0 0 C1.58025005 0.21192095 3.16398461 0.39923371 4.75 0.5625 C5.54921875 0.64628906 6.3484375 0.73007813 7.171875 0.81640625 C8.07679687 0.90728516 8.07679687 0.90728516 9 1 C9 1.99 9 2.98 9 4 C8.09507813 4.09087891 8.09507813 4.09087891 7.171875 4.18359375 C5.97304688 4.30927734 5.97304688 4.30927734 4.75 4.4375 C3.96109375 4.51871094 3.1721875 4.59992188 2.359375 4.68359375 C0.0104271 4.94463662 0.0104271 4.94463662 -2.171875 5.59765625 C-4 6 -4 6 -6 5 C-6 3.35 -6 1.7 -6 0 C-3.44763882 -1.27618059 -2.69758035 -0.74231977 0 0 Z " fill="#57575D" transform="translate(31,71)"/>
<path d="M0 0 C0.99 0.66 1.98 1.32 3 2 C2.67 2.66 2.34 3.32 2 4 C1.88252522 5.41882881 1.82314572 6.84271414 1.79467773 8.26611328 C1.77473251 9.14687531 1.75478729 10.02763733 1.73423767 10.93508911 C1.71752518 11.88721283 1.70081268 12.83933655 1.68359375 13.8203125 C1.66281265 14.79410858 1.64203156 15.76790466 1.62062073 16.77120972 C1.55511402 19.88906647 1.49623503 23.00700903 1.4375 26.125 C1.39431585 28.23568604 1.3507016 30.34636333 1.30664062 32.45703125 C1.19943153 37.6379295 1.09766722 42.81891356 1 48 C-0.65 48 -2.3 48 -4 48 C-2.02 47.505 -2.02 47.505 0 47 C0 32.48 0 17.96 0 3 C-0.66 2.67 -1.32 2.34 -2 2 C-1.34 2 -0.68 2 0 2 C0 1.34 0 0.68 0 0 Z " fill="#6E6E6F" transform="translate(146,23)"/>
<path d="M0 0 C0.53625 0.28875 1.0725 0.5775 1.625 0.875 C7.22396195 3.52713987 12.27235813 4.36014755 18.375 4.625 C19.11105469 4.66367188 19.84710938 4.70234375 20.60546875 4.7421875 C22.40327406 4.83557998 24.20160108 4.9188371 26 5 C23.27972753 7.72027247 21.73409508 7.29917861 17.9375 7.3125 C12.42089963 7.22076053 6.81773279 6.95458212 2 4 C0.76171875 1.890625 0.76171875 1.890625 0 0 Z " fill="#3B3B41" transform="translate(127,101)"/>
<path d="M0 0 C6.75 0.875 6.75 0.875 9 2 C9 10.91 9 19.82 9 29 C8.67 29 8.34 29 8 29 C8 27.35 8 25.7 8 24 C7.34 23.67 6.68 23.34 6 23 C6.33 22.67 6.66 22.34 7 22 C7.07325168 19.13732433 7.09238205 16.299281 7.0625 13.4375 C7.05798828 12.63119141 7.05347656 11.82488281 7.04882812 10.99414062 C7.03700518 8.99606244 7.01906914 6.99802217 7 5 C3.535 3.02 3.535 3.02 0 1 C0 0.67 0 0.34 0 0 Z " fill="#34353C" transform="translate(153,72)"/>
<path d="M0 0 C3.45925163 1.2491742 6.14693203 2.67527795 9 5 C7.61198929 8.35435922 6.11371 10.11290303 3 12 C2.01 12 1.02 12 0 12 C1.29299694 9.11562221 2.65941363 7.12780579 5 5 C2.525 4.01 2.525 4.01 0 3 C0 2.01 0 1.02 0 0 Z " fill="#DCECFE" transform="translate(102,59)"/>
<path d="M0 0 C0 0.99 0 1.98 0 3 C-2.57213134 4.61949011 -3.67669159 5.04408751 -6.75 4.625 C-7.4925 4.41875 -8.235 4.2125 -9 4 C-9 2.35 -9 0.7 -9 -1 C-5.79937313 -2.60031344 -3.27728194 -1.03173691 0 0 Z " fill="#4B4B51" transform="translate(34,84)"/>
<path d="M0 0 C-0.3125 1.9375 -0.3125 1.9375 -1 4 C-1.99 4.33 -2.98 4.66 -4 5 C-3.34 5.598125 -2.68 6.19625 -2 6.8125 C0 9 0 9 0 12 C-2.9719385 10.87548273 -5.33440687 9.77706209 -8 8 C-7.65978036 4.82461668 -6.97533396 3.97723135 -4.5625 1.75 C-2 0 -2 0 0 0 Z " fill="#D7E9FE" transform="translate(90,59)"/>
<path d="M0 0 C2.79297711 0.44099639 5.31340243 1.10446748 8 2 C8 2.99 8 3.98 8 5 C1.25 7.125 1.25 7.125 -1 6 C-1.042721 4.33388095 -1.04063832 2.66617115 -1 1 C-0.67 0.67 -0.34 0.34 0 0 Z " fill="#4E4F54" transform="translate(26,58)"/>
<path d="M0 0 C0.38218767 1.65614657 0.71395102 3.32457024 1 5 C0 6 0 6 -2.5625 6.0625 C-3.7690625 6.0315625 -3.7690625 6.0315625 -5 6 C-5 5.34 -5 4.68 -5 4 C-6.32 4 -7.64 4 -9 4 C-8.67 3.01 -8.34 2.02 -8 1 C-5.07175348 0.02391783 -3.04386724 -0.08226668 0 0 Z " fill="#66666B" transform="translate(167,44)"/>
<path d="M0 0 C0.66 0 1.32 0 2 0 C0.1643002 9.9127789 0.1643002 9.9127789 -3 14 C-3.66 14 -4.32 14 -5 14 C-3.1643002 4.0872211 -3.1643002 4.0872211 0 0 Z " fill="#CCE3FE" transform="translate(98,58)"/>
<path d="M0 0 C1.67542976 0.28604898 3.34385343 0.61781233 5 1 C5 2.65 5 4.3 5 6 C1.25 7.125 1.25 7.125 -1 6 C-1.042721 4.33388095 -1.04063832 2.66617115 -1 1 C-0.67 0.67 -0.34 0.34 0 0 Z " fill="#F87979" transform="translate(52,28)"/>
<path d="M0 0 C1.65 0.33 3.3 0.66 5 1 C5 1.66 5 2.32 5 3 C3.9171875 3.37125 3.9171875 3.37125 2.8125 3.75 C-0.24713266 5.10983674 -2.4673738 6.82917754 -5 9 C-4.67 7.35 -4.34 5.7 -4 4 C-3.34 4 -2.68 4 -2 4 C-1.34 2.68 -0.68 1.36 0 0 Z " fill="#65656A" transform="translate(154,33)"/>
<path d="M0 0 C2.0625 0.4375 2.0625 0.4375 4 1 C4.625 2.875 4.625 2.875 5 5 C4.34 5.66 3.68 6.32 3 7 C0.875 6.625 0.875 6.625 -1 6 C-1.042721 4.33388095 -1.04063832 2.66617115 -1 1 C-0.67 0.67 -0.34 0.34 0 0 Z " fill="#65D370" transform="translate(67,28)"/>
<path d="M0 0 C0.33 0 0.66 0 1 0 C1.07347656 1.12148437 1.07347656 1.12148437 1.1484375 2.265625 C1.22320312 3.25046875 1.29796875 4.2353125 1.375 5.25 C1.44460937 6.22453125 1.51421875 7.1990625 1.5859375 8.203125 C1.98465249 10.89633189 2.63507063 12.66963279 4 15 C2.68 15 1.36 15 0 15 C-0.33 14.67 -0.66 14.34 -1 14 C-0.90968426 11.64305046 -0.75311872 9.28846418 -0.5625 6.9375 C-0.46066406 5.64714844 -0.35882813 4.35679688 -0.25390625 3.02734375 C-0.17011719 2.02832031 -0.08632813 1.02929688 0 0 Z " fill="#2A2A2B" transform="translate(45,83)"/>
<path d="M0 0 C1.65 0 3.3 0 5 0 C4.67 1.65 4.34 3.3 4 5 C2.68 4.67 1.36 4.34 0 4 C0 2.68 0 1.36 0 0 Z " fill="#3A3A41" transform="translate(163,57)"/>
<path d="M0 0 C0.66 0.66 1.32 1.32 2 2 C-2.30769231 5.07692308 -2.30769231 5.07692308 -5.8125 4.6875 C-6.534375 4.460625 -7.25625 4.23375 -8 4 C-5.33440687 2.22293791 -2.9719385 1.12451727 0 0 Z " fill="#5C5C61" transform="translate(159,102)"/>
<path d="M0 0 C2.31 0.33 4.62 0.66 7 1 C3.36804504 3.42130331 1.61650652 3.21022785 -2.6875 3.125 C-3.86699219 3.10695313 -5.04648438 3.08890625 -6.26171875 3.0703125 C-7.16535156 3.04710938 -8.06898438 3.02390625 -9 3 C-9 2.67 -9 2.34 -9 2 C-6.03 2 -3.06 2 0 2 C0 1.34 0 0.68 0 0 Z " fill="#8D8D91" transform="translate(149,70)"/>
<path d="M0 0 C2.31 0 4.62 0 7 0 C7.33 0.99 7.66 1.98 8 3 C5.36 3.33 2.72 3.66 0 4 C0 2.68 0 1.36 0 0 Z " fill="#7A7A7F" transform="translate(149,45)"/>
<path d="M0 0 C0.33 0.66 0.66 1.32 1 2 C2.64363134 2.72159424 4.31050386 3.39351421 6 4 C6 4.99 6 5.98 6 7 C1.32307692 5.52307692 1.32307692 5.52307692 -0.3125 2.875 C-0.539375 2.25625 -0.76625 1.6375 -1 1 C-0.67 0.67 -0.34 0.34 0 0 Z " fill="#E9F3FE" transform="translate(84,64)"/>
<path d="M0 0 C0.99 0.33 1.98 0.66 3 1 C3 3.97 3 6.94 3 10 C2.01 10 1.02 10 0 10 C0 9.01 0 8.02 0 7 C0.66 7 1.32 7 2 7 C1.34 4.69 0.68 2.38 0 0 Z " fill="#414146" transform="translate(41,65)"/>
<path d="M0 0 C1.65 0 3.3 0 5 0 C5 1.32 5 2.64 5 4 C3.35 4 1.7 4 0 4 C0 2.68 0 1.36 0 0 Z " fill="#36363D" transform="translate(163,45)"/>
<path d="M0 0 C6.75 0.875 6.75 0.875 9 2 C8.67 2.99 8.34 3.98 8 5 C5.36 3.68 2.72 2.36 0 1 C0 0.67 0 0.34 0 0 Z " fill="#59595F" transform="translate(153,72)"/>
<path d="M0 0 C0.93065133 2.60582371 1.14917407 3.64198224 0.0625 6.25 C-0.4634375 7.11625 -0.4634375 7.11625 -1 8 C-1.66 8 -2.32 8 -3 8 C-2.25 2.25 -2.25 2.25 0 0 Z " fill="#E5F1FE" transform="translate(96,64)"/>
<path d="M0 0 C2.0625 0.4375 2.0625 0.4375 4 1 C3.01 1.33 2.02 1.66 1 2 C1.7763932 5.0745356 1.7763932 5.0745356 4 7 C2.68 6.67 1.36 6.34 0 6 C-0.38218767 4.34385343 -0.71395102 2.67542976 -1 1 C-0.67 0.67 -0.34 0.34 0 0 Z " fill="#F9E689" transform="translate(59,28)"/>
<path d="M0 0 C1.32 0 2.64 0 4 0 C3.67 1.65 3.34 3.3 3 5 C2.01 4.67 1.02 4.34 0 4 C0 2.68 0 1.36 0 0 Z " fill="#28282F" transform="translate(26,72)"/>
</svg>
