<?xml version="1.0" encoding="UTF-8"?>
<svg version="1.1" xmlns="http://www.w3.org/2000/svg" width="512" height="512">
<path d="M0 0 C0.75134211 -0.00495952 1.50268423 -0.00991903 2.27679428 -0.01502883 C4.79078284 -0.02796724 7.30423873 -0.01960598 9.81824017 -0.01129913 C11.64032021 -0.01618887 13.46239716 -0.02237906 15.28446883 -0.02975702 C20.28888947 -0.04616918 25.2931527 -0.04383599 30.29759085 -0.03838205 C35.69582056 -0.03571343 41.09400817 -0.05024053 46.49222088 -0.06247711 C57.06718123 -0.08354056 67.64208676 -0.08807143 78.21706561 -0.08628923 C86.81235819 -0.08498203 95.40763365 -0.08878358 104.00292301 -0.09621429 C106.47801628 -0.09831347 108.95310954 -0.10041107 111.42820281 -0.10250711 C112.66009838 -0.10355064 113.89199394 -0.10459417 115.16121968 -0.10566932 C138.46446236 -0.12457547 161.76767356 -0.12352037 185.07092073 -0.11669999 C206.39038522 -0.11112458 227.70969163 -0.13194925 249.02913145 -0.16506046 C270.91775191 -0.19879191 292.80631479 -0.21396645 314.69496173 -0.20934343 C326.98461186 -0.20709816 339.27415093 -0.2123505 351.56377888 -0.23723602 C362.02668984 -0.25824207 372.48942884 -0.26184797 382.95234684 -0.24293643 C388.2903269 -0.23377432 393.62798629 -0.23265042 398.96594143 -0.25329208 C403.85458791 -0.27198716 408.74265074 -0.26751479 413.6312749 -0.24474627 C415.39771996 -0.24055683 417.16420963 -0.24477207 418.93060753 -0.25834221 C429.13851854 -0.33140898 438.24445195 -0.19907758 446.15655071 7.13849497 C453.75028924 15.10067133 453.70063221 23.40385201 453.65812969 33.90052032 C453.66302123 35.39261718 453.66921226 36.88471025 453.67658758 38.3767969 C453.69297708 42.46910215 453.6906712 46.56121463 453.68521261 50.65354121 C453.68254118 55.07017096 453.69707638 59.48674947 453.70930767 63.90335846 C453.73035937 72.55324408 453.73490266 81.20306267 453.73311979 89.85297088 C453.73181198 96.88457286 453.73561726 103.91615395 453.74304485 110.947752 C453.74514406 112.97348664 453.74724166 114.99922128 453.74933767 117.02495593 C453.75090296 118.53737788 453.75090296 118.53737788 453.75249988 120.08035382 C453.77140135 139.14878862 453.77035239 158.21718495 453.76353055 177.28562524 C453.7579557 194.72517337 453.77877825 212.16457456 453.81189102 229.60408834 C453.84563475 247.51506745 453.86079546 265.42597619 453.85617399 283.33698767 C453.85392993 293.39099351 453.85916327 303.44486357 453.88406658 313.49884224 C453.90508854 322.05867971 453.90866284 330.61830694 453.88976699 339.17815308 C453.88061451 343.54403086 453.879451 347.90951676 453.90012264 352.27536392 C453.91885457 356.27585182 453.91430488 360.27562747 453.89157683 364.27608844 C453.8873966 365.71952104 453.89157176 367.16300849 453.90517277 368.60638306 C453.98840601 378.08873259 453.16272655 386.06740589 446.50833559 393.28780395 C440.69531187 398.78925817 434.42802525 400.84032245 426.52744102 400.76622009 C425.77609891 400.77117961 425.0247568 400.77613912 424.25064674 400.78124893 C421.73665819 400.79418733 419.2232023 400.78582608 416.70920086 400.77751923 C414.88712081 400.78240897 413.06504387 400.78859916 411.2429722 400.79597712 C406.23855156 400.81238928 401.23428833 400.81005608 396.22985017 400.80460215 C390.83162046 400.80193353 385.43343286 400.81646063 380.03522015 400.8286972 C369.4602598 400.84976065 358.88535426 400.85429152 348.31037541 400.85250932 C339.71508284 400.85120212 331.11980737 400.85500367 322.52451801 400.86243439 C320.04942475 400.86453357 317.57433148 400.86663117 315.09923822 400.86872721 C313.25139487 400.8702925 313.25139487 400.8702925 311.36622135 400.87188941 C288.06297867 400.89079556 264.75976747 400.88974047 241.4565203 400.88292009 C220.13705581 400.87734467 198.8177494 400.89816934 177.49830958 400.93128055 C155.60968912 400.96501201 133.72112624 400.98018654 111.8324793 400.97556353 C99.54282916 400.97331825 87.25329009 400.97857059 74.96366215 401.00345612 C64.50075119 401.02446217 54.03801219 401.02806806 43.57509419 401.00915653 C38.23711412 400.99999441 32.89945474 400.99887051 27.5614996 401.01951218 C22.67285311 401.03820725 17.78479029 401.03373489 12.89616612 401.01096636 C11.12972107 401.00677692 9.36323139 401.01099216 7.59683349 401.0245623 C-2.61107752 401.09762907 -11.71701092 400.96529767 -19.62910968 393.62772512 C-27.22284822 385.66554876 -27.17319119 377.36236808 -27.13068867 366.86569977 C-27.13558021 365.37360291 -27.14177123 363.88150984 -27.14914656 362.38942319 C-27.16553606 358.29711794 -27.16323018 354.20500547 -27.15777159 350.11267889 C-27.15510016 345.69604913 -27.16963535 341.27947063 -27.18186665 336.86286163 C-27.20291835 328.21297601 -27.20746163 319.56315743 -27.20567876 310.91324922 C-27.20437095 303.88164723 -27.20817624 296.85006615 -27.21560383 289.81846809 C-27.21770303 287.79273345 -27.21980064 285.76699881 -27.22189665 283.74126416 C-27.22294018 282.73298286 -27.2239837 281.72470156 -27.22505885 280.68586627 C-27.24396033 261.61743147 -27.24291137 242.54903514 -27.23608953 223.48059485 C-27.23051467 206.04104673 -27.25133722 188.60164554 -27.28444999 171.16213175 C-27.31819372 153.25115264 -27.33335444 135.34024391 -27.32873297 117.42923242 C-27.3264889 107.37522658 -27.33172224 97.32135653 -27.35662556 87.26737785 C-27.37764752 78.70754038 -27.38122181 70.14791315 -27.36232597 61.58806702 C-27.35317348 57.22218923 -27.35200997 52.85670334 -27.37268162 48.49085617 C-27.39141354 44.49036827 -27.38686386 40.49059262 -27.3641358 36.49013165 C-27.35995557 35.04669905 -27.36413073 33.60321161 -27.37773174 32.15983703 C-27.46096499 22.6774875 -26.63528552 14.6988142 -19.98089457 7.47841614 C-14.16787085 1.97696192 -7.90058422 -0.07410235 0 0 Z " fill="#CEDDE6" transform="translate(42.73627948760986,55.61688995361328)"/>
<path d="M0 0 C0.75134211 -0.00495952 1.50268423 -0.00991903 2.27679428 -0.01502883 C4.79078284 -0.02796724 7.30423873 -0.01960598 9.81824017 -0.01129913 C11.64032021 -0.01618887 13.46239716 -0.02237906 15.28446883 -0.02975702 C20.28888947 -0.04616918 25.2931527 -0.04383599 30.29759085 -0.03838205 C35.69582056 -0.03571343 41.09400817 -0.05024053 46.49222088 -0.06247711 C57.06718123 -0.08354056 67.64208676 -0.08807143 78.21706561 -0.08628923 C86.81235819 -0.08498203 95.40763365 -0.08878358 104.00292301 -0.09621429 C106.47801628 -0.09831347 108.95310954 -0.10041107 111.42820281 -0.10250711 C112.66009838 -0.10355064 113.89199394 -0.10459417 115.16121968 -0.10566932 C138.46446236 -0.12457547 161.76767356 -0.12352037 185.07092073 -0.11669999 C206.39038522 -0.11112458 227.70969163 -0.13194925 249.02913145 -0.16506046 C270.91775191 -0.19879191 292.80631479 -0.21396645 314.69496173 -0.20934343 C326.98461186 -0.20709816 339.27415093 -0.2123505 351.56377888 -0.23723602 C362.02668984 -0.25824207 372.48942884 -0.26184797 382.95234684 -0.24293643 C388.2903269 -0.23377432 393.62798629 -0.23265042 398.96594143 -0.25329208 C403.85458791 -0.27198716 408.74265074 -0.26751479 413.6312749 -0.24474627 C415.39771996 -0.24055683 417.16420963 -0.24477207 418.93060753 -0.25834221 C429.13851854 -0.33140898 438.24445195 -0.19907758 446.15655071 7.13849497 C453.75028924 15.10067133 453.70063221 23.40385201 453.65812969 33.90052032 C453.66302123 35.39261718 453.66921226 36.88471025 453.67658758 38.3767969 C453.69297708 42.46910215 453.6906712 46.56121463 453.68521261 50.65354121 C453.68254118 55.07017096 453.69707638 59.48674947 453.70930767 63.90335846 C453.73035937 72.55324408 453.73490266 81.20306267 453.73311979 89.85297088 C453.73181198 96.88457286 453.73561726 103.91615395 453.74304485 110.947752 C453.74514406 112.97348664 453.74724166 114.99922128 453.74933767 117.02495593 C453.75090296 118.53737788 453.75090296 118.53737788 453.75249988 120.08035382 C453.77140135 139.14878862 453.77035239 158.21718495 453.76353055 177.28562524 C453.7579557 194.72517337 453.77877825 212.16457456 453.81189102 229.60408834 C453.84563475 247.51506745 453.86079546 265.42597619 453.85617399 283.33698767 C453.85392993 293.39099351 453.85916327 303.44486357 453.88406658 313.49884224 C453.90508854 322.05867971 453.90866284 330.61830694 453.88976699 339.17815308 C453.88061451 343.54403086 453.879451 347.90951676 453.90012264 352.27536392 C453.91885457 356.27585182 453.91430488 360.27562747 453.89157683 364.27608844 C453.8873966 365.71952104 453.89157176 367.16300849 453.90517277 368.60638306 C453.98840601 378.08873259 453.16272655 386.06740589 446.50833559 393.28780395 C440.69531187 398.78925817 434.42802525 400.84032245 426.52744102 400.76622009 C425.77609891 400.77117961 425.0247568 400.77613912 424.25064674 400.78124893 C421.73665819 400.79418733 419.2232023 400.78582608 416.70920086 400.77751923 C414.88712081 400.78240897 413.06504387 400.78859916 411.2429722 400.79597712 C406.23855156 400.81238928 401.23428833 400.81005608 396.22985017 400.80460215 C390.83162046 400.80193353 385.43343286 400.81646063 380.03522015 400.8286972 C369.4602598 400.84976065 358.88535426 400.85429152 348.31037541 400.85250932 C339.71508284 400.85120212 331.11980737 400.85500367 322.52451801 400.86243439 C320.04942475 400.86453357 317.57433148 400.86663117 315.09923822 400.86872721 C313.25139487 400.8702925 313.25139487 400.8702925 311.36622135 400.87188941 C288.06297867 400.89079556 264.75976747 400.88974047 241.4565203 400.88292009 C220.13705581 400.87734467 198.8177494 400.89816934 177.49830958 400.93128055 C155.60968912 400.96501201 133.72112624 400.98018654 111.8324793 400.97556353 C99.54282916 400.97331825 87.25329009 400.97857059 74.96366215 401.00345612 C64.50075119 401.02446217 54.03801219 401.02806806 43.57509419 401.00915653 C38.23711412 400.99999441 32.89945474 400.99887051 27.5614996 401.01951218 C22.67285311 401.03820725 17.78479029 401.03373489 12.89616612 401.01096636 C11.12972107 401.00677692 9.36323139 401.01099216 7.59683349 401.0245623 C-2.61107752 401.09762907 -11.71701092 400.96529767 -19.62910968 393.62772512 C-27.22284822 385.66554876 -27.17319119 377.36236808 -27.13068867 366.86569977 C-27.13558021 365.37360291 -27.14177123 363.88150984 -27.14914656 362.38942319 C-27.16553606 358.29711794 -27.16323018 354.20500547 -27.15777159 350.11267889 C-27.15510016 345.69604913 -27.16963535 341.27947063 -27.18186665 336.86286163 C-27.20291835 328.21297601 -27.20746163 319.56315743 -27.20567876 310.91324922 C-27.20437095 303.88164723 -27.20817624 296.85006615 -27.21560383 289.81846809 C-27.21770303 287.79273345 -27.21980064 285.76699881 -27.22189665 283.74126416 C-27.22294018 282.73298286 -27.2239837 281.72470156 -27.22505885 280.68586627 C-27.24396033 261.61743147 -27.24291137 242.54903514 -27.23608953 223.48059485 C-27.23051467 206.04104673 -27.25133722 188.60164554 -27.28444999 171.16213175 C-27.31819372 153.25115264 -27.33335444 135.34024391 -27.32873297 117.42923242 C-27.3264889 107.37522658 -27.33172224 97.32135653 -27.35662556 87.26737785 C-27.37764752 78.70754038 -27.38122181 70.14791315 -27.36232597 61.58806702 C-27.35317348 57.22218923 -27.35200997 52.85670334 -27.37268162 48.49085617 C-27.39141354 44.49036827 -27.38686386 40.49059262 -27.3641358 36.49013165 C-27.35995557 35.04669905 -27.36413073 33.60321161 -27.37773174 32.15983703 C-27.46096499 22.6774875 -26.63528552 14.6988142 -19.98089457 7.47841614 C-14.16787085 1.97696192 -7.90058422 -0.07410235 0 0 Z M-10.73627949 80.38311005 C-10.79815449 129.11998505 -10.86002949 177.85686005 -10.92377949 228.07061005 C-10.9510915 243.47837128 -10.97840351 258.88613251 -11.00654316 274.76079559 C-11.01657439 288.53207297 -11.01657439 288.53207297 -11.02261066 302.30335236 C-11.02541374 308.45316743 -11.03644129 314.60290119 -11.05300617 320.75269318 C-11.07207145 327.84121878 -11.08079454 334.92966611 -11.07661434 342.01821755 C-11.07480319 345.64611288 -11.07772054 349.27383316 -11.09392488 352.90169656 C-11.11115497 356.78270885 -11.10527949 360.66348632 -11.09704304 364.54453278 C-11.10578103 365.68136411 -11.11451902 366.81819544 -11.1235218 367.9894762 C-11.11754919 369.03084169 -11.11157658 370.07220718 -11.10542297 371.1451292 C-11.10656213 372.04240834 -11.1077013 372.93968748 -11.10887498 373.8641569 C-10.52322555 377.82347336 -8.7531206 380.33465603 -6.00131363 383.17201483 C-2.76620771 384.90179948 -0.15546418 384.75927395 3.50426674 384.76063347 C4.23844994 384.76499379 4.97263314 384.76935411 5.72906432 384.77384657 C8.2027108 384.78484266 10.67580452 384.77436079 13.14944744 384.76406097 C14.93537767 384.76751583 16.72130577 384.77227923 18.50722939 384.77824271 C23.42547806 384.79080619 28.34355288 384.78455807 33.26180232 384.77528405 C38.56182118 384.76851569 43.86180947 384.77896381 49.16182232 384.78722382 C59.54903282 384.80058731 69.93617841 384.79767169 80.32339149 384.78898589 C88.7633817 384.78221967 97.20335369 384.78128802 105.64334583 384.78455734 C106.84309168 384.78501704 108.04283752 384.78547674 109.2789393 384.78595037 C111.71596551 384.78690952 114.15299172 384.78788216 116.59001792 384.78886814 C139.46055887 384.7974298 162.33106379 384.78757594 185.20159883 384.77146704 C204.83731435 384.75806488 224.47297666 384.76038963 244.10869122 384.77422333 C266.89403299 384.7902684 289.67934315 384.79660395 312.46468979 384.78738654 C314.89321966 384.78643086 317.32174954 384.78548775 319.75027943 384.78455734 C321.54274378 384.7838631 321.54274378 384.7838631 323.37141953 384.78315484 C331.80345295 384.7805616 340.23546636 384.78494316 348.66749668 384.791996 C358.94028536 384.80039936 369.21300524 384.79815547 379.48578601 384.78215377 C384.72988679 384.77425511 389.97387276 384.77120656 395.21797276 384.78110123 C400.01506836 384.79001575 404.81194234 384.78516896 409.60901774 384.76916857 C411.34786976 384.76580696 413.08674037 384.76754565 414.82558053 384.77479593 C417.18310032 384.78387467 419.53985383 384.7746069 421.89733315 384.76063347 C423.20861748 384.76014641 424.51990181 384.75965935 425.87092203 384.75915754 C429.57541475 384.3485628 431.37206146 383.7058171 434.26372051 381.38311005 C436.8849293 377.92592614 437.63832653 375.44778579 437.632864 371.1451292 C437.64182292 369.58308097 437.64182292 369.58308097 437.65096283 367.9894762 C437.63785584 366.28422921 437.63785584 366.28422921 437.62448406 364.54453278 C437.62833614 362.72941696 437.62833614 362.72941696 437.63226604 360.87763214 C437.63636859 357.51526358 437.62695689 354.15341807 437.6119387 350.79111253 C437.59884291 347.11102677 437.60322226 343.43095432 437.60539246 339.75085163 C437.6069878 332.60643194 437.59313237 325.46212531 437.57388847 318.31773468 C437.5522961 310.05423696 437.54990465 301.79080724 437.54753399 293.52727509 C437.53178027 271.70836881 437.48989696 249.88948773 437.45122051 228.07061005 C437.38934551 179.33373505 437.32747051 130.59686005 437.26372051 80.38311005 C289.42372051 80.38311005 141.58372051 80.38311005 -10.73627949 80.38311005 Z " fill="#000000" transform="translate(42.73627948760986,55.61688995361328)"/>
<path d="M0 0 C1.53642151 -0.00006042 1.53642151 -0.00006042 3.10388184 -0.00012207 C5.26576892 0.00523056 7.42765568 0.02280217 9.58935547 0.05175781 C12.89481191 0.09360519 16.19822959 0.09282535 19.50390625 0.0859375 C21.60678497 0.09643067 23.7096532 0.10936945 25.8125 0.125 C26.79907593 0.12520142 27.78565186 0.12540283 28.80212402 0.12561035 C37.45323073 0.27451388 37.45323073 0.27451388 41.40625 3.59375 C43.34943899 7.48012798 42.7825044 12.53452475 42.92382812 16.85351562 C43.10866902 21.1118314 43.27658761 24.78707123 45.40625 28.59375 C47.84913628 29.90443333 47.84913628 29.90443333 50.40625 30.59375 C51.06625 30.92375 51.72625 31.25375 52.40625 31.59375 C56.61996115 32.07258081 59.18627659 31.58188865 62.640625 29.08203125 C65.86221868 26.36648436 68.85589668 23.39057541 71.84375 20.421875 C74.40625 18.59375 74.40625 18.59375 77.21875 17.890625 C82.21217022 18.99211475 84.81977649 22.06948207 88.40625 25.59375 C89.46098617 26.59913559 90.51707616 27.60310204 91.57421875 28.60595703 C94.59427859 31.48366664 97.57624633 34.39775385 100.54541016 37.32788086 C101.79416825 38.55484876 103.04916192 39.77549999 104.31005859 40.98999023 C106.14841826 42.76159117 107.96643915 44.55197801 109.78125 46.34765625 C110.62949341 47.15415367 110.62949341 47.15415367 111.49487305 47.97694397 C114.10594625 50.60209118 115.34560775 52.13773937 115.84033203 55.85791016 C115.33194342 59.0620737 114.55982892 60.14246705 112.28125 62.40625 C105.42275347 69.68453734 105.42275347 69.68453734 101.78125 78.78125 C102.74999259 83.14059166 104.92268395 86.0814466 108.01953125 89.23828125 C111.48970119 91.20906516 114.95229729 91.04722537 118.84375 91.09375 C128.09547096 91.20492948 128.09547096 91.20492948 132.40625 94.59375 C133.58898763 96.95922527 133.54528738 98.41718202 133.56738281 101.0559082 C133.57699036 101.98059402 133.5865979 102.90527985 133.59649658 103.85798645 C133.6028714 105.36107613 133.6028714 105.36107613 133.609375 106.89453125 C133.61507507 107.9230571 133.62077515 108.95158295 133.62664795 110.01127625 C133.63610619 112.19101937 133.64263519 114.37077686 133.64648438 116.55053711 C133.65618017 119.88225352 133.68719216 123.2133506 133.71875 126.54492188 C133.72528093 128.66145467 133.73053105 130.77799187 133.734375 132.89453125 C133.7467218 133.89051834 133.7590686 134.88650543 133.77178955 135.91267395 C133.74322859 144.80275074 133.74322859 144.80275074 130.40625 148.59375 C125.97062684 150.07229105 121.38673581 149.9124756 116.7421875 150.0234375 C112.1854861 150.21462777 109.11297406 150.66885851 105.40625 153.59375 C102.78609355 157.65951001 101.55896618 160.79247501 102.40625 165.59375 C105.35220484 171.29762001 109.14915879 175.65348109 114.18359375 179.59765625 C115.81777524 182.26560112 115.54821929 184.37341708 115.10374451 187.40223694 C113.75240696 191.64811106 110.53768836 194.33242038 107.37890625 197.33984375 C106.67479111 198.03642593 105.97067596 198.73300812 105.245224 199.45069885 C103.00233151 201.66117183 100.73601369 203.84581092 98.46875 206.03125 C96.94702331 207.52642459 95.42682293 209.02315429 93.90820312 210.52148438 C91.13265983 213.24678707 88.35449523 215.969036 85.55493164 218.66967773 C84.99391251 219.21180405 84.43289337 219.75393036 83.85487366 220.31248474 C81.7186898 222.20187689 80.46301124 222.58712786 77.59375 222.921875 C73.52223434 222.50274839 72.27904876 221.19813339 69.40625 218.34375 C68.10880859 217.11785156 68.10880859 217.11785156 66.78515625 215.8671875 C66.00011719 215.11695313 65.21507812 214.36671875 64.40625 213.59375 C61.87531556 211.27124545 59.768585 209.70808883 56.21875 209.41015625 C51.88080193 209.63133452 49.8432858 210.23865841 46.40625 213.03125 C42.68815731 217.79505625 43.11473242 222.39104361 42.9765625 228.20898438 C42.78702349 232.75397185 42.3936687 235.93380813 39.40625 239.59375 C36.58313481 240.5347884 34.76062287 240.7402839 31.83056641 240.78662109 C30.90595612 240.80268402 29.98134583 240.81874695 29.02871704 240.83529663 C24.81049421 240.87982726 20.59242628 240.92079287 16.37402344 240.94384766 C14.14898227 240.96042334 11.92399468 240.9877343 9.69921875 241.02587891 C6.48930271 241.08061502 3.2806322 241.10251502 0.0703125 241.1171875 C-0.92253754 241.13985687 -1.91538757 241.16252625 -2.93832397 241.18588257 C-7.59051087 241.17163969 -9.86792136 241.12002819 -13.72045898 238.32666016 C-15.55080794 235.65639738 -16.21692032 234.50749225 -16.23046875 231.34375 C-16.25044922 230.5703125 -16.27042969 229.796875 -16.29101562 229 C-16.28618164 227.80890625 -16.28618164 227.80890625 -16.28125 226.59375 C-16.20462484 219.33668236 -16.20462484 219.33668236 -18.59375 212.59375 C-21.03663628 211.28306667 -21.03663628 211.28306667 -23.59375 210.59375 C-24.25375 210.26375 -24.91375 209.93375 -25.59375 209.59375 C-29.80694834 209.11497746 -32.31769843 209.60650942 -35.76171875 212.10546875 C-37.26769054 213.32887014 -38.74208888 214.59103683 -40.20703125 215.86328125 C-41.15964844 216.68183594 -42.11226563 217.50039063 -43.09375 218.34375 C-44.43953125 219.54257812 -44.43953125 219.54257812 -45.8125 220.765625 C-49.28416384 223.04756134 -50.49603977 223.287929 -54.59375 222.59375 C-57.50619471 220.53124782 -59.89591498 218.01252673 -62.36328125 215.4453125 C-63.08488937 214.71758636 -63.8064975 213.98986023 -64.54997253 213.24008179 C-66.84979436 210.91332639 -69.1276621 208.5662841 -71.40625 206.21875 C-72.95895669 204.64452064 -74.51297881 203.07158756 -76.06835938 201.5 C-78.90201771 198.62419468 -81.73393942 195.74690077 -84.54614258 192.85009766 C-85.11206619 192.26829742 -85.67798981 191.68649719 -86.26106262 191.08706665 C-88.1999019 188.9145384 -88.58401606 187.67822669 -88.921875 184.74609375 C-88.50398933 180.73140641 -87.33286382 179.78377747 -84.34375 177.15625 C-79.6188814 172.72157018 -76.17313372 169.14247526 -75.09375 162.53125 C-75.8563125 158.0511953 -78.06824266 155.18344948 -81.171875 151.94921875 C-84.84853516 149.89147508 -88.4461495 150.14012892 -92.59375 150.09375 C-100.83496709 150.00159582 -100.83496709 150.00159582 -104.09375 148.25 C-106.65188408 145.42539362 -106.72906098 142.65778606 -106.78662109 139.01806641 C-106.80268402 138.09345612 -106.81874695 137.16884583 -106.83529663 136.21621704 C-106.87982726 131.99799421 -106.92079287 127.77992628 -106.94384766 123.56152344 C-106.96042334 121.33648227 -106.9877343 119.11149468 -107.02587891 116.88671875 C-107.08061502 113.67680271 -107.10251502 110.4681322 -107.1171875 107.2578125 C-107.13985687 106.26496246 -107.16252625 105.27211243 -107.18588257 104.24917603 C-107.17163758 99.59630099 -107.11915736 97.31888685 -104.32666016 93.46484375 C-101.6466469 91.62996599 -100.51665798 90.97676364 -97.34375 90.9921875 C-96.18359375 90.96898437 -96.18359375 90.96898437 -95 90.9453125 C-94.2059375 90.95304687 -93.411875 90.96078125 -92.59375 90.96875 C-85.09536488 91.06924435 -85.09536488 91.06924435 -78.59375 87.59375 C-75.70866639 83.21638176 -74.71421379 79.78301366 -75.59375 74.59375 C-78.07500199 70.57954061 -81.14110258 67.08348629 -84.4296875 63.7109375 C-85.25339844 62.84855469 -85.25339844 62.84855469 -86.09375 61.96875 C-86.85171875 61.23785156 -86.85171875 61.23785156 -87.625 60.4921875 C-89.27705069 57.25470107 -88.48135261 55.05824926 -87.59375 51.59375 C-85.61114399 48.7389421 -83.21720113 46.37564986 -80.7421875 43.9453125 C-79.70380234 42.8983168 -79.70380234 42.8983168 -78.6444397 41.83016968 C-77.1806474 40.36230472 -75.70929155 38.90194844 -74.23095703 37.44873047 C-71.97599383 35.22589063 -69.7548202 32.97287105 -67.53515625 30.71484375 C-66.10608644 29.28973896 -64.67515641 27.86649662 -63.2421875 26.4453125 C-62.58149261 25.77247223 -61.92079773 25.09963196 -61.24008179 24.40640259 C-57.21009952 20.49609058 -54.47927818 18.55345656 -48.59375 18.59375 C-44.01424863 20.88350069 -40.75324145 24.30021224 -37.3046875 28.0078125 C-34.59573843 30.51884748 -32.38339778 31.50791872 -28.71875 31.90625 C-24.98572349 31.53294735 -22.74528123 30.62473679 -19.59375 28.59375 C-15.56879157 23.59823422 -16.18278949 18.28569569 -16.2421875 12.1875 C-16.22671875 11.4140625 -16.21125 10.640625 -16.1953125 9.84375 C-16.20038818 8.79960937 -16.20038818 8.79960937 -16.20556641 7.734375 C-13.86368622 -0.45940212 -7.08018797 -0.11766104 0 0 Z " fill="#183F5C" transform="translate(242.59375,167.40625)"/>
<path d="M0 0 C1.09781327 -0.00307895 1.09781327 -0.00307895 2.21780458 -0.0062201 C4.69547536 -0.0119208 7.1730911 -0.01042909 9.65076733 -0.00901413 C11.43496919 -0.01159601 13.21917047 -0.01460867 15.00337094 -0.01801753 C19.92608352 -0.02611161 24.84878154 -0.02787844 29.77149999 -0.028615 C35.07290915 -0.03046138 40.37431068 -0.03800658 45.67571545 -0.04475021 C57.27680139 -0.05835104 68.87788389 -0.06436094 80.47897649 -0.06876087 C87.71779183 -0.07152028 94.95660583 -0.07575707 102.19542027 -0.08026505 C122.22338591 -0.09245988 142.25135048 -0.10275885 162.27931976 -0.10614014 C164.20329119 -0.10646949 164.20329119 -0.10646949 166.16613073 -0.10680549 C167.45190972 -0.10702377 168.7376887 -0.10724204 170.06243068 -0.10746694 C172.66806336 -0.10791041 175.27369605 -0.10835697 177.87932873 -0.10880661 C179.17182237 -0.10902804 180.46431601 -0.10924947 181.79597612 -0.10947761 C202.74726619 -0.1134271 223.6985215 -0.13088476 244.64979813 -0.15416613 C266.14159283 -0.17785609 287.63337007 -0.19034091 309.12517804 -0.19150805 C321.19953629 -0.19242613 333.27384927 -0.19821174 345.34819508 -0.21632767 C355.62834288 -0.23169688 365.90843143 -0.23686796 376.18858854 -0.22858956 C381.43673208 -0.22467179 386.68475618 -0.22566743 391.93288517 -0.23964691 C396.73375101 -0.25231844 401.53440682 -0.25124809 406.3352721 -0.2390562 C408.07553401 -0.23708744 409.81581046 -0.24023157 411.55605189 -0.24890056 C413.9154842 -0.25991337 416.27416478 -0.2525623 418.63357544 -0.24050903 C419.94594392 -0.24110612 421.25831239 -0.24170321 422.61044961 -0.24231839 C426.29461865 0.16324966 428.09633458 0.87545176 431.00554943 3.13142776 C440.02552726 15.15806487 434.00554943 33.09813139 434.00554943 48.13142776 C286.16554943 48.13142776 138.32554943 48.13142776 -13.99445057 48.13142776 C-13.99445057 7.13142776 -13.99445057 7.13142776 -8.99445057 1.13142776 C-6.01482463 -0.3583852 -3.32587478 0.00316011 0 0 Z " fill="#E8623A" transform="translate(45.99445056915283,71.86857223510742)"/>
<path d="M0 0 C1.53642151 -0.00006042 1.53642151 -0.00006042 3.10388184 -0.00012207 C5.26576892 0.00523056 7.42765568 0.02280217 9.58935547 0.05175781 C12.89481191 0.09360519 16.19822959 0.09282535 19.50390625 0.0859375 C21.60678497 0.09643067 23.7096532 0.10936945 25.8125 0.125 C26.79907593 0.12520142 27.78565186 0.12540283 28.80212402 0.12561035 C37.45323073 0.27451388 37.45323073 0.27451388 41.40625 3.59375 C43.34943899 7.48012798 42.7825044 12.53452475 42.92382812 16.85351562 C43.10866902 21.1118314 43.27658761 24.78707123 45.40625 28.59375 C47.84913628 29.90443333 47.84913628 29.90443333 50.40625 30.59375 C51.06625 30.92375 51.72625 31.25375 52.40625 31.59375 C56.61996115 32.07258081 59.18627659 31.58188865 62.640625 29.08203125 C65.86221868 26.36648436 68.85589668 23.39057541 71.84375 20.421875 C74.40625 18.59375 74.40625 18.59375 77.21875 17.890625 C82.21217022 18.99211475 84.81977649 22.06948207 88.40625 25.59375 C89.46098617 26.59913559 90.51707616 27.60310204 91.57421875 28.60595703 C94.59427859 31.48366664 97.57624633 34.39775385 100.54541016 37.32788086 C101.79416825 38.55484876 103.04916192 39.77549999 104.31005859 40.98999023 C106.14841826 42.76159117 107.96643915 44.55197801 109.78125 46.34765625 C110.62949341 47.15415367 110.62949341 47.15415367 111.49487305 47.97694397 C114.10594625 50.60209118 115.34560775 52.13773937 115.84033203 55.85791016 C115.33194342 59.0620737 114.55982892 60.14246705 112.28125 62.40625 C105.42275347 69.68453734 105.42275347 69.68453734 101.78125 78.78125 C102.74999259 83.14059166 104.92268395 86.0814466 108.01953125 89.23828125 C111.48970119 91.20906516 114.95229729 91.04722537 118.84375 91.09375 C128.09547096 91.20492948 128.09547096 91.20492948 132.40625 94.59375 C133.58898763 96.95922527 133.54528738 98.41718202 133.56738281 101.0559082 C133.57699036 101.98059402 133.5865979 102.90527985 133.59649658 103.85798645 C133.6028714 105.36107613 133.6028714 105.36107613 133.609375 106.89453125 C133.61507507 107.9230571 133.62077515 108.95158295 133.62664795 110.01127625 C133.63610619 112.19101937 133.64263519 114.37077686 133.64648438 116.55053711 C133.65618017 119.88225352 133.68719216 123.2133506 133.71875 126.54492188 C133.72528093 128.66145467 133.73053105 130.77799187 133.734375 132.89453125 C133.7467218 133.89051834 133.7590686 134.88650543 133.77178955 135.91267395 C133.74322859 144.80275074 133.74322859 144.80275074 130.40625 148.59375 C125.97062684 150.07229105 121.38673581 149.9124756 116.7421875 150.0234375 C112.1854861 150.21462777 109.11297406 150.66885851 105.40625 153.59375 C102.78609355 157.65951001 101.55896618 160.79247501 102.40625 165.59375 C105.35220484 171.29762001 109.14915879 175.65348109 114.18359375 179.59765625 C115.81777524 182.26560112 115.54821929 184.37341708 115.10374451 187.40223694 C113.75240696 191.64811106 110.53768836 194.33242038 107.37890625 197.33984375 C106.67479111 198.03642593 105.97067596 198.73300812 105.245224 199.45069885 C103.00233151 201.66117183 100.73601369 203.84581092 98.46875 206.03125 C96.94702331 207.52642459 95.42682293 209.02315429 93.90820312 210.52148438 C91.13265983 213.24678707 88.35449523 215.969036 85.55493164 218.66967773 C84.99391251 219.21180405 84.43289337 219.75393036 83.85487366 220.31248474 C81.7186898 222.20187689 80.46301124 222.58712786 77.59375 222.921875 C73.52223434 222.50274839 72.27904876 221.19813339 69.40625 218.34375 C68.10880859 217.11785156 68.10880859 217.11785156 66.78515625 215.8671875 C66.00011719 215.11695313 65.21507812 214.36671875 64.40625 213.59375 C61.87531556 211.27124545 59.768585 209.70808883 56.21875 209.41015625 C51.88080193 209.63133452 49.8432858 210.23865841 46.40625 213.03125 C42.68815731 217.79505625 43.11473242 222.39104361 42.9765625 228.20898438 C42.78702349 232.75397185 42.3936687 235.93380813 39.40625 239.59375 C36.58313481 240.5347884 34.76062287 240.7402839 31.83056641 240.78662109 C30.90595612 240.80268402 29.98134583 240.81874695 29.02871704 240.83529663 C24.81049421 240.87982726 20.59242628 240.92079287 16.37402344 240.94384766 C14.14898227 240.96042334 11.92399468 240.9877343 9.69921875 241.02587891 C6.48930271 241.08061502 3.2806322 241.10251502 0.0703125 241.1171875 C-0.92253754 241.13985687 -1.91538757 241.16252625 -2.93832397 241.18588257 C-7.59051087 241.17163969 -9.86792136 241.12002819 -13.72045898 238.32666016 C-15.55080794 235.65639738 -16.21692032 234.50749225 -16.23046875 231.34375 C-16.25044922 230.5703125 -16.27042969 229.796875 -16.29101562 229 C-16.28618164 227.80890625 -16.28618164 227.80890625 -16.28125 226.59375 C-16.20462484 219.33668236 -16.20462484 219.33668236 -18.59375 212.59375 C-21.03663628 211.28306667 -21.03663628 211.28306667 -23.59375 210.59375 C-24.25375 210.26375 -24.91375 209.93375 -25.59375 209.59375 C-29.80694834 209.11497746 -32.31769843 209.60650942 -35.76171875 212.10546875 C-37.26769054 213.32887014 -38.74208888 214.59103683 -40.20703125 215.86328125 C-41.15964844 216.68183594 -42.11226563 217.50039063 -43.09375 218.34375 C-44.43953125 219.54257812 -44.43953125 219.54257812 -45.8125 220.765625 C-49.28416384 223.04756134 -50.49603977 223.287929 -54.59375 222.59375 C-57.50619471 220.53124782 -59.89591498 218.01252673 -62.36328125 215.4453125 C-63.08488937 214.71758636 -63.8064975 213.98986023 -64.54997253 213.24008179 C-66.84979436 210.91332639 -69.1276621 208.5662841 -71.40625 206.21875 C-72.95895669 204.64452064 -74.51297881 203.07158756 -76.06835938 201.5 C-78.90201771 198.62419468 -81.73393942 195.74690077 -84.54614258 192.85009766 C-85.11206619 192.26829742 -85.67798981 191.68649719 -86.26106262 191.08706665 C-88.1999019 188.9145384 -88.58401606 187.67822669 -88.921875 184.74609375 C-88.50398933 180.73140641 -87.33286382 179.78377747 -84.34375 177.15625 C-79.6188814 172.72157018 -76.17313372 169.14247526 -75.09375 162.53125 C-75.8563125 158.0511953 -78.06824266 155.18344948 -81.171875 151.94921875 C-84.84853516 149.89147508 -88.4461495 150.14012892 -92.59375 150.09375 C-100.83496709 150.00159582 -100.83496709 150.00159582 -104.09375 148.25 C-106.65188408 145.42539362 -106.72906098 142.65778606 -106.78662109 139.01806641 C-106.80268402 138.09345612 -106.81874695 137.16884583 -106.83529663 136.21621704 C-106.87982726 131.99799421 -106.92079287 127.77992628 -106.94384766 123.56152344 C-106.96042334 121.33648227 -106.9877343 119.11149468 -107.02587891 116.88671875 C-107.08061502 113.67680271 -107.10251502 110.4681322 -107.1171875 107.2578125 C-107.13985687 106.26496246 -107.16252625 105.27211243 -107.18588257 104.24917603 C-107.17163758 99.59630099 -107.11915736 97.31888685 -104.32666016 93.46484375 C-101.6466469 91.62996599 -100.51665798 90.97676364 -97.34375 90.9921875 C-96.18359375 90.96898437 -96.18359375 90.96898437 -95 90.9453125 C-94.2059375 90.95304687 -93.411875 90.96078125 -92.59375 90.96875 C-85.09536488 91.06924435 -85.09536488 91.06924435 -78.59375 87.59375 C-75.70866639 83.21638176 -74.71421379 79.78301366 -75.59375 74.59375 C-78.07500199 70.57954061 -81.14110258 67.08348629 -84.4296875 63.7109375 C-85.25339844 62.84855469 -85.25339844 62.84855469 -86.09375 61.96875 C-86.85171875 61.23785156 -86.85171875 61.23785156 -87.625 60.4921875 C-89.27705069 57.25470107 -88.48135261 55.05824926 -87.59375 51.59375 C-85.61114399 48.7389421 -83.21720113 46.37564986 -80.7421875 43.9453125 C-79.70380234 42.8983168 -79.70380234 42.8983168 -78.6444397 41.83016968 C-77.1806474 40.36230472 -75.70929155 38.90194844 -74.23095703 37.44873047 C-71.97599383 35.22589063 -69.7548202 32.97287105 -67.53515625 30.71484375 C-66.10608644 29.28973896 -64.67515641 27.86649662 -63.2421875 26.4453125 C-62.58149261 25.77247223 -61.92079773 25.09963196 -61.24008179 24.40640259 C-57.21009952 20.49609058 -54.47927818 18.55345656 -48.59375 18.59375 C-44.01424863 20.88350069 -40.75324145 24.30021224 -37.3046875 28.0078125 C-34.59573843 30.51884748 -32.38339778 31.50791872 -28.71875 31.90625 C-24.98572349 31.53294735 -22.74528123 30.62473679 -19.59375 28.59375 C-15.56879157 23.59823422 -16.18278949 18.28569569 -16.2421875 12.1875 C-16.22671875 11.4140625 -16.21125 10.640625 -16.1953125 9.84375 C-16.20038818 8.79960937 -16.20038818 8.79960937 -16.20556641 7.734375 C-13.86368622 -0.45940212 -7.08018797 -0.11766104 0 0 Z M0.40625 16.59375 C-0.25375 20.55375 -0.91375 24.51375 -1.59375 28.59375 C-4.4337635 36.31858673 -9.45959664 41.86708596 -16.79296875 45.76171875 C-24.11379297 48.56124399 -32.12289687 48.91751869 -39.40625 45.90625 C-43.3005054 43.95211824 -46.39976945 41.54203973 -49.59375 38.59375 C-52.74579981 39.98722376 -54.85546773 41.61860079 -57.265625 44.0703125 C-57.92949219 44.740625 -58.59335938 45.4109375 -59.27734375 46.1015625 C-59.95925781 46.80023438 -60.64117187 47.49890625 -61.34375 48.21875 C-62.04113281 48.92515625 -62.73851562 49.6315625 -63.45703125 50.359375 C-65.17387488 52.09973703 -66.88586832 53.84459981 -68.59375 55.59375 C-66.85374665 59.12952899 -64.85379281 62.3846037 -62.71484375 65.69140625 C-59.04859552 71.9125313 -59.56661593 81.47347505 -61.27734375 88.3359375 C-62.2161778 90.58758098 -63.26740035 92.54809473 -64.59375 94.59375 C-64.99464844 95.22796875 -65.39554688 95.8621875 -65.80859375 96.515625 C-69.78717635 101.91265878 -75.268769 104.64883844 -81.59375 106.59375 C-86.04875 107.08875 -86.04875 107.08875 -90.59375 107.59375 C-90.59375 116.17375 -90.59375 124.75375 -90.59375 133.59375 C-87.29375 133.92375 -83.99375 134.25375 -80.59375 134.59375 C-72.00004312 137.27425027 -66.48486639 142.788796 -61.9296875 150.359375 C-60.37729296 154.11780389 -60.09718787 157.40288513 -60.15625 161.40625 C-60.16543457 162.46356323 -60.16543457 162.46356323 -60.17480469 163.54223633 C-60.42151306 171.78893817 -63.1023341 177.51396811 -68.59375 183.59375 C-66.94680751 187.86550708 -63.82322516 190.55245017 -60.59375 193.65625 C-54.83543514 199.23122228 -54.83543514 199.23122228 -52.59375 202.59375 C-49.14261992 201.96484247 -46.88464877 200.60223374 -44.03125 198.59375 C-36.99471662 193.65749724 -29.90997137 193.98753674 -21.59375 194.59375 C-18.19807638 195.44024983 -15.52193683 196.69518984 -12.59375 198.59375 C-11.95953125 198.99464844 -11.3253125 199.39554688 -10.671875 199.80859375 C-5.27484122 203.78717635 -2.53866156 209.268769 -0.59375 215.59375 C-0.09875 220.04875 -0.09875 220.04875 0.40625 224.59375 C8.98625 224.59375 17.56625 224.59375 26.40625 224.59375 C26.633125 222.61375 26.86 220.63375 27.09375 218.59375 C28.4728958 209.77296335 31.69897174 204.60782256 38.46484375 198.91796875 C43.64745069 195.38295114 47.97142677 194.06408247 54.21875 194.15625 C54.92362549 194.16237305 55.62850098 194.16849609 56.35473633 194.17480469 C64.60143817 194.42151306 70.32646811 197.1023341 76.40625 202.59375 C80.67800708 200.94680751 83.36495017 197.82322516 86.46875 194.59375 C92.04372228 188.83543514 92.04372228 188.83543514 95.40625 186.59375 C94.77997767 183.14925218 93.42621399 180.92946867 91.40625 178.09375 C86.40087822 171.06697808 86.90338017 164.03816795 87.40625 155.59375 C88.56363869 149.03167468 92.38847861 143.8634173 97.40625 139.59375 C104.21074257 135.44115937 109.27260265 134.49748859 117.40625 133.59375 C117.40625 125.01375 117.40625 116.43375 117.40625 107.59375 C113.44625 106.93375 109.48625 106.27375 105.40625 105.59375 C97.31371562 101.64158204 91.70058396 97.27798223 88.27734375 88.796875 C85.81739687 79.75133041 86.39849924 70.70653513 91.01953125 62.546875 C92.40625 60.59375 92.40625 60.59375 94.13671875 59.078125 C94.76513672 58.34335938 94.76513672 58.34335938 95.40625 57.59375 C94.79015887 52.34043604 90.65768225 49.33184667 87.09375 45.78125 C86.41634766 45.07548828 85.73894531 44.36972656 85.04101562 43.64257812 C84.05198242 42.64967773 84.05198242 42.64967773 83.04296875 41.63671875 C82.44186279 41.02852295 81.84075684 40.42032715 81.22143555 39.79370117 C79.47479138 38.36203361 79.47479138 38.36203361 77.31762695 38.81762695 C74.92500106 39.78916326 73.00858871 41.09619366 70.90625 42.59375 C63.87947808 47.59912178 56.85066795 47.09661983 48.40625 46.59375 C41.87784219 45.44229943 36.58331797 41.66335386 32.40625 36.59375 C28.68686041 29.89148361 27.36640066 24.27495528 26.40625 16.59375 C17.82625 16.59375 9.24625 16.59375 0.40625 16.59375 Z " fill="#010101" transform="translate(242.59375,167.40625)"/>
<path d="M0 0 C9.26892039 8.62485644 15.36239001 19.11682912 16.3359375 31.84375 C16.41714844 32.88402344 16.49835938 33.92429687 16.58203125 34.99609375 C17.13385353 49.05920101 11.73106101 61.21230173 2.3359375 71.53125 C-7.894503 81.29430997 -20.75934094 85.23899865 -34.59570312 85.21508789 C-47.71073694 84.8468769 -59.63303235 77.8958242 -68.5546875 68.53125 C-77.54502263 57.07689709 -80.74745173 44.22015314 -79.6640625 29.84375 C-77.567094 16.80377782 -70.88650918 6.10034155 -60.6640625 -2.15625 C-41.52356775 -14.69977811 -18.19797169 -14.72915011 0 0 Z " fill="#CEDCE5" transform="translate(287.6640625,251.15625)"/>
<path d="M0 0 C15.25293095 12.27051428 23.42788858 26.56850204 26 46 C27.2891451 64.02788845 21.87461479 81.33561128 10.125 95.21484375 C-2.31146326 108.27814488 -19.00123193 115.76533305 -37 116.25 C-55.5866319 116.01580418 -70.85131847 109.52405251 -84.30078125 96.828125 C-96.73470368 84.03894765 -102.69638066 66.8326258 -102.54101562 49.18457031 C-101.852872 31.7071267 -93.61719152 15.95206801 -81 4 C-58.19670309 -15.25085452 -24.35335736 -18.55493894 0 0 Z M-74.703125 20.15625 C-84.03376875 31.7084756 -87.07648975 43.42467047 -86 58 C-83.97554789 71.55872544 -77.67723963 82.39970287 -67 91 C-54.50925392 99.01069226 -42.06594106 102.12620702 -27.421875 99.3125 C-15.019427 95.78573754 -3.45825512 89.0487617 3.046875 77.5546875 C10.16179907 64.05907518 11.90459986 51.97683172 8.02734375 37.12890625 C4.15585013 25.33777928 -3.264604 15.85573703 -14.24047852 9.91723633 C-35.29084301 -0.67987199 -58.34118992 2.8563696 -74.703125 20.15625 Z " fill="#010202" transform="translate(294,236)"/>
<path d="M0 0 C52.8 0 105.6 0 160 0 C160 5.28 160 10.56 160 16 C107.2 16 54.4 16 0 16 C0 10.72 0 5.44 0 0 Z " fill="#000000" transform="translate(48,88)"/>
<path d="M0 0 C5.28 0 10.56 0 16 0 C16 5.28 16 10.56 16 16 C10.72 16 5.44 16 0 16 C0 10.72 0 5.44 0 0 Z " fill="#000000" transform="translate(432,88)"/>
<path d="M0 0 C5.28 0 10.56 0 16 0 C16 5.28 16 10.56 16 16 C10.72 16 5.44 16 0 16 C0 10.72 0 5.44 0 0 Z " fill="#000000" transform="translate(376,88)"/>
</svg>
