<?xml version="1.0" encoding="UTF-8"?>
<svg version="1.1" xmlns="http://www.w3.org/2000/svg" width="140" height="140">
<path d="M0 0 C0.66 1.65 1.32 3.3 2 5 C3.32 5 4.64 5 6 5 C6.66 3.35 7.32 1.7 8 0 C12.97209562 1.76429199 17.43438061 4.3939166 22 7 C21.67 9.97 21.34 12.94 21 16 C22.98 16 24.96 16 27 16 C27 21.28 27 26.56 27 32 C25.02 32 23.04 32 21 32 C21.185625 33.299375 21.37125 34.59875 21.5625 35.9375 C21.87890625 38.15234375 21.87890625 38.15234375 22 40 C21.67 40.33 21.34 40.66 21 41 C28.59 43.64 36.18 46.28 44 49 C44 49.99 44 50.98 44 52 C42.02 52.66 40.04 53.32 38 54 C40.8684413 56.10232344 40.8684413 56.10232344 44 57 C44 57.99 44 58.98 44 60 C42.02 60.66 40.04 61.32 38 62 C40.8684413 64.10232344 40.8684413 64.10232344 44 65 C43.505 66.485 43.505 66.485 43 68 C40.44820019 69.20742585 37.99010124 70.21725741 35.34375 71.171875 C34.56745239 71.45855042 33.79115479 71.74522583 32.99133301 72.04058838 C31.34244244 72.64488972 29.69127499 73.24300836 28.03808594 73.83544922 C25.52966254 74.73931167 23.03471199 75.6748182 20.5390625 76.61328125 C18.93301159 77.19729612 17.32625981 77.77938784 15.71875 78.359375 C14.98088257 78.63948425 14.24301514 78.91959351 13.48278809 79.20819092 C5.13608916 82.12683852 -1.98327274 80.36229383 -10.0625 77.3828125 C-11.13854492 76.99607864 -11.13854492 76.99607864 -12.23632812 76.60153198 C-13.73374141 76.06012962 -15.22934747 75.51370388 -16.72314453 74.96240234 C-19.01689838 74.11878496 -21.31824959 73.29889947 -23.62109375 72.48046875 C-25.08123778 71.94931276 -26.54089259 71.41680954 -28 70.8828125 C-28.68843994 70.63894806 -29.37687988 70.39508362 -30.08618164 70.14382935 C-32 69.42626953 -32 69.42626953 -35 68 C-35.33 67.01 -35.66 66.02 -36 65 C-34.02 64.34 -32.04 63.68 -30 63 C-32.1385485 60.8614515 -33.13275314 60.57344937 -36 60 C-36 59.01 -36 58.02 -36 57 C-34.02 56.34 -32.04 55.68 -30 55 C-32.8684413 52.89767656 -32.8684413 52.89767656 -36 52 C-35 49 -35 49 -32.86694336 47.92504883 C-31.95050049 47.60560303 -31.03405762 47.28615723 -30.08984375 46.95703125 C-29.10048828 46.60576172 -28.11113281 46.25449219 -27.09179688 45.89257812 C-26.05087891 45.53615234 -25.00996094 45.17972656 -23.9375 44.8125 C-22.89271484 44.44447266 -21.84792969 44.07644531 -20.77148438 43.69726562 C-18.1844598 42.78767251 -15.59410848 41.88914672 -13 41 C-13.33 40.01 -13.66 39.02 -14 38 C-13.72428861 35.99124558 -13.39764263 33.98821313 -13 32 C-14.98 32 -16.96 32 -19 32 C-19 26.72 -19 21.44 -19 16 C-17.02 16 -15.04 16 -13 16 C-12.91064799 12.78332751 -13.15937603 10.09773244 -14 7 C-12.04480616 5.82807953 -10.0857461 4.6626071 -8.125 3.5 C-7.03445312 2.8503125 -5.94390625 2.200625 -4.8203125 1.53125 C-2 0 -2 0 0 0 Z " fill="#1B1B1B" transform="translate(66,32)"/>
<path d="M0 0 C1.3948613 0.00303635 1.3948613 0.00303635 2.81790161 0.00613403 C4.2787468 0.00350555 4.2787468 0.00350555 5.769104 0.00082397 C9.0054398 -0.00359642 12.24172146 -0.00065589 15.47805786 0.00271606 C17.71625784 0.00204308 19.95445774 0.0010731 22.19265747 -0.00018311 C26.89033705 -0.00166033 31.58799766 0.00049528 36.28567505 0.00515747 C42.322164 0.01085477 48.3586085 0.0075759 54.39509583 0.00158501 C59.01887347 -0.00201993 63.6426405 -0.00088233 68.26641846 0.0017128 C70.49287928 0.00238225 72.71934106 0.001553 74.94580078 -0.00076675 C78.05163141 -0.00329218 81.15738896 0.00054576 84.26321411 0.00613403 C85.19312164 0.0041098 86.12302917 0.00208557 87.08111572 0 C93.4262956 0.0212663 93.4262956 0.0212663 94.54055786 1.13552856 C94.63592123 4.30168694 94.66605117 7.44590503 94.65408325 10.61233521 C94.65420379 11.62349868 94.65432432 12.63466215 94.65444851 13.67646694 C94.65369907 16.96622822 94.64606945 20.25593361 94.63821411 23.54568481 C94.63674479 25.57005791 94.63572402 27.59443138 94.63516235 29.61880493 C94.62990836 37.14521858 94.6159473 44.67162412 94.60305786 52.19802856 C94.58243286 69.00740356 94.56180786 85.81677856 94.54055786 103.13552856 C60.88055786 103.13552856 27.22055786 103.13552856 -7.45944214 103.13552856 C-7.48006714 86.32615356 -7.50069214 69.51677856 -7.52194214 52.19802856 C-7.53104614 46.88201538 -7.54015015 41.5660022 -7.54953003 36.08889771 C-7.55404663 29.61880493 -7.55404663 29.61880493 -7.55488586 26.5940094 C-7.55642577 24.47238455 -7.55995165 22.3507606 -7.5650177 20.22914124 C-7.57229232 17.02352365 -7.57334965 13.81795975 -7.57296753 10.61233521 C-7.57656564 9.66036035 -7.58016375 8.70838549 -7.58387089 7.7275629 C-7.57175239 0.1808791 -7.55647744 0.02532604 0 0 Z M5.54055786 5.13552856 C5.14868286 6.10490356 4.75680786 7.07427856 4.35305786 8.07302856 C3.75493286 9.08365356 3.15680786 10.09427856 2.54055786 11.13552856 C0.89055786 11.46552856 -0.75944214 11.79552856 -2.45944214 12.13552856 C-2.45944214 40.51552856 -2.45944214 68.89552856 -2.45944214 98.13552856 C27.90055786 98.13552856 58.26055786 98.13552856 89.54055786 98.13552856 C89.54055786 69.75552856 89.54055786 41.37552856 89.54055786 12.13552856 C78.09368286 11.94990356 66.64680786 11.76427856 54.85305786 11.57302856 C51.24408569 11.51171753 47.63511353 11.45040649 43.91677856 11.38723755 C40.67029122 11.33727495 40.67029122 11.33727495 37.42378235 11.28874207 C35.98230356 11.2665086 34.54085645 11.24215724 33.09944153 11.21611023 C30.91099568 11.17698099 28.72254213 11.14465842 26.53396606 11.11380005 C25.30152664 11.09381454 24.06908722 11.07382904 22.79930115 11.05323792 C19.89881899 11.12648166 17.35261166 11.4558059 14.54055786 12.13552856 C14.54055786 10.48552856 14.54055786 8.83552856 14.54055786 7.13552856 C15.86055786 6.80552856 17.18055786 6.47552856 18.54055786 6.13552856 C14.25055786 5.80552856 9.96055786 5.47552856 5.54055786 5.13552856 Z " fill="#141313" transform="translate(26.459442138671875,17.864471435546875)"/>
<path d="M0 0 C0.33 0.66 0.66 1.32 1 2 C3.64 2 6.28 2 9 2 C9.33 1.34 9.66 0.68 10 0 C12.96175123 0.61277612 14.38058783 1.25372522 17 3 C17 4.66666667 17 6.33333333 17 8 C18.13749195 10.78508316 18.13749195 10.78508316 20 13 C22.08533633 13.87822312 22.08533633 13.87822312 24 14 C24 16.64 24 19.28 24 22 C22.35 22 20.7 22 19 22 C18.27670221 24.5832064 17.90330387 26.93472926 17.625 29.625 C17.315625 31.295625 17.315625 31.295625 17 33 C14 35 14 35 10 35 C10 34.34 10 33.68 10 33 C6.7 33 3.4 33 0 33 C-0.33 33.99 -0.66 34.98 -1 36 C-3.9375 34.9375 -3.9375 34.9375 -7 33 C-7.8125 29.5625 -7.8125 29.5625 -8 26 C-8.30903983 24.66082739 -8.62942911 23.32346746 -9 22 C-10.65 22 -12.3 22 -14 22 C-14 19.36 -14 16.72 -14 14 C-13.401875 13.938125 -12.80375 13.87625 -12.1875 13.8125 C-9.80527765 13.14112904 -9.80527765 13.14112904 -8.25 10.8125 C-6.84173016 7.64389285 -6.76070776 5.42985545 -7 2 C-4.35261084 0.5393715 -3.10551666 0 0 0 Z " fill="#EEC74E" transform="translate(65,38)"/>
<path d="M0 0 C0.66 1.65 1.32 3.3 2 5 C3.32 5 4.64 5 6 5 C6.66 3.35 7.32 1.7 8 0 C12.97209562 1.76429199 17.43438061 4.3939166 22 7 C21.67 9.97 21.34 12.94 21 16 C22.98 16 24.96 16 27 16 C27 21.28 27 26.56 27 32 C25.02 32 23.04 32 21 32 C21.495 35.96 21.495 35.96 22 40 C20.2335343 41.0076952 18.46166177 42.00591714 16.6875 43 C15.70136719 43.556875 14.71523437 44.11375 13.69921875 44.6875 C11 46 11 46 8 46 C7.67 44.68 7.34 43.36 7 42 C5.02 42 3.04 42 1 42 C0.67 43.32 0.34 44.64 0 46 C-3.38891322 45.31113213 -6.18011613 44.01283514 -9.25 42.4375 C-10.14203125 41.98246094 -11.0340625 41.52742188 -11.953125 41.05859375 C-12.96632813 40.53458984 -12.96632813 40.53458984 -14 40 C-13.67 37.36 -13.34 34.72 -13 32 C-14.98 32 -16.96 32 -19 32 C-19 26.72 -19 21.44 -19 16 C-17.02 16 -15.04 16 -13 16 C-12.91064799 12.78332751 -13.15937603 10.09773244 -14 7 C-12.04480616 5.82807953 -10.0857461 4.6626071 -8.125 3.5 C-7.03445312 2.8503125 -5.94390625 2.200625 -4.8203125 1.53125 C-2 0 -2 0 0 0 Z M-8 8 C-7.938125 8.886875 -7.87625 9.77375 -7.8125 10.6875 C-8.02335523 14.41260904 -8.68350381 16.10437976 -11 19 C-13.1875 19.8125 -13.1875 19.8125 -15 20 C-15 22.64 -15 25.28 -15 28 C-13.35 28 -11.7 28 -10 28 C-9.26620719 30.62068859 -8.95753373 32.80685917 -8.8125 35.5625 C-8.35856802 39.27304573 -8.35856802 39.27304573 -4.9375 40.9375 C-3.4834375 41.4634375 -3.4834375 41.4634375 -2 42 C-1.67 41.01 -1.34 40.02 -1 39 C2.3 39 5.6 39 9 39 C9 39.66 9 40.32 9 41 C12.60992379 40.34414811 12.60992379 40.34414811 16 39 C16.39460023 36.67624308 16.72230092 34.3406065 17 32 C17.30903983 30.66082739 17.62942911 29.32346746 18 28 C19.65 28 21.3 28 23 28 C23 25.36 23 22.72 23 20 C22.401875 19.938125 21.80375 19.87625 21.1875 19.8125 C19 19 19 19 17.25 16.75 C16 14 16 14 16.0625 11.375 C16.26875485 8.85293084 16.26875485 8.85293084 14.1875 7.1875 C11.97541303 5.76145407 11.97541303 5.76145407 9 6 C8.67 6.66 8.34 7.32 8 8 C5.36 8 2.72 8 0 8 C-0.33 7.34 -0.66 6.68 -1 6 C-4.10551666 6 -5.35261084 6.5393715 -8 8 Z " fill="#22201B" transform="translate(66,32)"/>
<path d="M0 0 C6.50313209 -0.46450943 10.4174808 0.67424388 16 4 C16.33 2.68 16.66 1.36 17 0 C18.98 0 20.96 0 23 0 C23.495 1.98 23.495 1.98 24 4 C24.4846875 3.71125 24.969375 3.4225 25.46875 3.125 C30.62101647 0.27143703 34.12964063 -0.41931138 40 0 C38.68 0.33 37.36 0.66 36 1 C36 1.99 36 2.98 36 4 C36.85464844 4.19335938 37.70929688 4.38671875 38.58984375 4.5859375 C39.69457031 4.84632812 40.79929688 5.10671875 41.9375 5.375 C43.03964844 5.63023438 44.14179687 5.88546875 45.27734375 6.1484375 C46.17582031 6.42945312 47.07429688 6.71046875 48 7 C48.495 7.99 48.495 7.99 49 9 C45.1503366 10.4910763 41.29456787 11.96569472 37.4375 13.4375 C35.80844727 14.06881836 35.80844727 14.06881836 34.14648438 14.71289062 C19.97618682 20.09674228 19.97618682 20.09674228 13.0625 17.75 C12.20914063 17.46511719 11.35578125 17.18023437 10.4765625 16.88671875 C9.65929687 16.59410156 8.84203125 16.30148438 8 16 C6.95972656 15.63841797 6.95972656 15.63841797 5.8984375 15.26953125 C0.82032099 13.43857689 -4.0906527 11.23875328 -9 9 C-8 7 -8 7 -6.0390625 6.1484375 C-5.24242187 5.89320312 -4.44578125 5.63796875 -3.625 5.375 C-2.83351563 5.11460938 -2.04203125 4.85421875 -1.2265625 4.5859375 C1 4 1 4 4 4 C4 3.01 4 2.02 4 1 C2.68 0.67 1.36 0.34 0 0 Z " fill="#DB5250" transform="translate(50,74)"/>
<path d="M0 0 C3.60374463 -0.14500644 7.20674242 -0.23396763 10.8125 -0.3125 C11.83666016 -0.35439453 12.86082031 -0.39628906 13.91601562 -0.43945312 C14.89892578 -0.45556641 15.88183594 -0.47167969 16.89453125 -0.48828125 C17.80050049 -0.51446533 18.70646973 -0.54064941 19.63989258 -0.56762695 C20.80814575 -0.28665161 20.80814575 -0.28665161 22 0 C22.4230542 0.82310669 22.8461084 1.64621338 23.28198242 2.4942627 C24.7637528 5.25397018 24.7637528 5.25397018 27.63859558 5.63923645 C29.22744316 5.6492292 29.22744316 5.6492292 30.84838867 5.65942383 C32.06619019 5.67912231 33.2839917 5.6988208 34.53869629 5.71911621 C36.45893616 5.71313416 36.45893616 5.71313416 38.41796875 5.70703125 C40.18267517 5.72896545 40.18267517 5.72896545 41.98303223 5.75134277 C46.38431318 5.79876884 50.78597374 5.80302109 55.1875 5.8125 C65.025625 5.874375 74.86375 5.93625 85 6 C85 35.37 85 64.74 85 95 C69.0053125 95.0309375 69.0053125 95.0309375 52.6875 95.0625 C49.38322998 95.071604 46.07895996 95.08070801 42.67456055 95.09008789 C39.95361369 95.09301781 37.23266638 95.09556379 34.51171875 95.09765625 C33.52048759 95.10157631 33.52048759 95.10157631 32.50923157 95.10557556 C18.30801966 95.15867639 4.21530343 94.52649272 -10 94 C-10 65.29 -10 36.58 -10 7 C-9.67 7 -9.34 7 -9 7 C-9 35.38 -9 63.76 -9 93 C21.36 93 51.72 93 83 93 C83 64.62 83 36.24 83 7 C58.25 7 33.5 7 8 7 C8 5.35 8 3.7 8 2 C5.36 1.67 2.72 1.34 0 1 C0 0.67 0 0.34 0 0 Z " fill="#878888" transform="translate(33,23)"/>
<path d="M0 0 C0 0.99 0 1.98 0 3 C1.09054688 3.23783203 1.09054688 3.23783203 2.203125 3.48046875 C7.79754283 4.77866058 12.98679185 6.30891988 18.25 8.625 C29.4750252 13.37572034 35.9364423 11.27055674 47 7 C48.25205901 6.46179622 49.50213115 5.91894263 50.75 5.37109375 C53.88832538 4.04711273 56.63228594 3.41069684 60 3 C60 2.01 60 1.02 60 0 C64.455 0.99 64.455 0.99 69 2 C69 2.66 69 3.32 69 4 C64.04678487 5.89431508 59.08487544 7.76293107 54.11352539 9.60913086 C52.42637937 10.23965103 50.74173894 10.8769209 49.05981445 11.52124023 C46.63091566 12.450339 44.19381078 13.35417007 41.75390625 14.25390625 C41.01290176 14.54342667 40.27189728 14.83294708 39.50843811 15.13124084 C31.28422464 18.10476207 24.61906227 16.53185462 16.55859375 13.49609375 C15.90544693 13.2533522 15.25230011 13.01061066 14.57936096 12.76051331 C12.52832515 11.99576487 10.48297924 11.21697188 8.4375 10.4375 C7.03355742 9.91116337 5.6292628 9.38576476 4.22460938 8.86132812 C0.81227865 7.58501078 -2.59510938 6.29605514 -6 5 C-5.625 3.0625 -5.625 3.0625 -5 1 C-3 0 -3 0 0 0 Z " fill="#161717" transform="translate(40,96)"/>
<path d="M0 0 C0.88300781 0.2784375 1.76601563 0.556875 2.67578125 0.84375 C5.5429464 1.82723127 8.3601124 2.90804341 11.1875 4 C20.08602853 7.24036053 27.52084887 5.54149449 35.96484375 1.6875 C36.73957031 1.31625 37.51429687 0.945 38.3125 0.5625 C41.10621941 -0.73070581 42.2990165 -1.19605249 45.4375 -1.0625 C47.5 -0.1875 47.5 -0.1875 49.5 1.8125 C44.07162546 3.86094322 38.63188815 5.87228065 33.16796875 7.82421875 C31.52958141 8.43111772 29.90284182 9.07236457 28.30078125 9.76953125 C20.50697971 13.12285647 13.90927027 10.90881504 6.4375 7.9375 C5.43493164 7.55271484 5.43493164 7.55271484 4.41210938 7.16015625 C0.06341289 5.47815314 -4.22358333 3.66987733 -8.5 1.8125 C-6.51965273 -2.14819455 -3.56627815 -1.14051428 0 0 Z " fill="#BAE1E4" transform="translate(49.5,97.1875)"/>
<path d="M0 0 C5.97802852 -0.37462312 10.53049451 0.91030357 16.125 2.9375 C25.3827159 6.7409137 25.3827159 6.7409137 34.8125 5.25 C35.68132812 4.87875 36.55015625 4.5075 37.4453125 4.125 C38.28835937 3.75375 39.13140625 3.3825 40 3 C45.16744197 0.77744432 49.23908964 -0.57609104 55 0 C55.66 0.66 56.32 1.32 57 2 C53.30990543 3.46538743 49.61136815 4.90675235 45.90380859 6.32739258 C44.03134968 7.05039512 42.16597377 7.79165615 40.30078125 8.53320312 C26.0278378 13.97235185 16.25126012 9.71491364 2.625 3.6875 C1.42875 3.130625 0.2325 2.57375 -1 2 C-0.67 1.34 -0.34 0.68 0 0 Z " fill="#2CC7DC" transform="translate(42,89)"/>
<path d="M0 0 C2.33944736 0.28730055 4.6739143 0.61936779 7 1 C8.1875 3.1875 8.1875 3.1875 9 6 C8 8.8125 8 8.8125 6 11 C2.84010585 11.38692581 0.86120256 11.43060128 -2 10 C-2.33 11.32 -2.66 12.64 -3 14 C-5.64 14 -8.28 14 -11 14 C-10.625 11.5625 -10.625 11.5625 -10 9 C-9.34 8.67 -8.68 8.34 -8 8 C-7.34444881 5.47266765 -7.34444881 5.47266765 -7 3 C-5.5459375 2.5359375 -5.5459375 2.5359375 -4.0625 2.0625 C-1.15934208 1.30476658 -1.15934208 1.30476658 0 0 Z " fill="#2D2F2F" transform="translate(105,36)"/>
<path d="M0 0 C0.66 0.66 1.32 1.32 2 2 C3.98356483 2.71408334 5.98315437 3.38617742 8 4 C8 5.32 8 6.64 8 8 C8.99 8.66 9.98 9.32 11 10 C11 11.32 11 12.64 11 14 C8.36 14 5.72 14 3 14 C2.67 12.35 2.34 10.7 2 9 C1.34 9.66 0.68 10.32 0 11 C-3 11.25 -3 11.25 -6 11 C-8 9 -8 9 -8.3125 5.5 C-8.209375 4.345 -8.10625 3.19 -8 2 C-4.77626323 -0.14915785 -3.73296326 -0.38286803 0 0 Z " fill="#0E0E0E" transform="translate(35,36)"/>
<path d="M0 0 C2.31 0 4.62 0 7 0 C7.33 1.65 7.66 3.3 8 5 C9.98 4.34 11.96 3.68 14 3 C15.65 4.65 17.3 6.3 19 8 C18.0641736 11.23285484 17.51943484 12.67193589 14.625 14.5 C12 15 12 15 10.0625 13.75 C9.381875 13.1725 8.70125 12.595 8 12 C6.01985568 11.27648573 4.02178685 10.59734611 2 10 C2 8.68 2 7.36 2 6 C1.01 5.67 0.02 5.34 -1 5 C-0.67 3.35 -0.34 1.7 0 0 Z " fill="#2A2B2B" transform="translate(95,61)"/>
<path d="M0 0 C2.64 0 5.28 0 8 0 C8.1875 2.375 8.1875 2.375 8 5 C7.01 5.66 6.02 6.32 5 7 C4.27617533 9.05925139 4.27617533 9.05925139 4 11 C2.35 11 0.7 11 -1 11 C-1 11.66 -1 12.32 -1 13 C-3.75 14.1875 -3.75 14.1875 -7 15 C-9.375 14 -9.375 14 -11 12 C-11.5 9 -11.5 9 -11 6 C-9.375 4 -9.375 4 -7 3 C-3.75 3.8125 -3.75 3.8125 -1 5 C-0.67 3.35 -0.34 1.7 0 0 Z " fill="#202222" transform="translate(38,61)"/>
<path d="M0 0 C17.16 0 34.32 0 52 0 C52 0.99 52 1.98 52 3 C35.17 3 18.34 3 1 3 C0.67 2.01 0.34 1.02 0 0 Z " fill="#677B8C" transform="translate(59,23)"/>
<path d="M0 0 C2.9375 0.9375 2.9375 0.9375 4.5 3.1875 C4.9375 5.9375 4.9375 5.9375 3.9375 8.75 C1.9375 10.9375 1.9375 10.9375 -1.125 11.375 C-4.0625 10.9375 -4.0625 10.9375 -6.0625 8.9375 C-8.26500992 8.47743654 -8.26500992 8.47743654 -10.6875 8.3125 C-11.50476563 8.23773438 -12.32203125 8.16296875 -13.1640625 8.0859375 C-13.79054688 8.03695312 -14.41703125 7.98796875 -15.0625 7.9375 C-14.7325 6.2875 -14.4025 4.6375 -14.0625 2.9375 C-11.08398438 2.64453125 -11.08398438 2.64453125 -8.10546875 2.3515625 C-4.78349863 1.67827601 -3.58640575 -0.07319195 0 0 Z " fill="#262727" transform="translate(109.0625,50.0625)"/>
<path d="M0 0 C0.33 0.33 0.66 0.66 1 1 C2.34747084 1.23075082 3.70377565 1.41153063 5.0625 1.5625 C6.361875 1.706875 7.66125 1.85125 9 2 C9.33 3.65 9.66 5.3 10 7 C9.37351562 7.04898438 8.74703125 7.09796875 8.1015625 7.1484375 C7.28429687 7.22320312 6.46703125 7.29796875 5.625 7.375 C4.81289063 7.44460937 4.00078125 7.51421875 3.1640625 7.5859375 C0.79665809 7.82892588 0.79665809 7.82892588 -1 10 C-4 10.25 -4 10.25 -7 10 C-9 8 -9 8 -9.3125 5.0625 C-9 2 -9 2 -7.875 0.0625 C-5.04805609 -1.53943488 -3.05073223 -0.79584319 0 0 Z " fill="#252727" transform="translate(36,51)"/>
<path d="M0 0 C-0.33 0.99 -0.66 1.98 -1 3 C-3.30484025 4.01978865 -5.48917287 4.85353494 -7.875 5.625 C-8.51308594 5.8415625 -9.15117188 6.058125 -9.80859375 6.28125 C-11.53535418 6.86524831 -13.26746599 7.43335946 -15 8 C-15.99 8.33 -16.98 8.66 -18 9 C-23.41617275 9.36764324 -27.38587382 8.42442902 -32.4375 6.5 C-33.07365234 6.26152344 -33.70980469 6.02304688 -34.36523438 5.77734375 C-35.91402732 5.19509076 -37.45760253 4.59898931 -39 4 C-39 3.01 -39 2.02 -39 1 C-35.31261088 1.4727422 -32.08188937 2.31293974 -28.625 3.625 C-20.0665434 6.492012 -12.98687868 3.06557825 -4.9765625 -0.0390625 C-2 -1 -2 -1 0 0 Z " fill="#0F1819" transform="translate(91,95)"/>
<path d="M0 0 C5.445 1.485 5.445 1.485 11 3 C11 3.99 11 4.98 11 6 C9.02 6.66 7.04 7.32 5 8 C7.8684413 10.10232344 7.8684413 10.10232344 11 11 C10.67 11.66 10.34 12.32 10 13 C7.03 12.01 4.06 11.02 1 10 C0.67 10.99 0.34 11.98 0 13 C-0.53625 12.67 -1.0725 12.34 -1.625 12 C-4.5391061 10.77300796 -6.86867708 10.85766714 -10 11 C-9.5 9.1875 -9.5 9.1875 -8 7 C-5.4136076 5.73847391 -2.74799171 4.84356955 0 4 C0 2.68 0 1.36 0 0 Z " fill="#252A2A" transform="translate(99,86)"/>
<path d="M0 0 C1.98 0 3.96 0 6 0 C6 5.28 6 10.56 6 16 C4.02 16 2.04 16 0 16 C0.33 18.64 0.66 21.28 1 24 C-2.3 25.65 -5.6 27.3 -9 29 C-9.99 27.68 -10.98 26.36 -12 25 C-9.69 24.34 -7.38 23.68 -5 23 C-5.226875 22.29875 -5.45375 21.5975 -5.6875 20.875 C-6.09532639 17.12299725 -4.86377293 15.20568943 -3 12 C-1.35 12 0.3 12 2 12 C1.67 12.66 1.34 13.32 1 14 C2.32 14.33 3.64 14.66 5 15 C5 10.38 5 5.76 5 1 C3.35 1 1.7 1 0 1 C0 0.67 0 0.34 0 0 Z " fill="#262522" transform="translate(87,48)"/>
<path d="M0 0 C7.26 0 14.52 0 22 0 C22.66 1.98 23.32 3.96 24 6 C22.27111445 6.16955795 20.54187557 6.33551514 18.8125 6.5 C17.84957031 6.5928125 16.88664062 6.685625 15.89453125 6.78125 C13.24812333 6.98124844 10.65239135 7.03879183 8 7 C8 5.35 8 3.7 8 2 C5.36 1.67 2.72 1.34 0 1 C0 0.67 0 0.34 0 0 Z " fill="#C8C8C8" transform="translate(33,23)"/>
<path d="M0 0 C0.33 0.99 0.66 1.98 1 3 C4.51190809 4.22969878 4.51190809 4.22969878 8 5 C8.33 4.34 8.66 3.68 9 3 C12.3 3 15.6 3 19 3 C19 3.99 19 4.98 19 6 C19.99 6.33 20.98 6.66 22 7 C21.67 7.99 21.34 8.98 21 10 C20.01 10 19.02 10 18 10 C17.67 8.68 17.34 7.36 17 6 C15.02 6 13.04 6 11 6 C10.67 7.32 10.34 8.64 10 10 C6.07869079 9.21573816 2.5579965 7.81256426 -1 6 C-2.0625 3.9375 -2.0625 3.9375 -2 2 C-1.34 1.34 -0.68 0.68 0 0 Z " fill="#130C09" transform="translate(56,68)"/>
<path d="M0 0 C1.98 0 3.96 0 6 0 C6 0.33 6 0.66 6 1 C4.35 1 2.7 1 1 1 C1 5.62 1 10.24 1 15 C2.32 14.67 3.64 14.34 5 14 C4.67 13.34 4.34 12.68 4 12 C5.65 12 7.3 12 9 12 C10.625 15.25 10.625 15.25 12 19 C11.1875 21.4375 11.1875 21.4375 10 23 C9.67 22.34 9.34 21.68 9 21 C8.67 22.32 8.34 23.64 8 25 C7.01 24.67 6.02 24.34 5 24 C5.33 21.36 5.66 18.72 6 16 C4.02 16 2.04 16 0 16 C0 10.72 0 5.44 0 0 Z " fill="#282723" transform="translate(47,48)"/>
<path d="M0 0 C0.33 0.66 0.66 1.32 1 2 C1.99 2 2.98 2 4 2 C4 2.99 4 3.98 4 5 C5.65 5 7.3 5 9 5 C9 9.62 9 14.24 9 19 C7.35 19 5.7 19 4 19 C4.33 18.34 4.66 17.68 5 17 C5.22467831 15.46331135 5.40796805 13.92031946 5.5625 12.375 C5.64628906 11.55773438 5.73007813 10.74046875 5.81640625 9.8984375 C5.87699219 9.27195312 5.93757813 8.64546875 6 8 C4.35 7.67 2.7 7.34 1 7 C0.34 5.02 -0.32 3.04 -1 1 C-0.67 0.67 -0.34 0.34 0 0 Z " fill="#0C0B08" transform="translate(83,44)"/>
<path d="M0 0 C0.66 0.66 1.32 1.32 2 2 C3.98356483 2.71408334 5.98315437 3.38617742 8 4 C8 5.32 8 6.64 8 8 C8.99 8.66 9.98 9.32 11 10 C10.67 11.32 10.34 12.64 10 14 C10 13.01 10 12.02 10 11 C8.68 11 7.36 11 6 11 C6 8.69 6 6.38 6 4 C5.236875 4.020625 4.47375 4.04125 3.6875 4.0625 C1 4 1 4 -2 3 C-1.67 4.32 -1.34 5.64 -1 7 C-2.32 7 -3.64 7 -5 7 C-5.33 6.34 -5.66 5.68 -6 5 C-6.66 6.32 -7.32 7.64 -8 9 C-8.1875 5.625 -8.1875 5.625 -8 2 C-4.77626323 -0.14915785 -3.73296326 -0.38286803 0 0 Z " fill="#545858" transform="translate(35,36)"/>
<path d="M0 0 C0.33 1.32 0.66 2.64 1 4 C-0.65 4.33 -2.3 4.66 -4 5 C-3.85892253 6.45880109 -3.71197585 7.91703551 -3.5625 9.375 C-3.48128906 10.18710937 -3.40007813 10.99921875 -3.31640625 11.8359375 C-3.10909886 14.04272805 -3.10909886 14.04272805 -2 16 C-3.65 16 -5.3 16 -7 16 C-7 11.38 -7 6.76 -7 2 C-4.69 1.34 -2.38 0.68 0 0 Z " fill="#0B0A06" transform="translate(55,47)"/>
<path d="M0 0 C0.66 0 1.32 0 2 0 C2 0.66 2 1.32 2 2 C2.66 2 3.32 2 4 2 C4.33 3.32 4.66 4.64 5 6 C0.05 8.475 0.05 8.475 -5 11 C-5.99 9.68 -6.98 8.36 -8 7 C-5.69 6.34 -3.38 5.68 -1 5 C-0.67 3.35 -0.34 1.7 0 0 Z " fill="#201C15" transform="translate(83,66)"/>
<path d="M0 0 C4.455 0.99 4.455 0.99 9 2 C9 2.66 9 3.32 9 4 C3.63999211 6.25684543 -0.1977825 7.36263859 -6 7 C-4.71034824 5.62437146 -3.37310707 4.29233607 -2 3 C-1.34 3 -0.68 3 0 3 C0 2.01 0 1.02 0 0 Z " fill="#0F0F0F" transform="translate(100,96)"/>
<path d="M0 0 C0.99 0 1.98 0 3 0 C2.30834212 5.41798672 1.24200752 10.6822785 0 16 C-0.99 16 -1.98 16 -3 16 C-2.57910004 10.39538469 -2.08386889 5.27913453 0 0 Z " fill="#312A14" transform="translate(70,48)"/>
<path d="M0 0 C-0.55105909 3.9492568 -1.38935371 7.34920174 -3 11 C-4.32 10.67 -5.64 10.34 -7 10 C-6.979375 9.2575 -6.95875 8.515 -6.9375 7.75 C-6.99328688 5.29537721 -7.3069904 3.33890739 -8 1 C-2.25 -1.125 -2.25 -1.125 0 0 Z " fill="#1E1D19" transform="translate(60,38)"/>
<path d="M0 0 C0.99 0.33 1.98 0.66 3 1 C2.34 2.32 1.68 3.64 1 5 C1.66 5 2.32 5 3 5 C2.67 5.99 2.34 6.98 2 8 C0.68 7.34 -0.64 6.68 -2 6 C-2 2 -2 2 0 0 Z " fill="#1E1A0E" transform="translate(62,52)"/>
<path d="M0 0 C-0.33 0.33 -0.66 0.66 -1 1 C-0.34 1.66 0.32 2.32 1 3 C-1.97 3.66 -4.94 4.32 -8 5 C-8 4.34 -8 3.68 -8 3 C-8.66 2.67 -9.32 2.34 -10 2 C-8.71211992 1.46987262 -7.41953322 0.9511671 -6.125 0.4375 C-5.40570313 0.14746094 -4.68640625 -0.14257812 -3.9453125 -0.44140625 C-2 -1 -2 -1 0 0 Z " fill="#15292B" transform="translate(82,98)"/>
<path d="M0 0 C2.64 0 5.28 0 8 0 C8 1.65 8 3.3 8 5 C6.35 5.66 4.7 6.32 3 7 C3 6.01 3 5.02 3 4 C3.99 4 4.98 4 6 4 C6 3.34 6 2.68 6 2 C4.02 2 2.04 2 0 2 C0 1.34 0 0.68 0 0 Z " fill="#494949" transform="translate(38,61)"/>
<path d="M0 0 C2.64 0 5.28 0 8 0 C7.34 1.65 6.68 3.3 6 5 C4.35 4.67 2.7 4.34 1 4 C0.67 2.68 0.34 1.36 0 0 Z " fill="#211B1D" transform="translate(66,92)"/>
<path d="M0 0 C0 0.99 0 1.98 0 3 C-6.28571429 5.42857143 -6.28571429 5.42857143 -10 4 C-4.5 0 -4.5 0 0 0 Z " fill="#0D0707" transform="translate(54,75)"/>
<path d="M0 0 C0.99 0 1.98 0 3 0 C2.125 6.75 2.125 6.75 1 9 C0.34 9 -0.32 9 -1 9 C-1.125 2.25 -1.125 2.25 0 0 Z " fill="#19160B" transform="translate(70,48)"/>
<path d="M0 0 C1.98 0.99 1.98 0.99 4 2 C4 3.32 4 4.64 4 6 C2.02 6.99 2.02 6.99 0 8 C0 5.36 0 2.72 0 0 Z " fill="#14110B" transform="translate(76,52)"/>
<path d="M0 0 C1.65 0 3.3 0 5 0 C5 1.65 5 3.3 5 5 C3.35 5 1.7 5 0 5 C0 3.35 0 1.7 0 0 Z " fill="#434343" transform="translate(34,25)"/>
<path d="M0 0 C0.66 0.33 1.32 0.66 2 1 C1.67 1.33 1.34 1.66 1 2 C1.99 2.66 2.98 3.32 4 4 C-0.455 5.485 -0.455 5.485 -5 7 C-5 6.34 -5 5.68 -5 5 C-4.34 5 -3.68 5 -3 5 C-3 3.68 -3 2.36 -3 1 C-2.01 0.67 -1.02 0.34 0 0 Z " fill="#282B2B" transform="translate(94,100)"/>
<path d="M0 0 C2.64 0 5.28 0 8 0 C7.67 0.99 7.34 1.98 7 3 C4.69 3 2.38 3 0 3 C0 2.01 0 1.02 0 0 Z " fill="#0B1112" transform="translate(66,101)"/>
<path d="M0 0 C-0.825 0.45375 -1.65 0.9075 -2.5 1.375 C-3.325 1.91125 -4.15 2.4475 -5 3 C-5 3.66 -5 4.32 -5 5 C-5.66 5 -6.32 5 -7 5 C-7 4.34 -7 3.68 -7 3 C-9.31 3.33 -11.62 3.66 -14 4 C-11.37350692 2.24900461 -9.38191413 1.30690675 -6.4375 0.3125 C-5.65246094 0.04050781 -4.86742187 -0.23148437 -4.05859375 -0.51171875 C-2 -1 -2 -1 0 0 Z " fill="#444343" transform="translate(50,76)"/>
<path d="M0 0 C2.91517292 1.07401108 4.77810176 1.77810176 7 4 C4.36 4 1.72 4 -1 4 C-1 4.66 -1 5.32 -1 6 C-2.65 6 -4.3 6 -6 6 C-5.38125 5.938125 -4.7625 5.87625 -4.125 5.8125 C-1.72238859 5.171081 -1.72238859 5.171081 -0.75 2.4375 C-0.5025 1.633125 -0.255 0.82875 0 0 Z " fill="#454646" transform="translate(74,32)"/>
<path d="M0 0 C0 0.66 0 1.32 0 2 C0.66 2.66 1.32 3.32 2 4 C0.02 4.66 -1.96 5.32 -4 6 C-4.33 5.34 -4.66 4.68 -5 4 C-5.66 3.67 -6.32 3.34 -7 3 C-2.25 0 -2.25 0 0 0 Z " fill="#302F2C" transform="translate(63,34)"/>
<path d="M0 0 C0 1.65 0 3.3 0 5 C-2.97 4.505 -2.97 4.505 -6 4 C-6 3.01 -6 2.02 -6 1 C-3.92446352 0.4465236 -2.15634036 0 0 0 Z " fill="#323232" transform="translate(36,88)"/>
<path d="M0 0 C1.32 0 2.64 0 4 0 C4 1.65 4 3.3 4 5 C2.68 5 1.36 5 0 5 C0 3.35 0 1.7 0 0 Z " fill="#303030" transform="translate(41,25)"/>
</svg>
