<?xml version="1.0" encoding="UTF-8"?>
<svg version="1.1" xmlns="http://www.w3.org/2000/svg" width="140" height="140">
<path d="M0 0 C2.20638671 1.54228616 4.03845867 3.14169769 6 5 C6.55793243 4.67566483 7.11586487 4.35132965 7.69070435 4.01716614 C10.30454183 2.86585969 12.10214337 2.74056979 14.94873047 2.7253418 C15.93009979 2.71580978 16.91146912 2.70627777 17.9225769 2.69645691 C19.50390915 2.69782402 19.50390915 2.69782402 21.1171875 2.69921875 C22.75205612 2.69279106 22.75205612 2.69279106 24.41995239 2.68623352 C26.72478542 2.68049241 29.02963656 2.67998834 31.33447266 2.68432617 C34.85480817 2.6874819 38.37429988 2.66403803 41.89453125 2.63867188 C44.13541561 2.6363984 46.37630222 2.63569561 48.6171875 2.63671875 C49.66736053 2.627509 50.71753357 2.61829926 51.79953003 2.60881042 C57.27375993 2.6433338 61.30900219 2.84301402 66 6 C69.32605663 9.68563032 71.11842696 12.08960971 71.14717102 17.03448486 C71.15432632 17.87839279 71.16148163 18.72230072 71.16885376 19.59178162 C71.17154266 20.51958939 71.17423157 21.44739716 71.17700195 22.40332031 C71.18357315 23.37908524 71.19014435 24.35485016 71.19691467 25.36018372 C71.21667599 28.5994982 71.22831688 31.83876626 71.23828125 35.078125 C71.24235678 36.18309074 71.2464323 37.28805649 71.25063133 38.42650604 C71.27150464 44.27538365 71.28580063 50.12423771 71.29516602 55.97314453 C71.30623016 62.01710974 71.34062685 68.06070674 71.38033772 74.10454178 C71.40647467 78.74911182 71.4148553 83.39359378 71.41844749 88.0382309 C71.42332137 90.26616654 71.43495801 92.49409804 71.45348549 94.72196198 C71.47781309 97.84130565 71.47692322 100.95969221 71.4699707 104.07910156 C71.48278076 104.99881241 71.49559082 105.91852325 71.50878906 106.86610413 C71.46387531 112.39759606 70.76772053 115.66019743 67 120 C61.43400324 124.57699414 54.89340025 124.58799858 48 124.53125 C46.44732422 124.53699036 46.44732422 124.53699036 44.86328125 124.54284668 C42.68488588 124.54555654 40.50645746 124.53826063 38.328125 124.52148438 C35.00967282 124.50006244 31.69338551 124.52131871 28.375 124.546875 C26.24999526 124.54423156 24.12499186 124.53910625 22 124.53125 C21.01644531 124.53934692 20.03289062 124.54744385 19.01953125 124.55578613 C12.91233256 124.4733916 7.94140699 123.80661083 3 120 C-2.56850698 113.6906729 -1.50973482 105.83813919 -1.390625 97.87890625 C-1.38315493 96.40918247 -1.37746562 94.93944865 -1.37347412 93.4697113 C-1.35827776 89.62094112 -1.31904931 85.77278477 -1.2746582 81.92425537 C-1.23357482 77.98930157 -1.21543537 74.05424756 -1.1953125 70.11914062 C-1.15254785 62.41248204 -1.08437113 54.70632737 -1 47 C-1.74161377 47.01571045 -2.48322754 47.0314209 -3.24731445 47.04760742 C-6.60229896 47.10990714 -9.95716186 47.14897507 -13.3125 47.1875 C-15.06336914 47.22520508 -15.06336914 47.22520508 -16.84960938 47.26367188 C-17.96787109 47.27333984 -19.08613281 47.28300781 -20.23828125 47.29296875 C-21.26993408 47.3086792 -22.30158691 47.32438965 -23.36450195 47.34057617 C-26 47 -26 47 -27.80541992 45.6809082 C-29 44 -29 44 -29.875 40.8125 C-31.03582207 36.87860298 -32.61181523 34.16051152 -34.87890625 30.796875 C-38.0426773 25.72602244 -37.60153386 19.74255 -37 14 C-34.79516499 6.61277243 -30.7401454 1.68581565 -24 -2 C-15.1871896 -5.40143559 -8.20474633 -4.21688933 0 0 Z " fill="#E5E8EA" transform="translate(53,10)"/>
<path d="M0 0 C2.20638671 1.54228616 4.03845867 3.14169769 6 5 C6.55793243 4.67566483 7.11586487 4.35132965 7.69070435 4.01716614 C10.30454183 2.86585969 12.10214337 2.74056979 14.94873047 2.7253418 C15.93009979 2.71580978 16.91146912 2.70627777 17.9225769 2.69645691 C19.50390915 2.69782402 19.50390915 2.69782402 21.1171875 2.69921875 C22.75205612 2.69279106 22.75205612 2.69279106 24.41995239 2.68623352 C26.72478542 2.68049241 29.02963656 2.67998834 31.33447266 2.68432617 C34.85480817 2.6874819 38.37429988 2.66403803 41.89453125 2.63867188 C44.13541561 2.6363984 46.37630222 2.63569561 48.6171875 2.63671875 C49.66736053 2.627509 50.71753357 2.61829926 51.79953003 2.60881042 C57.27375993 2.6433338 61.30900219 2.84301402 66 6 C69.32605663 9.68563032 71.11842696 12.08960971 71.14717102 17.03448486 C71.15432632 17.87839279 71.16148163 18.72230072 71.16885376 19.59178162 C71.17154266 20.51958939 71.17423157 21.44739716 71.17700195 22.40332031 C71.18357315 23.37908524 71.19014435 24.35485016 71.19691467 25.36018372 C71.21667599 28.5994982 71.22831688 31.83876626 71.23828125 35.078125 C71.24235678 36.18309074 71.2464323 37.28805649 71.25063133 38.42650604 C71.27150464 44.27538365 71.28580063 50.12423771 71.29516602 55.97314453 C71.30623016 62.01710974 71.34062685 68.06070674 71.38033772 74.10454178 C71.40647467 78.74911182 71.4148553 83.39359378 71.41844749 88.0382309 C71.42332137 90.26616654 71.43495801 92.49409804 71.45348549 94.72196198 C71.47781309 97.84130565 71.47692322 100.95969221 71.4699707 104.07910156 C71.48278076 104.99881241 71.49559082 105.91852325 71.50878906 106.86610413 C71.46387531 112.39759606 70.76772053 115.66019743 67 120 C61.43400324 124.57699414 54.89340025 124.58799858 48 124.53125 C46.44732422 124.53699036 46.44732422 124.53699036 44.86328125 124.54284668 C42.68488588 124.54555654 40.50645746 124.53826063 38.328125 124.52148438 C35.00967282 124.50006244 31.69338551 124.52131871 28.375 124.546875 C26.24999526 124.54423156 24.12499186 124.53910625 22 124.53125 C21.01644531 124.53934692 20.03289062 124.54744385 19.01953125 124.55578613 C12.91233256 124.4733916 7.94140699 123.80661083 3 120 C-2.56850698 113.6906729 -1.50973482 105.83813919 -1.390625 97.87890625 C-1.38315493 96.40918247 -1.37746562 94.93944865 -1.37347412 93.4697113 C-1.35827776 89.62094112 -1.31904931 85.77278477 -1.2746582 81.92425537 C-1.23357482 77.98930157 -1.21543537 74.05424756 -1.1953125 70.11914062 C-1.15254785 62.41248204 -1.08437113 54.70632737 -1 47 C-1.74161377 47.01571045 -2.48322754 47.0314209 -3.24731445 47.04760742 C-6.60229896 47.10990714 -9.95716186 47.14897507 -13.3125 47.1875 C-15.06336914 47.22520508 -15.06336914 47.22520508 -16.84960938 47.26367188 C-17.96787109 47.27333984 -19.08613281 47.28300781 -20.23828125 47.29296875 C-21.26993408 47.3086792 -22.30158691 47.32438965 -23.36450195 47.34057617 C-26 47 -26 47 -27.80541992 45.6809082 C-29 44 -29 44 -29.875 40.8125 C-31.03582207 36.87860298 -32.61181523 34.16051152 -34.87890625 30.796875 C-38.0426773 25.72602244 -37.60153386 19.74255 -37 14 C-34.79516499 6.61277243 -30.7401454 1.68581565 -24 -2 C-15.1871896 -5.40143559 -8.20474633 -4.21688933 0 0 Z M7 8 C7.33 9.32 7.66 10.64 8 12 C9.8871875 12.0928125 9.8871875 12.0928125 11.8125 12.1875 C14.04296875 12.4453125 14.04296875 12.4453125 16 13 C17.0409066 14.64142963 18.04504326 16.30712215 19 18 C20.99956611 18.04165763 23.00043389 18.04165763 25 18 C26.9375 19.6875 26.9375 19.6875 28 22 C27.74397597 24.56024031 27.08148317 26.74073538 26.3125 29.1875 C26.209375 29.785625 26.10625 30.38375 26 31 C26.66 31.66 27.32 32.32 28 33 C27.69347955 35.9425963 27.32728846 38.34542308 26 41 C23.35139573 41.59355614 20.70802678 41.74209269 18 42 C17.01 44.475 17.01 44.475 16 47 C13.36 47 10.72 47 8 47 C7.34 45.35 6.68 43.7 6 42 C4.68 42 3.36 42 2 42 C2 61.47 2 80.94 2 101 C23.78 101 45.56 101 68 101 C68.11634486 85.65920913 68.11634486 85.65920913 68.1953125 70.31835938 C68.21922352 64.06130404 68.24750957 57.80448286 68.30175781 51.54760742 C68.34522071 46.50311912 68.36913827 41.45888191 68.37950897 36.41422081 C68.38689952 34.48967219 68.40133154 32.5651373 68.42292023 30.64069557 C68.45196014 27.94481337 68.45595577 25.24996853 68.45410156 22.55395508 C68.46848267 21.75841721 68.48286377 20.96287933 68.49768066 20.14323425 C68.47041875 16.4798016 68.14831842 14.2426648 66.22161865 11.09037781 C62.50672849 7.59494265 59.96763696 6.74896963 54.89599609 6.75708008 C53.37454483 6.75246513 53.37454483 6.75246513 51.82235718 6.74775696 C50.73371368 6.75494247 49.64507019 6.76212799 48.5234375 6.76953125 C46.84104477 6.77021858 46.84104477 6.77021858 45.12466431 6.7709198 C42.75595032 6.77393909 40.38723827 6.78181573 38.01855469 6.79418945 C34.38209039 6.81246437 30.74588046 6.81469897 27.109375 6.81445312 C24.80989362 6.8193677 22.51041397 6.82519576 20.2109375 6.83203125 C19.11824554 6.83314407 18.02555359 6.8342569 16.89974976 6.83540344 C15.38775497 6.84497322 15.38775497 6.84497322 13.84521484 6.85473633 C12.51095963 6.86045403 12.51095963 6.86045403 11.14974976 6.86628723 C8.94912589 6.86259304 8.94912589 6.86259304 7 8 Z " fill="#080707" transform="translate(53,10)"/>
<path d="M0 0 C5.63604843 2.13305585 9.67935773 6.06934936 13 11 C13.8125 14.375 13.8125 14.375 14 17 C11.95943809 17.51014048 9.9474713 18.00926977 7.875 18.375 C5.61263271 18.91594861 5.61263271 18.91594861 4 22 C4.27034634 24.43717258 4.27034634 24.43717258 5 27 C5.33333333 28.66666667 5.66666667 30.33333333 6 32 C5.01 32.495 5.01 32.495 4 33 C4.66471086 37.18699684 4.66471086 37.18699684 5.625 41.3125 C5.74875 41.869375 5.8725 42.42625 6 43 C4.34605883 44.65394117 2.39684587 44.12999683 0.125 44.1328125 C-0.85984375 44.13410156 -1.8446875 44.13539062 -2.859375 44.13671875 C-3.89578125 44.13285156 -4.9321875 44.12898438 -6 44.125 C-7.55460937 44.13080078 -7.55460937 44.13080078 -9.140625 44.13671875 C-10.12546875 44.13542969 -11.1103125 44.13414063 -12.125 44.1328125 C-13.03507812 44.13168457 -13.94515625 44.13055664 -14.8828125 44.12939453 C-17 44 -17 44 -18 43 C-18.061875 41.989375 -18.12375 40.97875 -18.1875 39.9375 C-18.71027507 35.64011172 -20.91355829 33.05581937 -23.625 29.796875 C-26.92551414 25.48370311 -26.5295041 20.16458344 -26 15 C-24.13245597 8.23163979 -19.7963067 4.62582822 -14 1 C-9.7785068 -1.1107466 -4.58368307 -0.50610302 0 0 Z " fill="#F7CB62" transform="translate(45,10)"/>
<path d="M0 0 C21.45 0 42.9 0 65 0 C65 8.28571429 65 8.28571429 62 13 C58.96221922 15.79650185 56.9457564 16.38161634 52.85180664 16.41992188 C51.82716812 16.43583374 50.8025296 16.45174561 49.74684143 16.46813965 C48.64573532 16.46834106 47.54462921 16.46854248 46.41015625 16.46875 C45.27348007 16.47636353 44.13680389 16.48397705 42.96568298 16.49182129 C40.56251217 16.50262377 38.1592944 16.50547481 35.75610352 16.50097656 C32.07944443 16.50000448 28.40487326 16.54162327 24.72851562 16.5859375 C22.39323352 16.59114462 20.05794416 16.59383269 17.72265625 16.59375 C16.07403343 16.6183429 16.07403343 16.6183429 14.3921051 16.64343262 C6.75476709 16.57428562 6.75476709 16.57428562 2.82983398 13.58789062 C-0.98169604 8.19733448 0 8.40131759 0 0 Z " fill="#4C3B4B" transform="translate(56,114)"/>
<path d="M0 0 C1.98 0 3.96 0 6 0 C6.350625 0.969375 6.70125 1.93875 7.0625 2.9375 C8.75003667 6.39434602 8.75003667 6.39434602 12.6875 6.875 C13.780625 6.91625 14.87375 6.9575 16 7 C16.625 8.8125 16.625 8.8125 17 11 C16.01 12.485 16.01 12.485 15 14 C15.31956676 16.4926207 15.93566982 18.77484438 16.625 21.1875 C17 23 17 23 16 25 C13.93359375 25.4140625 13.93359375 25.4140625 11.4375 25.625 C10.61121094 25.69976562 9.78492187 25.77453125 8.93359375 25.8515625 C7.97646484 25.92503906 7.97646484 25.92503906 7 26 C6.67 27.65 6.34 29.3 6 31 C4.02 31 2.04 31 0 31 C0 29.68 0 28.36 0 27 C-3.3 26.34 -6.6 25.68 -10 25 C-10.33 23.35 -10.66 21.7 -11 20 C-10.34 19.34 -9.68 18.68 -9 18 C-8.66666667 15.5 -8.66666667 15.5 -9 13 C-9.66 12.34 -10.32 11.68 -11 11 C-10.75 8.9375 -10.75 8.9375 -10 7 C-8 6 -8 6 -5.5 6.0625 C-2.82346261 6.28293845 -2.82346261 6.28293845 -1 4 C-0.3574765 1.93125966 -0.3574765 1.93125966 0 0 Z " fill="#F04350" transform="translate(62,24)"/>
<path d="M0 0 C1.1653125 0.00515625 2.330625 0.0103125 3.53125 0.015625 C4.6965625 0.01046875 5.861875 0.0053125 7.0625 0 C10.03125 0.265625 10.03125 0.265625 12.03125 2.265625 C12.296875 5.234375 12.296875 5.234375 12.28125 8.765625 C12.28640625 9.9309375 12.2915625 11.09625 12.296875 12.296875 C12.03125 15.265625 12.03125 15.265625 10.03125 17.265625 C7.0625 17.53125 7.0625 17.53125 3.53125 17.515625 C2.3659375 17.52078125 1.200625 17.5259375 0 17.53125 C-2.96875 17.265625 -2.96875 17.265625 -4.96875 15.265625 C-5.234375 12.296875 -5.234375 12.296875 -5.21875 8.765625 C-5.22390625 7.6003125 -5.2290625 6.435 -5.234375 5.234375 C-4.86877441 1.1482508 -4.0861242 0.36560059 0 0 Z " fill="#132A23" transform="translate(93.96875,77.734375)"/>
<path d="M0 0 C1.1653125 0.00515625 2.330625 0.0103125 3.53125 0.015625 C4.6965625 0.01046875 5.861875 0.0053125 7.0625 0 C10.03125 0.265625 10.03125 0.265625 12.03125 2.265625 C12.296875 5.234375 12.296875 5.234375 12.28125 8.765625 C12.28640625 9.9309375 12.2915625 11.09625 12.296875 12.296875 C12.03125 15.265625 12.03125 15.265625 10.03125 17.265625 C7.0625 17.53125 7.0625 17.53125 3.53125 17.515625 C2.3659375 17.52078125 1.200625 17.5259375 0 17.53125 C-2.96875 17.265625 -2.96875 17.265625 -4.96875 15.265625 C-5.234375 12.296875 -5.234375 12.296875 -5.21875 8.765625 C-5.22390625 7.6003125 -5.2290625 6.435 -5.234375 5.234375 C-4.86877441 1.1482508 -4.0861242 0.36560059 0 0 Z " fill="#05080A" transform="translate(74.96875,58.734375)"/>
<path d="M0 0 C1.32 0 2.64 0 4 0 C5.73828125 2.01171875 5.73828125 2.01171875 7.3125 4.6875 C7.84488281 5.55761719 8.37726563 6.42773438 8.92578125 7.32421875 C10.16826272 10.41912713 10.0251033 11.86987174 9 15 C7.12756019 16.87243981 4.06340482 16.17380392 1.5625 16.1875 C0.38816406 16.20167969 -0.78617187 16.21585938 -1.99609375 16.23046875 C-5 16 -5 16 -7 14 C-6.66738735 10.11951912 -5.30080279 7.41363058 -3.1875 4.1875 C-2.68605469 3.39730469 -2.18460937 2.60710937 -1.66796875 1.79296875 C-0.84232422 0.90544922 -0.84232422 0.90544922 0 0 Z " fill="#22211E" transform="translate(77,79)"/>
<path d="M0 0 C2.875 1.5625 2.875 1.5625 5 4 C5.63734462 7.96569988 5.61999672 10.03280512 3.4375 13.4375 C0.05782196 15.60396028 -2.05983987 15.56288002 -6 15 C-8.4375 13.4375 -8.4375 13.4375 -10 11 C-10.56783945 7.02512383 -10.62340519 4.93510779 -8.375 1.5625 C-5.26456309 -0.48384007 -3.66322334 -0.59807728 0 0 Z " fill="#0C0B0B" transform="translate(100,60)"/>
<path d="M0 0 C0.66 0.99 1.32 1.98 2 3 C3.423125 2.938125 3.423125 2.938125 4.875 2.875 C8 3 8 3 10.4375 5.1875 C12 8 12 8 11.8125 10.5625 C11.544375 11.366875 11.27625 12.17125 11 13 C10.28552357 15.10332891 10.28552357 15.10332891 10 17 C10.66 17.66 11.32 18.32 12 19 C11.67582137 22.80909895 11.14418558 24.78372163 9 28 C7.0546875 28.29296875 7.0546875 28.29296875 4.875 28.1875 C3.59625 28.125625 2.3175 28.06375 1 28 C0.855625 28.804375 0.71125 29.60875 0.5625 30.4375 C0 33 0 33 -1 34 C-6.73611111 34.27314815 -6.73611111 34.27314815 -9 34 C-9.66 33.34 -10.32 32.68 -11 32 C-11 30.68 -11 29.36 -11 28 C-11.99 27.67 -12.98 27.34 -14 27 C-10.25 25.875 -10.25 25.875 -8 27 C-8 28.32 -8 29.64 -8 31 C-6.02 31 -4.04 31 -2 31 C-1.87625 30.195625 -1.7525 29.39125 -1.625 28.5625 C-1.41875 27.716875 -1.2125 26.87125 -1 26 C1.95664519 24.5216774 4.74229737 24.93967217 8 25 C8.16687448 22.58354218 8.16687448 22.58354218 8 20 C7.34 19.34 6.68 18.68 6 18 C6.37083833 14.5882874 7.10858176 11.31098205 8 8 C6.88625 7.87625 5.7725 7.7525 4.625 7.625 C1 7 1 7 -1 5 C-0.625 2.375 -0.625 2.375 0 0 Z " fill="#1E1112" transform="translate(70,24)"/>
<path d="M0 0 C3.20878901 3.90329402 3.94276458 7.12045189 5 12 C8.63 12 12.26 12 16 12 C16 13.33333333 16 14.66666667 16 16 C15.14535156 16.06058594 14.29070312 16.12117188 13.41015625 16.18359375 C11.75306641 16.30927734 11.75306641 16.30927734 10.0625 16.4375 C8.96035156 16.51871094 7.85820313 16.59992188 6.72265625 16.68359375 C4.08890097 16.70418084 4.08890097 16.70418084 3 18 C2.71599669 21.10149646 2.5512529 24.20292646 2.37890625 27.3125 C2.19134766 28.6428125 2.19134766 28.6428125 2 30 C1.34 30.33 0.68 30.66 0 31 C-0.433125 29.948125 -0.86625 28.89625 -1.3125 27.8125 C-2.31565232 25.45270359 -3.35943495 23.40094175 -4.6875 21.1875 C-6 19 -6 19 -6 17 C-8.6739124 16.10869587 -11.23723823 15.52268466 -14 15 C-14 14.67 -14 14.34 -14 14 C-13.14535156 13.93941406 -12.29070312 13.87882812 -11.41015625 13.81640625 C-10.30542969 13.73261719 -9.20070313 13.64882812 -8.0625 13.5625 C-6.96035156 13.48128906 -5.85820313 13.40007812 -4.72265625 13.31640625 C-2.08890097 13.29581916 -2.08890097 13.29581916 -1 12 C-0.76572222 9.98405418 -0.58663876 7.961526 -0.4375 5.9375 C-0.35371094 4.83277344 -0.26992187 3.72804688 -0.18359375 2.58984375 C-0.12300781 1.73519531 -0.06242187 0.88054688 0 0 Z " fill="#D5D8DA" transform="translate(87,62)"/>
<path d="M0 0 C3.625 0.3125 3.625 0.3125 6.0625 1.375 C7.625 3.3125 7.625 3.3125 8.1875 6.75 C7.625 10.3125 7.625 10.3125 5.4375 12.75 C2.37256952 14.45273915 1.04197468 15.10103262 -2.375 14.3125 C-4.75 12.25 -4.75 12.25 -6.375 9.3125 C-6.18891 3.82284497 -6.00104639 0.55565244 0 0 Z " fill="#170B0C" transform="translate(64.375,32.6875)"/>
<path d="M0 0 C3.63 0 7.26 0 11 0 C11 3.96 11 7.92 11 12 C7.37 12 3.74 12 0 12 C0 8.04 0 4.08 0 0 Z " fill="#00D991" transform="translate(92,81)"/>
<path d="M0 0 C3.63 0 7.26 0 11 0 C11 3.96 11 7.92 11 12 C7.37 12 3.74 12 0 12 C0 8.04 0 4.08 0 0 Z " fill="#5BAEF2" transform="translate(73,62)"/>
<path d="M0 0 C0.87454834 0.00523682 1.74909668 0.01047363 2.65014648 0.01586914 C3.59438477 0.0190918 4.53862305 0.02231445 5.51147461 0.02563477 C6.50469727 0.03401367 7.49791992 0.04239258 8.52124023 0.05102539 C9.51833008 0.05553711 10.51541992 0.06004883 11.54272461 0.06469727 C14.01478872 0.07652532 16.48673541 0.0930069 18.95874023 0.11352539 C19.52124023 2.05102539 19.52124023 2.05102539 19.95874023 4.11352539 C18.95874023 5.11352539 18.95874023 5.11352539 16.91748047 5.22705078 C16.04293213 5.22181396 15.16838379 5.21657715 14.26733398 5.21118164 C13.3230957 5.20795898 12.37885742 5.20473633 11.40600586 5.20141602 C10.4127832 5.19303711 9.41956055 5.1846582 8.39624023 5.17602539 C7.39915039 5.17151367 6.40206055 5.16700195 5.37475586 5.16235352 C2.90269175 5.15052546 0.43074506 5.13404388 -2.04125977 5.11352539 C-2.60375977 3.17602539 -2.60375977 3.17602539 -3.04125977 1.11352539 C-2.04125977 0.11352539 -2.04125977 0.11352539 0 0 Z " fill="#000000" transform="translate(31.041259765625,57.886474609375)"/>
<path d="M0 0 C0.99 0.99 1.98 1.98 3 3 C1.875 4.5 1.875 4.5 0 6 C-3.1875 6.1875 -3.1875 6.1875 -6 6 C-6.6814823 7.89179203 -6.6814823 7.89179203 -7 10 C-6.34 10.66 -5.68 11.32 -5 12 C-4.75 14.5 -4.75 14.5 -5 17 C-5.66 17.66 -6.32 18.32 -7 19 C-7.40047444 21.32275177 -7.7397104 23.65739357 -8 26 C-9.5625 24.3125 -9.5625 24.3125 -11 22 C-10.6875 19.25 -10.6875 19.25 -10 17 C-9.34 17 -8.68 17 -8 17 C-8.309375 16.278125 -8.61875 15.55625 -8.9375 14.8125 C-10.86440678 9.71186441 -10.86440678 9.71186441 -11 7 C-9.4375 4.1875 -9.4375 4.1875 -7 2 C-3.75 1.6875 -3.75 1.6875 -1 2 C-0.67 1.34 -0.34 0.68 0 0 Z " fill="#181009" transform="translate(59,25)"/>
<path d="M0 0 C7.59 0 15.18 0 23 0 C22.67 1.32 22.34 2.64 22 4 C14.74 4 7.48 4 0 4 C0 2.68 0 1.36 0 0 Z " fill="#000000" transform="translate(28,64)"/>
<path d="M0 0 C2.5 0.25 2.5 0.25 4.5 2.25 C4.6875 5.3125 4.6875 5.3125 4.5 8.25 C3.5 9.25 3.5 9.25 0 9.375 C-3.5 9.25 -3.5 9.25 -4.5 8.25 C-4.6875 5.3125 -4.6875 5.3125 -4.5 2.25 C-2.5 0.25 -2.5 0.25 0 0 Z " fill="#F34451" transform="translate(97.5,62.75)"/>
<path d="M0 0 C3.48331435 3.01887244 4.79157144 5.56909529 6 10 C2.37 10 -1.26 10 -5 10 C-3.51799926 6.29499816 -2.091496 3.32738 0 0 Z " fill="#E8C05D" transform="translate(78,82)"/>
<path d="M0 0 C0 1.32 0 2.64 0 4 C1.98 4 3.96 4 6 4 C6.33 2.35 6.66 0.7 7 -1 C9.97 -0.505 9.97 -0.505 13 0 C11.68 0.33 10.36 0.66 9 1 C8.855625 1.804375 8.71125 2.60875 8.5625 3.4375 C8 6 8 6 7 7 C1.26388889 7.27314815 1.26388889 7.27314815 -1 7 C-1.66 6.34 -2.32 5.68 -3 5 C-3 3.68 -3 2.36 -3 1 C-3.99 0.67 -4.98 0.34 -6 0 C-3 -1 -3 -1 0 0 Z " fill="#2D2324" transform="translate(62,51)"/>
<path d="M0 0 C4.95 0 9.9 0 15 0 C15 1.32 15 2.64 15 4 C10.05 4 5.1 4 0 4 C0 2.68 0 1.36 0 0 Z " fill="#000000" transform="translate(32,69)"/>
<path d="M0 0 C1.77503906 0.03480469 1.77503906 0.03480469 3.5859375 0.0703125 C5.36871094 0.09738281 5.36871094 0.09738281 7.1875 0.125 C8.10273437 0.14820313 9.01796875 0.17140625 9.9609375 0.1953125 C10.6209375 1.5153125 11.2809375 2.8353125 11.9609375 4.1953125 C11.3009375 4.1953125 10.6409375 4.1953125 9.9609375 4.1953125 C9.9609375 7.4953125 9.9609375 10.7953125 9.9609375 14.1953125 C9.6309375 14.1953125 9.3009375 14.1953125 8.9609375 14.1953125 C8.9609375 10.5653125 8.9609375 6.9353125 8.9609375 3.1953125 C7.3521875 3.1953125 5.7434375 3.1953125 4.0859375 3.1953125 C1.7109375 3.1953125 -0.6640625 3.1953125 -3.0390625 3.1953125 C-3.3690625 7.1553125 -3.6990625 11.1153125 -4.0390625 15.1953125 C-4.3690625 15.1953125 -4.6990625 15.1953125 -5.0390625 15.1953125 C-5.09292879 13.07058674 -5.13179321 10.94547598 -5.1640625 8.8203125 C-5.18726562 7.63695313 -5.21046875 6.45359375 -5.234375 5.234375 C-4.96496418 1.04234259 -4.19203241 0.26941082 0 0 Z " fill="#2B353D" transform="translate(75.0390625,58.8046875)"/>
<path d="M0 0 C3 0.125 3 0.125 4 1.125 C4.1875 3.5625 4.1875 3.5625 4 6.125 C3.34 6.785 2.68 7.445 2 8.125 C-2.55555556 7.56944444 -2.55555556 7.56944444 -4 6.125 C-4.125 3.625 -4.125 3.625 -4 1.125 C-3 0.125 -3 0.125 0 0 Z " fill="#E1E4E6" transform="translate(65,35.875)"/>
<path d="M0 0 C0.33 0 0.66 0 1 0 C1.33 3.63 1.66 7.26 2 11 C5.63 11 9.26 11 13 11 C13.33 7.7 13.66 4.4 14 1 C14.33 1 14.66 1 15 1 C15.02686553 2.97909398 15.04633375 4.95828971 15.0625 6.9375 C15.07410156 8.03964844 15.08570312 9.14179687 15.09765625 10.27734375 C15 13 15 13 14 14 C11.83519203 14.0989294 9.66706215 14.129711 7.5 14.125 C6.3140625 14.12757812 5.128125 14.13015625 3.90625 14.1328125 C1 14 1 14 0 13 C-0.07258946 10.81360547 -0.08373783 8.62499611 -0.0625 6.4375 C-0.05347656 5.23996094 -0.04445313 4.04242188 -0.03515625 2.80859375 C-0.02355469 1.88175781 -0.01195313 0.95492187 0 0 Z " fill="#030303" transform="translate(90,81)"/>
<path d="M0 0 C0 0.33 0 0.66 0 1 C-1.65 1.33 -3.3 1.66 -5 2 C-5.33 4.97 -5.66 7.94 -6 11 C-3.03 11.495 -3.03 11.495 0 12 C0 12.33 0 12.66 0 13 C-1.65 13 -3.3 13 -5 13 C-5.33 13.66 -5.66 14.32 -6 15 C-9.09107447 12.58509807 -9.93483001 11.45618991 -10.5 7.5 C-10 4 -10 4 -8.375 1.5625 C-5.397402 -0.39644605 -3.49644963 -0.31785906 0 0 Z " fill="#2D1113" transform="translate(100,60)"/>
<path d="M0 0 C1.32 0 2.64 0 4 0 C5.703125 2.1171875 5.703125 2.1171875 7.25 4.875 C7.77078125 5.77992187 8.2915625 6.68484375 8.828125 7.6171875 C10 10 10 10 10 12 C9.01 12.33 8.02 12.66 7 13 C5.35 10.03 3.7 7.06 2 4 C1.01 4.33 0.02 4.66 -1 5 C-0.67 3.35 -0.34 1.7 0 0 Z " fill="#211F19" transform="translate(77,79)"/>
<path d="M0 0 C0 0.66 0 1.32 0 2 C-1.97321053 3.3726682 -3.97543152 4.70427617 -6 6 C-8.22189824 8.22189824 -8.92598892 10.08482708 -10 13 C-10.66 13 -11.32 13 -12 13 C-11.9308105 9.54052509 -11.77047462 6.93470737 -9.515625 4.19921875 C-4.82532816 0 -4.82532816 0 0 0 Z " fill="#211B0D" transform="translate(37,16)"/>
<path d="M0 0 C4.62 0 9.24 0 14 0 C14 0.99 14 1.98 14 3 C9.38 3 4.76 3 0 3 C0 2.01 0 1.02 0 0 Z " fill="#0B090B" transform="translate(81,120)"/>
<path d="M0 0 C0.33 0 0.66 0 1 0 C1.3125 3.25 1.3125 3.25 1 7 C-1.550946 9.84248268 -2.9896147 10.91018797 -6.8125 11.25 C-7.534375 11.1675 -8.25625 11.085 -9 11 C-7 8 -7 8 -5 7.0625 C-2.51551837 5.74261913 -2.0407221 4.56177749 -1 2 C-0.67 1.34 -0.34 0.68 0 0 Z " fill="#2F1A1C" transform="translate(71,36)"/>
<path d="M0 0 C6.48292295 -0.3669579 6.48292295 -0.3669579 8.9375 1.375 C10 3 10 3 10 5 C9.34 5 8.68 5 8 5 C7.67 6.32 7.34 7.64 7 9 C6.34 7.02 5.68 5.04 5 3 C2.03 2.505 2.03 2.505 -1 2 C-0.67 1.34 -0.34 0.68 0 0 Z " fill="#231011" transform="translate(95,61)"/>
<path d="M0 0 C0.625 1.8125 0.625 1.8125 1 4 C0.01 5.485 0.01 5.485 -1 7 C-3.3431213 6.74438677 -5.67843403 6.40729228 -8 6 C-8.33 5.34 -8.66 4.68 -9 4 C-6.69 4 -4.38 4 -2 4 C-2 3.34 -2 2.68 -2 2 C-1.34 2 -0.68 2 0 2 C0 1.34 0 0.68 0 0 Z " fill="#170B0C" transform="translate(80,45)"/>
<path d="M0 0 C1.3049427 4.05982172 0.73256315 6.44868981 -1.0625 10.25 C-1.371875 10.8275 -1.68125 11.405 -2 12 C-3.51754003 9.58978936 -4.02316906 8.31664378 -3.8125 5.4375 C-2.95027053 2.85081159 -2.07804617 1.71664683 0 0 Z " fill="#1A1009" transform="translate(52,39)"/>
<path d="M0 0 C0.144375 0.639375 0.28875 1.27875 0.4375 1.9375 C0.80104993 4.20311706 0.80104993 4.20311706 3.0625 5.25 C3.701875 5.4975 4.34125 5.745 5 6 C2.69 6 0.38 6 -2 6 C-2.33 4.35 -2.66 2.7 -3 1 C-3.99 0.67 -4.98 0.34 -6 0 C-3 -1 -3 -1 0 0 Z " fill="#221C1D" transform="translate(62,51)"/>
<path d="M0 0 C3.4557601 1.15192003 4.19828537 1.91134634 6 5 C6.1875 7.75 6.1875 7.75 6 10 C3 9 3 9 1.3125 6.6875 C0 4 0 4 0 0 Z " fill="#2D1410" transform="translate(48,32)"/>
<path d="M0 0 C6.875 0.875 6.875 0.875 8 2 C8.04080783 3.99958364 8.04254356 6.00045254 8 8 C7.443125 7.195625 6.88625 6.39125 6.3125 5.5625 C3.78135513 2.75771784 2.67420866 2.30618405 -1 2 C-0.67 1.34 -0.34 0.68 0 0 Z " fill="#0C0506" transform="translate(63,33)"/>
<path d="M0 0 C1.32 0 2.64 0 4 0 C4.33 1.65 4.66 3.3 5 5 C4.38125 4.814375 3.7625 4.62875 3.125 4.4375 C0.95839822 3.76313824 0.95839822 3.76313824 -1 5 C-0.67 3.35 -0.34 1.7 0 0 Z " fill="#181611" transform="translate(77,79)"/>
<path d="M0 0 C0 0.33 0 0.66 0 1 C-1.65 1.33 -3.3 1.66 -5 2 C-5.33 2.99 -5.66 3.98 -6 5 C-6.66 5 -7.32 5 -8 5 C-8.33 6.98 -8.66 8.96 -9 11 C-9.33 11 -9.66 11 -10 11 C-10.48275862 4.72413793 -10.48275862 4.72413793 -8.375 1.5625 C-5.397402 -0.39644605 -3.49644963 -0.31785906 0 0 Z " fill="#2F2C2C" transform="translate(100,60)"/>
<path d="M0 0 C0.66 0.99 1.32 1.98 2 3 C3.96752828 4.06246527 5.96587579 5.07137808 8 6 C8 6.33 8 6.66 8 7 C4.625 7.125 4.625 7.125 1 7 C0.34 6.34 -0.32 5.68 -1 5 C-0.625 2.375 -0.625 2.375 0 0 Z " fill="#3C1A1D" transform="translate(70,24)"/>
<path d="M0 0 C1.98 0.66 3.96 1.32 6 2 C6 2.33 6 2.66 6 3 C5.21625 3.0825 4.4325 3.165 3.625 3.25 C0.85250896 3.72806339 0.85250896 3.72806339 -0.3125 6.0625 C-0.539375 6.701875 -0.76625 7.34125 -1 8 C-1.625 5.125 -1.625 5.125 -2 2 C-1.34 1.34 -0.68 0.68 0 0 Z " fill="#362729" transform="translate(61,33)"/>
<path d="M0 0 C0.99 0.99 1.98 1.98 3 3 C1.8125 4.5 1.8125 4.5 0 6 C-2.6875 6.1875 -2.6875 6.1875 -5 6 C-3.35 4.02 -1.7 2.04 0 0 Z " fill="#301210" transform="translate(59,25)"/>
</svg>
