<?xml version="1.0" encoding="UTF-8"?>
<svg version="1.1" xmlns="http://www.w3.org/2000/svg" width="35" height="35">
<path d="M0 0 C2.78878842 1.69752338 4.46124636 2.98983693 6 5.875 C6 8 6 8 4.4375 11 C2.6839976 13.79331036 2.6839976 13.79331036 3.625 16.0625 C4.63557997 17.48649904 5.65819769 18.90197461 6.6875 20.3125 C8.49140945 24.00621934 8.15584272 26.09903082 7 30 C4.31851774 32.30905417 2.71136356 32.95257576 -0.8125 33.1875 C-1.534375 33.125625 -2.25625 33.06375 -3 33 C-3 31.35 -3 29.7 -3 28 C-1.35 27.67 0.3 27.34 2 27 C0.12297673 22.10437307 0.12297673 22.10437307 -3 18 C-3.55085162 13.15250576 -2.39332242 10.18831424 0 6 C-1.66611905 5.957279 -3.33382885 5.95936168 -5 6 C-6.74506615 7.74506615 -6.23282784 10.19039143 -6.31640625 12.56640625 C-6.35830078 13.69111328 -6.40019531 14.81582031 -6.44335938 15.97460938 C-6.48267578 17.15861328 -6.52199219 18.34261719 -6.5625 19.5625 C-6.60568359 20.75037109 -6.64886719 21.93824219 -6.69335938 23.16210938 C-6.79983546 26.10794784 -6.90184841 29.0538743 -7 32 C-8.65614657 32.38218767 -10.32457024 32.71395102 -12 33 C-14.58058363 30.41941637 -13.23460363 23.21803264 -13.25 19.75 C-13.270625 18.60402344 -13.29125 17.45804688 -13.3125 16.27734375 C-13.31765625 15.17003906 -13.3228125 14.06273437 -13.328125 12.921875 C-13.3374707 11.90706055 -13.34681641 10.89224609 -13.35644531 9.84667969 C-12.93938421 6.51590402 -11.98598284 4.68637046 -10 2 C-6.2626144 -0.4915904 -4.42668417 -0.45793285 0 0 Z " fill="#F4F4F4" transform="translate(21,1)"/>
</svg>
