<svg version="1.1" xmlns="http://www.w3.org/2000/svg" width="160" height="82" viewBox="0 0 1024 522"><path d="M0 0 C3.3484289 0.01707345 6.69614075 0.00691672 10.04454517 -0.01032925 C43.08704192 -0.15407073 76.04502904 3.19090625 107.5847168 13.39111328 C108.31271484 13.62556152 109.04071289 13.86000977 109.79077148 14.1015625 C130.37385541 20.88756295 151.04418537 32.63884156 162.07299805 52.00439453 C169.1474861 66.42466368 171.37936814 83.95612448 166.8972168 99.51611328 C158.16581359 123.47460029 137.75786917 137.67301491 115.5847168 148.39111328 C92.06533456 159.29378343 66.20400556 165.84101465 40.5847168 169.39111328 C41.6550415 169.48610107 42.72536621 169.58108887 43.828125 169.67895508 C129.94213128 177.40942985 129.94213128 177.40942985 150.5847168 198.39111328 C158.36279032 208.18510219 159.19687352 218.42735371 158.1159668 230.56298828 C155.9095243 246.46235336 149.18947452 260.42626581 138.5847168 272.39111328 C137.84995117 273.24576172 137.11518555 274.10041016 136.3581543 274.98095703 C108.13827309 307.22532301 66.07378994 321.27763906 24.27612305 324.10986328 C-23.37671027 326.70956323 -73.43735323 322.54081955 -111.4152832 291.39111328 C-115.38402983 293.08923225 -118.52837959 295.76245124 -121.8527832 298.45361328 C-137.71020364 311.04067346 -156.95517645 326.12176705 -178.4152832 324.39111328 C-188.2205981 323.2222678 -197.10676717 319.7825084 -203.88793945 312.39501953 C-206.71749071 308.68259038 -208.76677315 304.74950287 -210.4152832 300.39111328 C-210.67567383 299.72120361 -210.93606445 299.05129395 -211.2043457 298.36108398 C-214.46396962 288.5618396 -213.96546189 278.28387549 -213.9152832 268.07861328 C-213.91285614 267.09113098 -213.91042908 266.10364868 -213.90792847 265.08624268 C-213.83851989 250.57469332 -213.08777171 237.2274746 -208.4152832 223.39111328 C-207.73025783 221.21927914 -207.04537084 219.04740134 -206.3605957 216.87548828 C-199.52731353 195.78791335 -190.75104283 171.96131069 -171.2277832 159.32861328 C-167.91165216 158.22323627 -165.87360575 157.7288813 -162.4152832 158.39111328 C-154.76205711 165.51039337 -153.24632922 176.47403557 -150.6652832 186.20361328 C-147.5170526 197.85029527 -144.08314717 209.25478372 -139.4152832 220.39111328 C-139.08979492 221.17099609 -138.76430664 221.95087891 -138.42895508 222.75439453 C-130.99668759 240.21387679 -120.65842127 254.86121435 -107.4152832 268.39111328 C-102.22252347 264.04133402 -97.32683055 259.49534711 -92.5402832 254.70361328 C-91.83629395 253.99954346 -91.13230469 253.29547363 -90.40698242 252.57006836 C-85.78243383 247.89484709 -81.53191944 243.11513112 -77.4699707 237.94189453 C-75.31175885 235.2625935 -73.01939819 232.77441152 -70.6652832 230.26611328 C-64.61032676 223.68463888 -59.31220808 216.56018511 -53.9465332 209.41455078 C-52.58921567 207.62095262 -51.21383534 205.84509662 -49.8215332 204.07861328 C-42.55556296 194.83101479 -35.97792205 185.14525724 -29.4152832 175.39111328 C-30.46586914 175.36533203 -31.51645508 175.33955078 -32.59887695 175.31298828 C-49.67452635 174.70089224 -49.67452635 174.70089224 -56.4777832 168.51611328 C-57.78065151 165.56294512 -57.88089398 163.5838729 -57.4152832 160.39111328 C-55.32341873 157.65938438 -54.1752185 156.51186102 -50.7355957 155.96533203 C-49.68114258 156.00271484 -48.62668945 156.04009766 -47.5402832 156.07861328 C-46.30793945 156.09021484 -45.0755957 156.10181641 -43.8059082 156.11376953 C-40.48645179 156.25091794 -37.29997835 156.71382683 -34.0246582 157.26220703 C-24.3505496 158.96689753 -24.3505496 158.96689753 -15.43432617 155.97802734 C-11.63948297 151.85060725 -9.1634208 146.98177204 -6.71118164 141.97705078 C-5.46020061 139.480745 -4.0977795 137.11637677 -2.6418457 134.73486328 C2.43971482 126.40610926 6.88189168 117.84918337 11.1472168 109.07861328 C15.51506232 100.1578767 20.27224654 92.06746335 26.5847168 84.39111328 C27.02283691 83.85808594 27.46095703 83.32505859 27.91235352 82.77587891 C36.38750039 72.65575394 47.28671033 61.72604005 60.9597168 59.95361328 C64.01147783 60.46224012 64.69521089 61.01451095 66.5847168 63.39111328 C68.65233997 70.297256 65.54816542 76.6298199 62.40673828 82.66357422 C53.6867594 98.64376744 43.24391038 113.66044053 32.5847168 128.39111328 C31.46593119 129.94558777 30.34745004 131.50028142 29.22924805 133.05517578 C23.37445618 141.18645836 17.48761348 149.29469305 11.5847168 157.39111328 C34.14663231 156.9946579 57.24071356 152.62241492 78.5847168 145.39111328 C79.46450195 145.09333984 80.34428711 144.79556641 81.25073242 144.48876953 C102.59151604 137.11510809 123.41593453 127.40362869 135.5847168 107.39111328 C141.36406229 95.0719821 144.48217088 80.7207296 139.9597168 67.45361328 C137.76680385 62.32403718 134.97850362 57.80779379 131.5847168 53.39111328 C131.03299805 52.66279297 130.4812793 51.93447266 129.9128418 51.18408203 C111.66735974 28.92303447 80.85994112 19.72419055 53.5847168 15.39111328 C52.88926758 15.27396973 52.19381836 15.15682617 51.47729492 15.03613281 C-8.56960279 5.3311467 -81.93122861 19.27516357 -131.7902832 54.64111328 C-135.92748874 57.8536905 -139.82283869 61.33492676 -143.63793945 64.92236328 C-145.4152832 66.39111328 -145.4152832 66.39111328 -147.4152832 66.39111328 C-147.67438477 66.96345703 -147.93348633 67.53580078 -148.20043945 68.12548828 C-149.51686323 70.58055512 -151.06709476 72.50596753 -152.8527832 74.64111328 C-158.45017718 81.78622743 -160.82334558 89.23521376 -160.4152832 98.39111328 C-158.21126871 107.84082541 -153.04137919 113.87018017 -145.0402832 119.01611328 C-143.17026731 120.14937873 -141.29541119 121.27470442 -139.4152832 122.39111328 C-137.85037079 123.36641976 -136.28755125 124.34510057 -134.7277832 125.32861328 C-133.6346582 126.00923828 -132.5415332 126.68986328 -131.4152832 127.39111328 C-131.7452832 129.04111328 -132.0752832 130.69111328 -132.4152832 132.39111328 C-152.20442722 132.94479918 -165.77330238 129.93476807 -181.26293945 117.01611328 C-188.19033383 110.35471234 -193.74149136 102.93316202 -194.7512207 93.12939453 C-194.88991303 80.96607705 -191.84720708 71.98718654 -184.4152832 62.39111328 C-183.81329102 61.61251953 -183.21129883 60.83392578 -182.59106445 60.03173828 C-172.59917315 48.07953307 -159.07042453 39.58201365 -145.4152832 32.39111328 C-144.82908203 32.07223145 -144.24288086 31.75334961 -143.63891602 31.42480469 C-100.11096806 7.78158849 -48.95812883 -0.25156075 0 0 Z M-14.4152832 190.39111328 C-15.95763625 192.34468938 -17.51739378 194.28479779 -19.1027832 196.20361328 C-20.20299805 197.55326172 -20.20299805 197.55326172 -21.32543945 198.93017578 C-23.66350531 201.68341221 -26.13911523 204.20859167 -28.7355957 206.71533203 C-30.55906214 208.53455784 -32.23546599 210.43879239 -33.9152832 212.39111328 C-36.67442185 215.59368492 -39.57384788 218.57586947 -42.59082031 221.53393555 C-44.26843551 223.24163243 -45.81316286 224.9963526 -47.35668945 226.82470703 C-52.05225919 232.22318406 -57.11870114 237.24429364 -62.18505859 242.29125977 C-63.84954598 243.95038648 -65.50861767 245.6147938 -67.16723633 247.27978516 C-72.23171306 252.34710032 -77.32932719 257.32042972 -82.78125 261.9753418 C-85.00345877 263.90072483 -87.05499737 265.97026446 -89.1027832 268.07861328 C-92.06291868 271.0797195 -95.02144069 273.87310109 -98.4152832 276.39111328 C-97.09441032 280.35373192 -94.58176499 281.77744202 -91.2902832 284.07861328 C-90.66500732 284.51778076 -90.03973145 284.95694824 -89.39550781 285.40942383 C-54.92227172 309.12560231 -7.24191435 313.93790015 33.31567383 306.91845703 C58.6146029 301.93889745 81.82454544 292.11322212 101.5847168 275.39111328 C102.10259766 274.95686035 102.62047852 274.52260742 103.15405273 274.07519531 C116.40671649 262.85919633 127.89454789 248.88866201 129.83862305 231.06298828 C130.23005156 223.03239042 128.06398974 215.25345953 123.2097168 208.76611328 C97.55610547 181.95808944 48.76398335 178.62434561 14.20507812 177.65649414 C12.74703551 177.60447361 11.28964232 177.52916471 9.83398438 177.4309082 C-2.54465717 176.61603071 -7.66256766 180.05630064 -14.4152832 190.39111328 Z M-177.1027832 210.89111328 C-191.29486517 228.26001165 -196.86103121 258.70489315 -195.4152832 280.39111328 C-194.117588 289.6371916 -191.774829 297.24954478 -184.9152832 303.76611328 C-178.32807994 308.0477954 -172.08621899 308.08218858 -164.4152832 307.39111328 C-160.21988893 306.45880344 -156.37174694 305.05754437 -152.4152832 303.39111328 C-151.47297852 303.00181641 -150.53067383 302.61251953 -149.55981445 302.21142578 C-138.96470772 297.37857008 -128.40873228 289.91474011 -120.4152832 281.39111328 C-121.05594727 280.83423828 -121.69661133 280.27736328 -122.35668945 279.70361328 C-127.13159962 275.49087585 -131.63126783 271.26404577 -135.72387695 266.38330078 C-136.84449618 265.06340284 -138.00391948 263.77542807 -139.20043945 262.52392578 C-150.74889645 250.33520525 -158.95158462 235.30728684 -166.4152832 220.39111328 C-167.04394689 219.14750105 -167.67284297 217.90400626 -168.30200195 216.66064453 C-169.68540645 213.90995914 -171.05753626 211.15452766 -172.4152832 208.39111328 C-174.78297291 208.16407863 -174.78297291 208.16407863 -177.1027832 210.89111328 Z " fill="#FFFFFF" transform="translate(259.415283203125,45.60888671875)" /><path d="M0 0 C0.77978516 2.03930664 0.77978516 2.03930664 1 5 C-0.3849702 7.6527332 -1.77752047 9.93375515 -3.4765625 12.37109375 C-3.95353073 13.08145279 -4.43049896 13.79181183 -4.92192078 14.5236969 C-5.94574565 16.04613596 -6.97604077 17.56423993 -8.01211548 19.07836914 C-10.71336544 23.02942829 -13.3636184 27.01448179 -16.01953125 30.99609375 C-16.54389267 31.77963226 -17.06825409 32.56317078 -17.60850525 33.37045288 C-23.82054749 42.67702233 -29.53861208 52.23419697 -35 62 C-35.45117188 62.79680176 -35.90234375 63.59360352 -36.3671875 64.41455078 C-41.41410392 73.38340262 -45.79403345 82.45630066 -49.5 92.0625 C-49.82653564 92.9069165 -50.15307129 93.75133301 -50.48950195 94.62133789 C-53.3834304 102.43841279 -55.67209235 110.59884568 -55 119 C-54.37408391 120.35294171 -53.71383061 121.69131055 -53 123 C-27.74978189 120.81855567 -5.54842313 100.54701855 12 84 C12.78375 83.27039063 13.5675 82.54078125 14.375 81.7890625 C19.41735284 76.94480209 23.70461606 71.69858392 27.96923828 66.17944336 C38.3159352 52.79013776 38.3159352 52.79013776 41.96484375 51.078125 C44.78995563 49.58152063 46.18102379 47.52501707 48.125 45 C66.68183962 21.8790186 95.04529516 0.95910064 125 -3 C140.06211356 -3.95495747 154.03703636 -2.47278045 167 6 C170.05839321 9.22773377 170.95373462 10.29445299 171.25 14.8125 C171.1675 15.864375 171.085 16.91625 171 18 C168.9375 18.875 168.9375 18.875 166 19 C164.390625 17.8359375 164.390625 17.8359375 162.6875 16.25 C155.49968503 9.68787593 147.81304873 9.25502272 138.4453125 9.59375 C116.01248358 11.14686667 96.40317942 28.02767874 81 43 C80.25363281 43.72058594 79.50726562 44.44117188 78.73828125 45.18359375 C63.31976688 61.17210865 46.53745991 86.46720733 45.625 109.3125 C45.76480416 113.49996734 46.61789557 116.4709564 49 120 C52.13796573 122.09197715 53.35916696 122.39727251 57 121.70703125 C68.93025177 117.48950084 80.16696264 102.38965372 87.76953125 92.79296875 C89.77108653 90.28664296 91.83323164 87.84664585 93.92895508 85.41894531 C107.72331605 69.40220008 120.67773493 51.99259288 131.18359375 33.63671875 C133.84065018 29.77970135 136.5532534 27.48224887 141 26 C146.9646672 25.60235552 150.72430277 26.15112349 156 29 C158.34361585 32.51542378 158.40224702 33.86196002 158 38 C156.79760742 40.65869141 156.79760742 40.65869141 155.10546875 43.3515625 C154.17432251 44.86109497 154.17432251 44.86109497 153.22436523 46.40112305 C152.55219971 47.46500244 151.88003418 48.52888184 151.1875 49.625 C149.80457491 51.87202816 148.42439619 54.12074872 147.046875 56.37109375 C146.36044922 57.4885498 145.67402344 58.60600586 144.96679688 59.75732422 C133.38969124 78.84460289 121.9306939 99.19799944 121 122 C139.53880335 121.68036546 156.74148314 105.66713409 169 93 C171.33274407 89.62797043 172.94014571 86.01004285 174.59960938 82.27758789 C178.82818085 72.8244148 183.92023303 64.36856072 190 56 C190.63421875 55.12085938 191.2684375 54.24171875 191.921875 53.3359375 C201.18414344 41.18415796 212.55523131 30.79257776 225 22 C225.58362305 21.58266602 226.16724609 21.16533203 226.76855469 20.73535156 C248.9500494 4.99018525 273.84152452 -6.15571743 301.55859375 -2.53515625 C309.5784071 -0.90808728 319.04939912 1.82945132 324.82421875 7.92578125 C326.754121 11.33035965 326.19260277 14.14794465 326 18 C324 18.875 324 18.875 321 19 C318.91940445 17.70289231 317.11404155 16.24055464 315.2578125 14.640625 C307.53891681 9.03173886 299.10551211 9.10007442 290 10 C258.46955291 15.45521337 231.29844345 41.23729419 213 66 C212.52884766 66.63744141 212.05769531 67.27488281 211.57226562 67.93164062 C201.79326148 81.31273361 189.23258379 98.62040727 191 116 C191.93849513 118.98341617 191.93849513 118.98341617 194 121 C197.34509093 121.95174135 199.27158639 122.29069202 202.53515625 120.98828125 C210.45986373 115.7337225 217.2265323 109.62840167 224 103 C224.63583008 102.37931641 225.27166016 101.75863281 225.92675781 101.11914062 C235.47085617 91.78456882 235.47085617 91.78456882 244.40625 81.875 C246.34325871 79.59616622 248.35905625 77.39675343 250.375 75.1875 C254.63919131 70.45668843 258.68846482 65.58089181 262.68554688 60.62353516 C264.1629702 58.79870879 265.65126769 56.98306697 267.140625 55.16796875 C272.96152777 48.05978373 278.65396292 40.92922373 284 33.453125 C286.8364951 29.97398648 289.19092745 27.33010376 293.71875 26.50390625 C303.1964345 26.70357657 303.1964345 26.70357657 307 30 C308.93847679 33.87695357 308.40103825 37.58142787 307.25854492 41.62271118 C306.17619189 44.76787968 305.02400723 47.87852309 303.84375 50.98828125 C303.21116272 52.69760078 303.21116272 52.69760078 302.5657959 54.44145203 C301.22116976 58.069197 299.86128658 61.69097761 298.5 65.3125 C297.1415519 68.95286259 295.78629592 72.59437825 294.4342041 76.23710632 C293.59274966 78.50126299 292.74707151 80.76385516 291.89685059 83.0247345 C291.5164563 84.0430687 291.13606201 85.06140289 290.74414062 86.1105957 C290.40660767 87.00881546 290.06907471 87.90703522 289.72131348 88.83247375 C288.89474773 90.93554745 288.89474773 90.93554745 289 93 C289.76183594 92.6390625 290.52367187 92.278125 291.30859375 91.90625 C297.91599987 88.93662927 302.76032531 87.39669378 310 88 C311.0546875 89.84375 311.0546875 89.84375 312 92 C310.35669236 96.69516469 307.48099248 97.92277139 303.29101562 99.94287109 C298.65722759 102.08101071 293.96895679 104.09421802 289.27148438 106.08789062 C288.50513672 106.42111328 287.73878906 106.75433594 286.94921875 107.09765625 C286.26174561 107.39164307 285.57427246 107.68562988 284.8659668 107.98852539 C281.03585547 110.06469329 279.52043402 112.63143388 277.87109375 116.5859375 C277.28642334 117.96567749 277.28642334 117.96567749 276.68994141 119.37329102 C276.27663574 120.36385498 275.86333008 121.35441895 275.4375 122.375 C259.58223519 159.51704877 240.45815279 196.20818426 214 227 C213.0559418 228.13820465 212.11332587 229.27760654 211.171875 230.41796875 C199.1777753 244.84314732 184.27662183 260.41698479 165 264 C156.22097437 264.76185288 149.02970541 264.9119931 141.75 259.25 C137.8647974 254.25473952 137.35600528 248.13378577 138 242 C142.70397484 210.84198842 171.98699569 181.5894239 194.84375 161.94140625 C197.267892 159.75880014 199.53327193 157.45832367 201.8125 155.125 C206.02249751 150.87007873 210.43232022 147.06191712 215.109375 143.33203125 C217.61690138 141.3090674 220.05802611 139.22801742 222.48828125 137.11352539 C228.21970103 132.14919855 234.16590913 127.56515219 240.3125 123.125 C241.05314697 122.5897168 241.79379395 122.05443359 242.55688477 121.50292969 C246.08035434 118.98701073 249.58155351 116.66595759 253.35546875 114.54296875 C257.32593756 112.0809356 258.54365598 109.68587841 260 105.1875 C260.33765381 104.18686523 260.33765381 104.18686523 260.68212891 103.16601562 C261.18751928 101.65692469 261.6797235 100.14337616 262.16113281 98.62646484 C263.12436095 95.61063007 264.13436502 92.61239395 265.1484375 89.61328125 C267.12628466 83.75105637 269.07228061 77.87888145 271 72 C270.67 71.67 270.34 71.34 270 71 C264.87257905 76.61230784 259.76429075 82.2347337 254.77734375 87.97265625 C251.94993621 91.19776507 249.06699494 94.37256397 246.19140625 97.5546875 C244.24736964 99.72396899 242.3377365 101.91743596 240.4375 104.125 C229.81824259 116.21647265 214.9757933 131.76421016 198.0625 133.375 C189.36926224 133.24757469 180.95242566 129.00831205 174.69140625 123.11328125 C171.55541757 119.19510602 169.75510361 114.66621297 168 110 C167.22398437 110.68964844 166.44796875 111.37929688 165.6484375 112.08984375 C157.879977 118.88998378 149.91614705 124.79021384 141 130 C140.06414062 130.55042969 139.12828125 131.10085938 138.1640625 131.66796875 C130.23538116 135.81831954 121.76240553 136.78210634 113.1328125 134.11328125 C106.8378922 131.23369005 101.66670028 126.99127838 97.8125 121.22265625 C95.6730705 115.37008228 97.34105797 110.27076397 99.5 104.6875 C101.30925139 100.45483394 101.30925139 100.45483394 102 96 C101.55011719 96.58265625 101.10023438 97.1653125 100.63671875 97.765625 C74.42761797 131.17041076 74.42761797 131.17041076 57.84375 133.2734375 C48.1592885 133.6930975 39.18337636 129.78183156 31.6875 123.73828125 C25.54971302 117.41579235 23.85447225 110.25783461 23.875 101.6875 C23.87113281 100.08455078 23.87113281 100.08455078 23.8671875 98.44921875 C24.01636176 94.5750754 24.47238304 90.83987899 25 87 C23.83597656 88.21623047 23.83597656 88.21623047 22.6484375 89.45703125 C14.9373779 97.40487099 6.88916907 104.408644 -2 111 C-2.56299805 111.4237793 -3.12599609 111.84755859 -3.70605469 112.28417969 C-35.52829954 136.17381647 -35.52829954 136.17381647 -52.04296875 135.44140625 C-62.29778539 133.91063441 -71.27252433 130.03471028 -78 122 C-80.72410735 117.07565211 -80.0246177 112.37085619 -79 107 C-77.6517057 102.42731893 -76.02871779 97.97004565 -74.375 93.5 C-73.91430739 92.24081168 -73.45386042 90.98153346 -72.99365234 89.72216797 C-71.67957376 86.14164662 -70.34139343 82.57038078 -69 79 C-68.68224609 78.14180664 -68.36449219 77.28361328 -68.03710938 76.39941406 C-64.43123512 66.73448881 -59.85939674 57.80395188 -54.83349609 48.80126953 C-50.75036774 41.4713772 -46.96257912 34.02358351 -43.25 26.5 C-30.08789997 -0.05337637 -30.08789997 -0.05337637 -25 -3 C-16.66276991 -5.42048616 -7.85291305 -3.08299549 0 0 Z M247 133 C246.15179687 133.72703125 245.30359375 134.4540625 244.4296875 135.203125 C243.87047607 135.68233398 243.31126465 136.16154297 242.73510742 136.65527344 C241.4743957 137.73611987 240.21415633 138.81751746 238.9543457 139.89941406 C235.83029713 142.58103398 232.70173581 145.25627257 229.55078125 147.90625 C222.89543995 153.52051612 216.42132821 159.30117344 210.0625 165.25 C209.36471436 165.89936523 208.66692871 166.54873047 207.94799805 167.21777344 C203.32805267 171.57702704 199.12045376 176.17016872 195 181 C194.13117188 181.97582031 193.26234375 182.95164062 192.3671875 183.95703125 C177.40682659 201.09813442 159.76869538 222.61395166 159.6015625 246.1796875 C159.77215179 248.99616996 159.77215179 248.99616996 161.359375 250.84765625 C164.11520464 252.7832985 165.68498759 252.55250207 169 252 C181.43590519 245.81717708 189.83999635 233.81299581 198 223 C198.45665039 222.39881348 198.91330078 221.79762695 199.38378906 221.17822266 C210.47339027 206.53001807 220.30611164 191.18200498 229 175 C229.47083008 174.12537109 229.94166016 173.25074219 230.42675781 172.34960938 C237.15921595 159.78524055 243.42992431 147.12244303 249 134 C248.01 133.505 248.01 133.505 247 133 Z " fill="#FFFFFF" transform="translate(514,214)" /><path d="M0 0 C4.25181099 2.29597793 7.51318637 4.82215311 10 9 C9.74401873 14.92413792 6.88135305 19.90708726 4.3125 25.125 C3.83063232 26.12055908 3.34876465 27.11611816 2.85229492 28.1418457 C0.10088031 33.80041538 -2.71378314 39.42500696 -5.5625 45.03515625 C-23.61145005 76.89023599 -23.61145005 76.89023599 -27 112 C-15.14147409 111.56079534 -7.76604851 104.28474563 0 96 C0.78117188 95.22140625 1.56234375 94.4428125 2.3671875 93.640625 C9.93712635 86.04822342 17.27654028 78.19519038 23.86328125 69.73046875 C26.0447215 66.94285132 28.27874539 64.20495924 30.52368164 61.46850586 C43.11687611 46.09612365 55.07411403 30.276047 66.1640625 13.78125 C67.07285156 12.43546875 67.07285156 12.43546875 68 11.0625 C68.495 10.31097656 68.99 9.55945313 69.5 8.78515625 C71.91062107 5.91626608 73.95195725 5.10480427 77.65625 4.734375 C79.06390625 4.74210938 79.06390625 4.74210938 80.5 4.75 C81.4384375 4.74484375 82.376875 4.7396875 83.34375 4.734375 C86.07323191 5.00732319 87.69432204 5.54596886 90 7 C92.3354767 10.26966739 92.2237028 13.06959381 92 17 C91.31965749 19.52107242 90.58767019 21.91518004 89.7265625 24.37109375 C89.48700836 25.07853226 89.24745422 25.78597076 89.00064087 26.5148468 C88.21672539 28.82519644 87.4207472 31.13120203 86.625 33.4375 C85.80392042 35.84989178 84.9862713 38.26342771 84.16894531 40.67709351 C83.61131843 42.32360047 83.05271658 43.96977755 82.49316406 45.6156311 C79.65833659 53.96585467 76.94296997 62.3531475 74.25 70.75 C73.81596003 72.10084359 73.38187921 73.45167406 72.94775391 74.80249023 C71.9635796 77.86782125 70.98087547 80.93361213 70 84 C71.21018799 83.46620728 71.21018799 83.46620728 72.44482422 82.92163086 C73.5123291 82.46151611 74.57983398 82.00140137 75.6796875 81.52734375 C76.73397949 81.06835693 77.78827148 80.60937012 78.87451172 80.13647461 C83.25109751 78.5450821 86.39033788 78.47955428 91 79 C91.66 79.66 92.32 80.32 93 81 C92.91683497 84.16027109 92.41050207 85.58686651 90.171875 87.83984375 C85.52482025 91.00464828 80.48364903 93.01772028 75.3125 95.1875 C73.22517287 96.07661741 71.13792902 96.96593037 69.05078125 97.85546875 C68.12950439 98.24371826 67.20822754 98.63196777 66.2590332 99.03198242 C62.93615398 100.28387725 62.93615398 100.28387725 60.98535156 103.0559082 C60.6240918 103.96171631 60.26283203 104.86752441 59.890625 105.80078125 C59.26462402 107.33907593 59.26462402 107.33907593 58.62597656 108.90844727 C57.94486816 110.59345337 57.94486816 110.59345337 57.25 112.3125 C45.64012549 140.29214247 31.30333422 166.80452115 14.1796875 191.8046875 C12.78199289 193.85363766 11.40961925 195.92022911 10.0703125 198.0078125 C-4.20824111 220.22547891 -24.60239284 246.53678642 -50.8125 254.37890625 C-59.10908387 255.99552002 -67.58355893 256.49867098 -75 252 C-78.81963166 248.59771527 -80.67430679 245.10661218 -81.203125 240.0625 C-81.76483732 215.34715809 -62.75559847 193.27976867 -47 176 C-45.21939999 174.14884792 -43.41369094 172.34249129 -41.5625 170.5625 C-39.82934402 168.82934402 -38.26793953 166.99811352 -36.6875 165.125 C-33.26848389 161.15526989 -29.47487848 157.75080212 -25.546875 154.29296875 C-22.36629824 151.42947403 -19.37634142 148.40800439 -16.3984375 145.3359375 C-3.76026815 133.02710155 10.43076901 122.14988812 24.78125 111.9375 C25.46840088 111.44330566 26.15555176 110.94911133 26.86352539 110.43994141 C29 109 29 109 31.35327148 107.72802734 C38.68053705 103.60270032 40.53977734 98.41905883 43.0625 90.625 C43.47097168 89.44574951 43.87944336 88.26649902 44.30029297 87.05151367 C45.56450644 83.37734727 46.78447585 79.69052471 48 76 C48.80149158 73.62826541 49.6048232 71.2571517 50.41015625 68.88671875 C52.30919683 63.26928561 54.17030956 57.6403816 56 52 C55.67 51.67 55.34 51.34 55 51 C54.56171875 51.55945313 54.1234375 52.11890625 53.671875 52.6953125 C48.14599283 59.68128549 42.38429589 66.44001477 36.56445312 73.18115234 C35.03027536 74.96480159 33.50573416 76.75619233 31.984375 78.55078125 C25.18863907 86.5578585 18.24043425 94.3915236 11 102 C10.46197754 102.5667041 9.92395508 103.1334082 9.36962891 103.71728516 C-9.81399286 123.79107204 -9.81399286 123.79107204 -21.296875 124.38671875 C-26.4214661 124.26253127 -29.94506808 122.44468221 -34.25 119.8125 C-35.2709375 119.23145508 -35.2709375 119.23145508 -36.3125 118.63867188 C-41.30487072 115.71194292 -46.09851478 112.70445565 -48 107 C-51.49000495 76.38767086 -31.71308337 32.14292805 -15 7 C-10.55055863 2.07383277 -6.74528412 -0.64858501 0 0 Z M21.5625 129.4375 C20.39844746 130.45852902 19.23303776 131.47801247 18.06640625 132.49609375 C17.42912598 133.05304932 16.7918457 133.61000488 16.13525391 134.18383789 C13.75622437 136.20734586 11.31462366 138.14087343 8.87109375 140.0859375 C2.62438603 145.17972037 -3.07825828 150.74097924 -8.76123047 156.44555664 C-10.4893476 158.17682815 -12.2303804 159.89432042 -13.97265625 161.61132812 C-21.67261632 169.26808589 -28.47305418 177.32913187 -35 186 C-36.05432717 187.36225812 -37.10893382 188.72430009 -38.1640625 190.0859375 C-48.11267895 203.25805247 -60.1429229 219.44062556 -59.37890625 236.66796875 C-59.10998345 239.17796091 -59.10998345 239.17796091 -57.4375 241.75 C-53.86089284 243.58415752 -51.83459187 243.05781845 -48 242 C-34.91864702 234.10148972 -25.85740891 221.1291382 -17 209 C-16.50532227 208.33403809 -16.01064453 207.66807617 -15.50097656 206.98193359 C3.30547775 181.6365618 18.71322549 153.46874217 30 124 C26.47195696 124 24.10659403 127.18789917 21.5625 129.4375 Z " fill="#FFFFFF" transform="translate(886,223)" /><path d="M0 0 C5.74282887 0.07362601 8.57948163 1.79696319 12.78515625 5.66796875 C15.1463716 8.12126492 16.27006257 10.1196026 17 13.4375 C15.94915711 19.36043265 13.32063032 24.14772868 10.3125 29.3125 C9.89097656 30.08078125 9.46945312 30.8490625 9.03515625 31.640625 C7.59779975 33.79010645 6.54294514 34.99125238 4.3125 36.3125 C-4.07306115 37.93734451 -12.12974298 36.08449531 -19.6875 32.3125 C-21.6875 30.3125 -21.6875 30.3125 -22.3125 26.875 C-22.15068471 20.4832961 -17.54692142 16.0404545 -13.6875 11.3125 C-12.93597656 10.35859375 -12.18445313 9.4046875 -11.41015625 8.421875 C-4.86605204 0.13819879 -4.86605204 0.13819879 0 0 Z " fill="#FFFFFF" transform="translate(524.6875,155.6875)" /></svg>